<svg width="14" height="8" viewBox="0 0 14 8" fill="none" xmlns="http://www.w3.org/2000/svg">
<path d="M13.3844 0.732076C13.4819 0.829579 13.5593 0.945335 13.6121 1.07273C13.6648 1.20013 13.692 1.33668 13.692 1.47458C13.692 1.61247 13.6648 1.74902 13.6121 1.87642C13.5593 2.00382 13.4819 2.11957 13.3844 2.21708L8.86943 6.73208C8.60456 6.99675 8.29013 7.20663 7.94411 7.34973C7.59808 7.49284 7.22725 7.56635 6.85281 7.56607C6.47836 7.56579 6.10765 7.49173 5.76184 7.34811C5.41603 7.2045 5.10191 6.99414 4.83743 6.72908L0.334432 2.21858C0.236919 2.12107 0.159567 2.00532 0.106792 1.87792C0.0540183 1.75052 0.0268555 1.61397 0.0268555 1.47608C0.0268555 1.33818 0.0540183 1.20163 0.106792 1.07423C0.159567 0.946834 0.236919 0.831078 0.334432 0.733576L0.760431 0.309076C0.858033 0.211661 0.973867 0.134426 1.10132 0.0817809C1.22877 0.0291354 1.36535 0.00211019 1.50324 0.00224948C1.64114 0.00238877 1.77766 0.0296899 1.905 0.0825927C2.03235 0.135496 2.14803 0.212964 2.24543 0.310575L6.74843 4.82108C6.77654 4.84901 6.81455 4.86469 6.85418 4.86469C6.89381 4.86469 6.93183 4.84901 6.95993 4.82108L11.4749 0.307576C11.5724 0.210063 11.6882 0.132711 11.8156 0.079937C11.943 0.0271628 12.0795 0 12.2174 0C12.3553 0 12.4919 0.0271628 12.6193 0.079937C12.7467 0.132711 12.8624 0.210063 12.9599 0.307576L13.3829 0.732076H13.3844Z" fill="#F4F4F4"/>
</svg>
