<svg width="11" height="8" viewBox="0 0 11 8" fill="none" xmlns="http://www.w3.org/2000/svg">
<path d="M10.1477 3.61824C10.1477 3.46903 10.0909 3.32901 9.98223 3.21981L7.04992 0.288034C7.00378 0.241872 6.949 0.205253 6.88871 0.180269C6.82841 0.155285 6.76379 0.142426 6.69852 0.142426C6.63325 0.142426 6.56863 0.155285 6.50833 0.180269C6.44804 0.205253 6.39326 0.241872 6.34712 0.288034L6.17196 0.463735C6.1258 0.509874 6.08918 0.564655 6.06419 0.62495C6.03921 0.685245 6.02635 0.749871 6.02635 0.815137C6.02635 0.880404 6.03921 0.94503 6.06419 1.00532C6.08918 1.06562 6.1258 1.1204 6.17196 1.16654L8.00682 3.00194H1.45452C1.38923 3.00187 1.32457 3.01467 1.26423 3.0396C1.20389 3.06454 1.14905 3.10112 1.10286 3.14726C1.05667 3.19341 1.02003 3.2482 0.995024 3.30851C0.970022 3.36883 0.957153 3.43348 0.957153 3.49877V3.74745C0.957153 4.02154 1.17935 4.24374 1.45452 4.24374H8.00682L6.17196 6.0786C6.1258 6.12473 6.08918 6.17952 6.06419 6.23981C6.03921 6.30011 6.02635 6.36473 6.02635 6.43C6.02635 6.49527 6.03921 6.55989 6.06419 6.62019C6.08918 6.68048 6.1258 6.73526 6.17196 6.7814L6.34766 6.9571C6.54174 7.15118 6.85584 7.15118 7.05046 6.9571L9.98223 4.02587C10.0925 3.91504 10.1477 3.76799 10.1477 3.61824Z" fill="#161618"/>
</svg>
