<svg width="18" height="14" viewBox="0 0 18 14" fill="none" xmlns="http://www.w3.org/2000/svg">
<path d="M17.25 6.99184C17.25 6.71584 17.145 6.45684 16.944 6.25484L11.52 0.831838C11.4347 0.74645 11.3333 0.678715 11.2218 0.632501C11.1103 0.586287 10.9907 0.5625 10.87 0.5625C10.7493 0.5625 10.6297 0.586287 10.5182 0.632501C10.4067 0.678715 10.3053 0.74645 10.22 0.831838L9.896 1.15684C9.81061 1.24218 9.74288 1.34351 9.69666 1.45504C9.65045 1.56657 9.62666 1.68611 9.62666 1.80684C9.62666 1.92756 9.65045 2.0471 9.69666 2.15863C9.74288 2.27016 9.81061 2.37149 9.896 2.45684L13.29 5.85184H1.17C1.04923 5.85171 0.929621 5.87538 0.818007 5.9215C0.706393 5.96763 0.604965 6.0353 0.519522 6.12065C0.434079 6.206 0.366297 6.30736 0.32005 6.41892C0.273804 6.53048 0.25 6.65007 0.25 6.77084V7.23084C0.25 7.73784 0.661 8.14884 1.17 8.14884H13.29L9.896 11.5428C9.81061 11.6282 9.74288 11.7295 9.69666 11.841C9.65045 11.9526 9.62666 12.0721 9.62666 12.1928C9.62666 12.3136 9.65045 12.4331 9.69666 12.5446C9.74288 12.6562 9.81061 12.7575 9.896 12.8428L10.221 13.1678C10.58 13.5268 11.161 13.5268 11.521 13.1678L16.944 7.74584C17.148 7.54084 17.25 7.26884 17.25 6.99184Z" fill="#9FED61"/>
</svg>
