<svg width="931" height="854" viewBox="0 0 931 854" fill="none" xmlns="http://www.w3.org/2000/svg">
<path d="M772.638 634.78L158.911 636.895C145.285 636.94 134.21 625.928 134.166 612.302L132.938 243.516C132.893 229.89 143.905 218.815 157.531 218.77L771.213 216.637C784.839 216.592 795.914 227.604 795.959 241.23L797.231 610.034C797.276 623.66 786.264 634.735 772.638 634.78Z" fill="white"/>
<path d="M158.945 636.548C145.515 636.618 134.601 625.721 134.531 612.291L133.258 243.487C133.188 230.057 144.085 219.143 157.515 219.072L771.241 216.957C784.671 216.886 795.585 227.784 795.656 241.214L796.928 610.018C796.999 623.448 786.102 634.362 772.672 634.432L158.945 636.548Z" fill="url(#paint0_radial_394_5138)"/>
<path d="M158.961 636.245C145.745 636.297 134.93 625.542 134.878 612.325L133.606 243.521C133.554 230.305 144.309 219.49 157.525 219.438L771.252 217.323C784.468 217.271 795.283 228.026 795.335 241.243L796.563 610.029C796.614 623.246 785.859 634.061 772.643 634.112L158.961 636.245Z" fill="url(#paint1_radial_394_5138)"/>
<path d="M290.987 450.259L212.526 450.538C205.552 450.575 199.885 444.94 199.893 437.985L199.713 391.985C199.677 385.012 205.311 379.345 212.267 379.353L290.728 379.074C297.701 379.037 303.369 384.672 303.361 391.627L303.54 437.626C303.577 444.6 297.96 450.222 290.987 450.259Z" fill="url(#paint2_linear_394_5138)"/>
<path d="M290.218 378.667L212.852 378.913C205.362 378.953 199.274 384.596 199.301 391.462L199.441 438.477C199.451 445.388 205.608 450.957 213.08 450.963L290.446 450.716C297.936 450.677 304.025 445.034 303.997 438.167L303.857 391.153C303.82 384.179 297.708 378.627 290.218 378.667ZM302.948 391.104L302.993 401.328L266.185 401.468L266.052 401.674C263.632 405.463 262.373 409.967 262.39 414.767C262.379 419.505 263.658 423.978 266.056 427.706C263.552 439.297 257.971 446.79 251.791 446.778C245.592 446.811 239.978 439.341 237.361 427.795C239.719 424.033 240.96 419.573 240.926 414.818C240.937 410.08 239.658 405.607 237.26 401.879C239.764 390.288 245.344 382.795 251.525 382.807C254.776 382.799 257.931 384.866 260.668 388.779L261.467 388.321C258.703 384.345 255.432 382.181 252.011 381.967L252.016 379.598L290.222 379.442C297.223 379.467 302.897 384.692 302.948 391.104ZM266.828 427.186C264.547 423.555 263.331 419.313 263.316 414.771C263.301 410.229 264.472 405.948 266.733 402.302L302.962 402.192L303.057 427.075L266.828 427.186ZM236.583 427.282L200.354 427.393L200.258 402.51L236.488 402.399C238.769 406.03 239.985 410.272 240 414.814C239.997 419.4 238.826 423.681 236.583 427.282ZM212.821 379.778L251.028 379.621L251.022 381.99C244.594 382.345 238.889 389.891 236.368 401.527L200.227 401.673L200.182 391.449C200.176 385.054 205.865 379.77 212.821 379.778ZM200.368 438.481L200.323 428.257L236.463 428.111C239.062 439.702 244.828 447.18 251.278 447.556L251.273 449.925L213.066 450.081C206.093 450.118 200.419 444.893 200.368 438.481ZM290.432 449.834L252.226 449.991L252.231 447.622C258.66 447.267 264.364 439.721 266.886 428.085L303.026 427.939L303.071 438.163C303.123 444.575 297.45 449.815 290.432 449.834Z" fill="black"/>
<path d="M251.565 385.193C250.834 385.215 250.259 385.761 250.253 386.429C250.248 387.097 250.856 387.646 251.586 387.624C252.316 387.602 252.892 387.056 252.898 386.388C252.903 385.72 252.295 385.171 251.565 385.193Z" fill="black"/>
<path d="M632.21 278.223C632.19 277.751 632.383 277.26 632.693 276.867C633.427 275.919 634.771 275.778 635.719 276.513C641.881 281.414 650.632 284.191 659.717 284.161C668.801 284.131 677.505 281.271 683.633 276.314C684.555 275.543 685.927 275.723 686.654 276.628C687.424 277.55 687.244 278.922 686.34 279.648C679.387 285.26 669.91 288.383 659.73 288.445C649.568 288.463 640.085 285.449 633.065 279.848C632.493 279.468 632.222 278.846 632.21 278.223Z" fill="white"/>
<path d="M638.3 269.437C638.279 268.965 638.473 268.474 638.782 268.081C639.517 267.133 640.861 266.992 641.809 267.726C646.397 271.389 652.909 273.439 659.669 273.421C666.428 273.404 672.936 271.276 677.477 267.601C678.399 266.83 679.772 267.01 680.498 267.915C681.269 268.837 681.089 270.209 680.184 270.935C674.819 275.265 667.52 277.7 659.682 277.705C651.845 277.711 644.574 275.362 639.154 271.062C638.582 270.682 638.312 270.06 638.3 269.437Z" fill="white"/>
<path d="M644.39 260.65C644.37 260.178 644.563 259.687 644.873 259.294C645.607 258.346 646.951 258.205 647.899 258.939C650.886 261.302 655.186 262.686 659.621 262.681C664.056 262.675 668.324 261.263 671.322 258.887C672.244 258.117 673.616 258.296 674.343 259.201C675.113 260.123 674.934 261.496 674.029 262.222C670.251 265.27 665.148 266.971 659.635 266.964C654.167 266.975 649.046 265.319 645.227 262.32C644.673 261.895 644.402 261.273 644.39 260.65Z" fill="white"/>
<path d="M650.48 251.864C650.46 251.392 650.653 250.901 650.963 250.507C651.697 249.559 653.041 249.419 653.989 250.153C655.402 251.277 657.463 251.934 659.591 251.896C661.72 251.858 663.774 251.224 665.201 250.085C666.124 249.314 667.496 249.494 668.222 250.399C668.993 251.321 668.813 252.693 667.909 253.42C665.718 255.186 662.811 256.154 659.649 256.197C656.506 256.196 653.579 255.249 651.379 253.507C650.763 253.109 650.492 252.487 650.48 251.864Z" fill="white"/>
<path d="M213.791 520.214C213.794 520.73 213.537 520.99 212.958 521.02L194.318 521.1C193.802 521.103 193.542 520.846 193.512 520.267C193.492 519.795 193.749 519.535 194.31 519.55L202.878 519.523L202.754 489.216L194.293 489.234C193.732 489.219 193.428 488.945 193.443 488.383C193.44 487.867 193.759 487.58 194.32 487.595L204.375 487.587L204.472 519.532L212.158 519.519L212.117 508.368C212.143 508.172 212.213 507.994 212.373 507.851C212.532 507.707 212.719 507.626 212.915 507.652C213.111 507.677 213.289 507.748 213.433 507.907C213.621 508.084 213.702 508.271 213.659 508.512L213.791 520.214Z" fill="white"/>
<path d="M212.926 521.626L194.286 521.706C193.404 521.719 192.813 521.126 192.817 520.199C192.804 519.318 193.362 518.816 194.244 518.803L202.143 518.77L202.116 489.79L194.323 489.813C193.397 489.809 192.806 489.215 192.81 488.289C192.796 487.407 193.39 486.816 194.361 486.838L205.101 486.79L205.198 518.736L211.548 518.712L211.519 508.185C211.518 507.926 211.614 507.552 211.968 507.176C212.27 506.934 212.581 506.799 212.946 506.788C213.204 506.787 213.579 506.882 213.955 507.237C214.259 507.511 214.421 507.884 214.414 508.294L214.432 520.157C214.428 521.083 213.852 521.63 212.926 521.626ZM194.19 520.379C194.19 520.379 194.234 520.397 194.297 520.37L212.919 520.334C213.026 520.325 213.071 520.342 213.088 520.298C213.088 520.298 213.106 520.253 213.079 520.191L213.061 508.328C213.078 508.283 213.034 508.266 213.007 508.204C212.98 508.141 212.935 508.124 212.935 508.124C212.935 508.124 212.873 508.151 212.855 508.195L212.873 520.058L203.896 520.079L203.799 488.133L194.412 488.147C194.261 488.139 194.199 488.166 194.199 488.166C194.199 488.166 194.181 488.21 194.208 488.273C194.217 488.379 194.244 488.442 194.244 488.442C194.244 488.442 194.289 488.459 194.396 488.45L203.525 488.437L203.638 520.08L194.402 520.102C194.358 520.084 194.295 520.112 194.295 520.112L194.278 520.156C194.163 520.317 194.207 520.335 194.19 520.379Z" fill="white"/>
<path d="M242.865 519.294C243.017 519.302 243.195 519.372 243.339 519.532C243.482 519.692 243.608 519.896 243.609 520.154C243.629 520.626 243.372 520.886 242.856 520.888L223.29 520.964L223.231 506.457C223.217 505.575 223.561 504.834 224.155 504.243C224.766 503.608 225.512 503.283 226.376 503.314L241.962 503.268L241.904 489.018L223.843 489.069C223.282 489.054 222.978 488.779 222.993 488.218C223.001 488.067 223.071 487.888 223.248 487.7C223.425 487.512 223.612 487.431 223.87 487.43L240.337 487.37C241.219 487.356 241.915 487.682 242.551 488.293C243.142 488.887 243.466 489.633 243.48 490.515L243.521 501.665C243.534 502.547 243.218 503.35 242.624 503.941C242.013 504.577 241.284 504.857 240.447 504.888L224.862 504.934L224.911 519.335L242.865 519.294Z" fill="white"/>
<path d="M242.85 521.556L222.616 521.627L222.563 506.452C222.557 505.418 222.927 504.481 223.68 503.747C224.433 503.013 225.321 502.59 226.399 502.602L241.316 502.55L241.293 489.654L223.9 489.71C222.974 489.706 222.383 489.112 222.387 488.186C222.403 487.883 222.526 487.571 222.818 487.222C223.11 486.873 223.528 486.728 223.955 486.69L240.422 486.631C241.455 486.625 242.392 486.994 243.127 487.747C243.861 488.501 244.222 489.416 244.227 490.449L244.268 501.599C244.256 502.677 243.887 503.614 243.178 504.366C242.47 505.118 241.537 505.523 240.504 505.529L225.586 505.581L225.646 518.646L242.933 518.599C243.236 518.615 243.548 518.738 243.852 519.013C244.085 519.208 244.309 519.554 244.339 520.133C244.263 520.979 243.687 521.525 242.85 521.556ZM223.918 520.284L242.861 520.22C242.906 520.238 242.906 520.238 242.923 520.193L242.941 520.149C242.931 520.042 242.931 520.042 242.887 520.024C242.842 520.007 242.798 519.989 242.815 519.945L224.237 519.998L224.195 505.187C223.992 505.571 223.896 505.946 223.872 506.4L223.918 520.284ZM225.063 504.292L240.39 504.247C240.862 504.227 241.307 504.144 241.671 503.875L226.344 503.92C225.872 503.94 225.471 504.04 225.063 504.292ZM242.583 489.389L242.636 502.864C242.821 502.524 242.873 502.132 242.897 501.678L242.856 490.528C242.818 490.1 242.701 489.745 242.583 489.389ZM223.697 488.393C223.697 488.393 223.742 488.41 223.848 488.401L241.562 488.317C241.223 488.131 240.804 488.018 240.394 488.011L223.927 488.071C223.82 488.081 223.82 488.081 223.758 488.108C223.678 488.179 223.66 488.224 223.66 488.224C223.67 488.331 223.652 488.375 223.697 488.393C223.652 488.375 223.652 488.375 223.697 488.393Z" fill="white"/>
<path d="M274.179 517.66C274.193 518.542 273.867 519.238 273.211 519.856C272.555 520.474 271.826 520.754 270.945 520.768L254.629 520.836C254.113 520.838 253.853 520.581 253.85 520.065C253.847 519.548 254.104 519.289 254.683 519.259L272.442 519.192L272.403 508.559C272.38 507.57 272.046 506.717 271.285 505.902C270.568 505.104 269.631 504.735 268.554 504.723L259.167 504.736C258.712 504.712 258.497 504.473 258.495 503.956C258.509 503.395 258.722 503.118 259.238 503.115L268.625 503.101C269.703 503.113 270.636 502.708 271.362 501.911C272.088 501.115 272.467 500.285 272.444 499.296L272.425 488.876L254.363 488.927C253.847 488.929 253.587 488.672 253.557 488.094C253.555 487.577 253.811 487.317 254.39 487.288L270.813 487.21C271.694 487.197 272.391 487.522 273.026 488.134C273.617 488.727 273.942 489.474 273.938 490.4L273.992 499.03C274.006 499.911 273.858 500.678 273.577 501.392C273.296 502.106 272.659 502.938 271.639 503.825C272.66 504.897 273.324 505.828 273.666 506.53C274.008 507.232 274.154 507.908 274.149 508.576L274.179 517.66Z" fill="white"/>
<path d="M270.939 521.436L254.624 521.504C253.742 521.517 253.196 520.941 253.182 520.06C253.169 519.178 253.762 518.587 254.689 518.591L271.824 518.537L271.78 508.571C271.794 507.752 271.451 507.05 270.851 506.349C270.233 505.694 269.475 505.395 268.61 505.364L259.223 505.377C258.556 505.372 257.877 505.002 257.889 503.924C257.874 502.784 258.593 502.397 259.261 502.403L268.648 502.389C269.574 502.393 270.321 502.068 270.887 501.415C271.499 500.78 271.78 500.066 271.793 499.246L271.769 489.494L254.375 489.55C253.494 489.564 252.903 488.97 252.907 488.044C252.893 487.162 253.487 486.571 254.413 486.575L270.836 486.498C271.869 486.492 272.761 486.844 273.495 487.597C274.23 488.35 274.608 489.221 274.596 490.299L274.651 498.928C274.647 499.855 274.491 500.773 274.192 501.531C273.929 502.201 273.371 502.961 272.583 503.784C273.399 504.724 273.964 505.514 274.261 506.198C274.613 507.006 274.831 507.762 274.808 508.475L274.838 517.559C274.843 518.592 274.429 519.512 273.676 520.246C272.888 521.069 272.017 521.448 270.939 521.436ZM254.528 520.177C254.528 520.177 254.572 520.195 254.634 520.168L270.95 520.1C271.36 520.107 271.76 520.007 272.089 519.827L254.695 519.883C254.589 519.892 254.544 519.874 254.526 519.919C254.526 519.919 254.509 519.964 254.536 520.026C254.501 520.115 254.545 520.133 254.528 520.177ZM259.199 504.131L268.586 504.117C269.877 504.11 270.931 504.577 271.808 505.489C272.641 506.384 273.101 507.442 273.116 508.582L273.17 518.913C273.418 518.546 273.531 518.127 273.511 517.655L273.481 508.571C273.478 508.054 273.359 507.441 273.044 506.801C272.729 506.161 272.137 505.309 271.143 504.299L270.668 503.803L271.165 503.329C272.104 502.513 272.706 501.771 272.952 501.146C273.198 500.521 273.328 499.799 273.324 499.024L273.27 490.395C273.259 490.03 273.203 489.647 273.068 489.336L273.112 499.302C273.127 500.442 272.66 501.495 271.837 502.408C270.969 503.303 269.911 503.763 268.62 503.769L259.233 503.783C259.188 503.766 259.188 503.766 259.171 503.81C259.171 503.81 259.136 503.899 259.145 504.006C259.217 504.086 259.217 504.086 259.199 504.131ZM254.262 488.268C254.262 488.268 254.306 488.286 254.369 488.259L272.065 488.219C271.681 488.016 271.306 487.92 270.852 487.896L254.429 487.973C254.323 487.983 254.278 487.965 254.26 488.01C254.26 488.01 254.243 488.055 254.27 488.117C254.235 488.206 254.262 488.268 254.262 488.268Z" fill="white"/>
<path d="M298.816 519.89C298.819 520.407 298.562 520.666 298.046 520.669C297.574 520.689 297.314 520.433 297.329 519.871L297.279 508.614L283.288 508.67L283.223 488.026C283.205 487.812 283.337 487.607 283.514 487.419C283.736 487.249 283.923 487.167 284.181 487.166C284.377 487.192 284.555 487.262 284.699 487.422C284.842 487.581 284.906 487.812 284.934 488.133L285.016 507.031L297.306 506.975L297.245 491.951C297.242 491.435 297.499 491.175 297.971 491.155C298.167 491.18 298.345 491.251 298.506 491.366C298.649 491.525 298.775 491.729 298.75 491.925L298.811 506.95C299.434 506.938 299.933 506.979 300.281 507.013C300.628 507.047 300.851 507.135 300.968 507.232C301.084 507.33 301.155 507.409 301.165 507.516C301.174 507.623 301.157 507.668 301.184 507.73C301.195 508.095 301.107 508.318 300.92 508.399C300.716 508.525 300.396 508.553 299.968 508.591L298.828 508.606L298.816 519.89Z" fill="white"/>
<path d="M298.04 521.338C297.159 521.351 296.657 520.793 296.643 519.911L296.632 509.34L282.641 509.395L282.582 488.083C282.599 487.781 282.668 487.344 283.129 486.958C283.448 486.672 283.803 486.554 284.213 486.561C284.471 486.559 284.846 486.655 285.222 487.01C285.464 487.311 285.626 487.684 285.602 488.139L285.689 506.369L296.688 506.32L296.621 491.964C296.608 491.082 297.139 490.518 298.021 490.505C298.386 490.494 298.698 490.617 299.002 490.892C299.307 491.166 299.469 491.539 299.462 491.949L299.529 506.305C299.894 506.294 300.179 506.355 300.42 506.399C300.857 506.467 301.169 506.591 301.419 506.741C301.83 507.006 301.903 507.344 301.922 507.557L301.941 507.771C301.963 508.501 301.626 508.832 301.342 509.03C301.058 509.227 300.613 509.31 300.052 509.295L299.58 509.315L299.591 519.887C299.498 520.778 298.967 521.342 298.04 521.338ZM297.989 520.029C298.033 520.046 298.14 520.037 298.158 519.992C298.158 519.992 298.175 519.948 298.148 519.885L298.086 508.005L299.894 507.995C300.214 507.967 300.366 507.975 300.473 507.966C300.473 507.966 300.49 507.921 300.463 507.859C300.418 507.841 300.285 507.789 300.133 507.78C299.848 507.72 299.393 507.695 298.77 507.708L298.102 507.702L298.091 492.027C298.108 491.983 298.108 491.983 298.064 491.965C297.948 491.868 297.93 491.913 297.93 491.913C297.93 491.913 297.912 491.957 297.939 492.019L297.995 507.712L284.325 507.739L284.248 488.173C284.239 488.066 284.229 487.959 284.202 487.897C284.158 487.879 284.113 487.862 283.971 487.96C283.909 487.987 283.891 488.032 283.891 488.032L283.961 508.008L297.952 507.952L298.015 519.833C297.962 519.967 298.006 519.984 297.989 520.029Z" fill="white"/>
<path d="M366.098 517.373C366.111 518.254 365.785 518.951 365.174 519.586C364.58 520.177 363.834 520.502 362.97 520.471L352.23 520.518C351.303 520.514 350.447 520.332 349.768 519.961L346.323 518.501C346.011 518.378 345.796 518.139 345.802 517.729C345.8 517.212 346.012 516.935 346.484 516.915C346.742 516.913 347.099 517.054 347.483 517.257L350.349 518.489C351.152 518.805 351.767 518.944 352.239 518.924L364.467 518.895L364.418 504.494L350.427 504.55L350.379 487.005L365.145 486.946C365.359 486.927 365.564 487.059 365.707 487.219C365.851 487.378 365.914 487.61 365.951 487.779C365.943 487.93 365.872 488.108 365.802 488.287C365.67 488.493 365.483 488.574 365.18 488.557L351.964 488.609L352.003 502.903L362.895 502.864C363.67 502.86 364.429 503.158 365.047 503.814C365.682 504.425 366.007 505.172 366.02 506.053L366.098 517.373Z" fill="white"/>
<path d="M363.009 521.157L352.269 521.204C351.236 521.21 350.29 520.992 349.478 520.569L346.077 519.126C345.524 518.96 345.174 518.409 345.179 517.741C345.191 516.664 345.866 516.259 346.534 516.265C346.899 516.254 347.363 516.385 347.863 516.685L350.684 517.899C351.532 518.233 352.031 518.275 352.289 518.274L363.849 518.24L363.789 505.175L349.815 505.186L349.734 486.288L365.168 486.233C365.578 486.24 365.979 486.398 366.248 486.762C366.49 487.063 366.608 487.419 366.636 487.74C366.638 487.998 366.559 488.328 366.347 488.605C366.215 488.811 365.905 489.204 365.175 489.226L352.626 489.283L352.677 502.241L362.901 502.196C363.871 502.218 364.764 502.569 365.498 503.322C366.277 504.093 366.656 504.964 366.661 505.997L366.676 517.343C366.682 518.376 366.33 519.269 365.577 520.003C364.975 520.745 364.06 521.106 363.009 521.157ZM346.523 517.601C346.506 517.645 346.506 517.645 346.515 517.752C346.525 517.859 346.552 517.921 346.552 517.921L346.641 517.956L350.086 519.417C350.765 519.787 351.487 519.917 352.307 519.93L363.047 519.883C363.457 519.89 363.812 519.772 364.168 519.654L352.35 519.69C351.833 519.692 351.129 519.518 350.263 519.229L347.353 517.979C346.781 517.599 346.585 517.574 346.523 517.601ZM365.124 504.927L365.204 518.464C365.389 518.125 365.423 517.777 365.43 517.368L365.414 506.021C365.377 505.594 365.304 505.256 365.124 504.927ZM351.162 503.861L364.076 503.793C363.736 503.608 363.362 503.512 362.952 503.505L351.392 503.539L351.346 487.954L365.23 487.907C365.275 487.925 365.292 487.88 365.292 487.88C365.327 487.791 365.345 487.746 365.345 487.746C365.345 487.746 365.318 487.684 365.246 487.604L351.104 487.652L351.162 503.861Z" fill="white"/>
<path d="M396.586 519.537C396.56 519.733 396.49 519.911 396.33 520.055C396.153 520.242 395.966 520.324 395.815 520.316L377.237 520.369C376.676 520.354 376.372 520.079 376.386 519.518L376.272 487.617C376.298 487.421 376.368 487.243 376.483 487.082C376.643 486.938 376.847 486.813 377.15 486.829L379.412 486.844C379.715 486.86 379.92 486.992 380.073 487.259C380.226 487.525 380.289 487.756 380.264 487.952C380.256 488.104 380.158 488.22 379.954 488.346C379.75 488.472 379.26 488.537 378.503 488.496L377.88 488.508L377.949 506.783L395.797 506.752C395.948 506.76 396.127 506.83 396.27 506.99C396.458 507.167 396.522 507.398 396.505 507.701L396.586 519.537ZM394.987 518.752L394.95 508.377L377.922 508.422L377.959 518.797L394.987 518.752Z" fill="white"/>
<path d="M395.792 521.028L377.214 521.081C376.288 521.077 375.697 520.484 375.701 519.558L375.587 487.657C375.576 487.291 375.699 486.979 375.973 486.675C376.168 486.442 376.514 486.218 377.138 486.206L379.4 486.22C379.961 486.235 380.372 486.5 380.651 486.971C380.813 487.344 380.903 487.637 380.932 487.958C380.951 488.172 380.82 488.635 380.287 488.941C380.083 489.067 379.682 489.167 378.587 489.199L378.65 506.183L395.829 506.146C396.15 506.118 396.489 506.303 396.794 506.577C397.026 506.772 397.233 507.163 397.263 507.742L397.281 519.604C397.282 519.863 397.186 520.237 396.832 520.613C396.45 520.927 396.05 521.027 395.792 521.028ZM377.073 519.737C377.073 519.737 377.118 519.755 377.225 519.746L395.803 519.692C395.803 519.692 395.803 519.692 395.883 519.621C395.9 519.576 395.962 519.549 395.962 519.549L395.927 507.731C395.917 507.624 395.908 507.517 395.863 507.5C395.819 507.482 395.836 507.437 395.792 507.42L377.365 507.481L377.307 487.87L378.598 487.863C379.221 487.851 379.542 487.823 379.649 487.813C379.622 487.751 379.594 487.689 379.567 487.627L377.261 487.594C377.154 487.604 377.092 487.631 377.092 487.631C377.074 487.675 377.012 487.702 377.056 487.72L377.171 519.621C377.046 519.675 377.073 519.737 377.073 519.737ZM395.65 519.426L377.268 519.505L377.242 507.793L395.624 507.715L395.65 519.426ZM378.615 518.18L394.307 518.124L394.26 509.084L378.567 509.14L378.615 518.18Z" fill="white"/>
<path d="M410.167 519.474C410.152 520.035 409.895 520.295 409.379 520.297C409.121 520.299 408.897 520.211 408.71 520.034C408.522 519.857 408.44 519.67 408.484 519.429L408.423 507.807C408.429 507.397 408.552 507.085 408.774 506.915L417.844 499.199L417.787 488.352L401.124 488.386C400.888 489.117 400.721 489.67 400.571 489.921C400.421 490.171 400.217 490.296 400.003 490.315C399.442 490.301 399.183 490.044 399.18 489.527L399.161 487.612C399.142 487.399 399.274 487.193 399.452 487.005C399.629 486.817 399.86 486.754 400.074 486.735L419.453 486.74L419.502 499.44C419.504 499.698 419.398 499.966 419.186 500.243L410.178 507.932L410.167 519.474Z" fill="white"/>
<path d="M409.418 520.983C409.008 520.976 408.607 520.818 408.303 520.544C407.998 520.269 407.836 519.896 407.843 519.486L407.782 507.864C407.769 507.241 407.963 506.75 408.344 506.436L417.175 498.935L417.141 489.077L401.662 489.113C401.496 489.667 401.338 490.068 401.188 490.318C400.835 490.952 400.328 491.062 400.07 491.063C399.143 491.059 398.535 490.51 398.584 489.602L398.565 487.687C398.571 487.277 398.729 486.876 399.049 486.589C399.368 486.302 399.723 486.185 400.088 486.174L420.109 486.122L420.153 499.49C420.146 499.899 419.97 500.346 419.661 500.739L419.581 500.811L410.794 508.329L410.818 519.524C410.849 520.361 410.3 520.97 409.418 520.983ZM400.64 487.783L418.443 487.734L418.479 499.552L409.231 507.456C409.151 507.528 409.143 507.679 409.135 507.83L409.196 519.453C409.179 519.497 409.223 519.515 409.25 519.577C409.295 519.595 409.322 519.657 409.429 519.647C409.474 519.665 409.536 519.638 409.536 519.638C409.536 519.638 409.553 519.593 409.544 519.486L409.508 507.668L418.694 499.791C418.773 499.72 418.826 499.586 418.817 499.479L418.762 487.447L400.095 487.465C400.051 487.448 399.988 487.475 399.909 487.546C399.829 487.618 399.829 487.618 399.873 487.636L399.892 489.55C399.875 489.595 399.902 489.657 399.902 489.657C399.902 489.657 399.947 489.675 400.009 489.648L400.026 489.603C400.079 489.469 400.264 489.13 400.527 488.202L400.64 487.783Z" fill="white"/>
<path d="M447.035 517.09C447.048 517.971 446.722 518.668 446.067 519.286C445.411 519.904 444.682 520.184 443.863 520.17L429.871 520.226C428.99 520.239 428.276 519.958 427.64 519.347C427.005 518.736 426.725 518.007 426.694 517.17L426.651 505.762C426.641 505.396 426.719 505.066 426.797 504.737C426.893 504.362 427.079 504.023 427.398 503.736C427.734 503.405 428.187 503.171 428.792 502.945C429.396 502.719 430.251 502.643 431.346 502.611L431.302 487.542C431.3 487.025 431.557 486.766 432.135 486.736L441.433 486.687C441.647 486.668 441.852 486.801 442.04 486.978C442.228 487.155 442.292 487.386 442.311 487.6L442.372 502.624C443.36 502.601 444.145 502.704 444.742 502.888C445.34 503.072 445.813 503.309 446.162 503.602C446.511 503.894 446.736 504.24 446.791 504.622C446.891 505.023 446.947 505.405 446.913 505.753L447.035 517.09ZM445.466 518.585L445.417 504.184L428.327 504.256L428.376 518.657L445.466 518.585ZM440.733 502.597L440.694 488.303L432.901 488.326L432.94 502.62L440.733 502.597Z" fill="white"/>
<path d="M443.902 520.855L429.911 520.911C428.878 520.917 427.94 520.547 427.189 519.839C426.437 519.13 426.031 518.197 426.026 517.164L425.983 505.756C425.99 505.346 426.042 504.954 426.155 504.535C426.286 504.071 426.569 503.615 426.941 503.195C427.357 502.792 427.89 502.486 428.601 502.251C429.143 502.052 429.847 501.968 430.701 501.892L430.652 487.492C430.639 486.61 431.232 486.019 432.158 486.023L441.456 485.974C441.866 485.981 442.267 486.139 442.554 486.458C442.841 486.777 442.958 487.133 442.969 487.498L443.036 501.854C443.793 501.895 444.426 501.989 444.934 502.138C445.621 502.357 446.184 502.63 446.604 503.002C447.07 503.392 447.348 503.862 447.458 504.369C447.54 504.814 447.623 505.259 447.616 505.669L447.631 517.015C447.636 518.048 447.223 518.968 446.47 519.702C445.761 520.454 444.89 520.832 443.902 520.855ZM428.78 519.332C429.12 519.517 429.512 519.568 429.921 519.575L443.913 519.519C444.322 519.526 444.66 519.453 444.989 519.273L428.78 519.332ZM427.633 504.447C427.536 504.563 427.483 504.697 427.43 504.831C427.369 505.116 427.309 505.401 427.292 505.704L427.335 517.113C427.31 517.567 427.41 517.967 427.635 518.314L427.633 504.447ZM446.087 504.448L446.159 518.136C446.344 517.797 446.422 517.467 446.429 517.057L446.414 505.711C446.43 505.408 446.357 505.07 446.284 504.732C446.168 504.634 446.141 504.572 446.087 504.448ZM429.005 517.977L444.804 517.912L444.744 504.847L428.989 504.93L429.005 517.977ZM428.786 503.612L444.737 503.555C444.692 503.538 444.648 503.52 444.559 503.485C444.005 503.319 443.31 503.251 442.384 503.247L441.716 503.242L441.66 487.549C441.678 487.505 441.651 487.443 441.579 487.363C441.508 487.283 441.508 487.283 441.49 487.328L432.192 487.377C432.085 487.386 432.041 487.368 432.023 487.413C432.023 487.413 432.006 487.458 432.033 487.52L432.071 503.257L431.403 503.251C430.37 503.257 429.605 503.368 429.018 503.549C428.973 503.531 428.911 503.558 428.786 503.612ZM441.396 503.27L432.267 503.282L432.221 487.697L441.349 487.685L441.396 503.27ZM433.569 501.94L440.026 501.906L439.976 488.948L433.519 488.982L433.569 501.94Z" fill="white"/>
<path d="M493.563 519.231C493.565 519.748 493.308 520.008 492.837 520.028L490.467 520.023C490.165 520.006 489.941 519.918 489.86 519.732C489.735 519.528 489.698 519.359 489.706 519.207C489.759 519.073 489.812 518.939 489.847 518.85C489.882 518.761 489.917 518.672 490.041 518.618C490.166 518.564 490.335 518.527 490.655 518.499C490.976 518.47 491.386 518.477 492.009 518.465L491.93 500.083L474.172 500.15C473.913 500.151 473.69 500.063 473.564 499.859C473.421 499.699 473.358 499.468 473.339 499.255L473.321 487.392C473.319 487.133 473.407 486.91 473.611 486.785C473.771 486.641 474.002 486.578 474.216 486.559L492.794 486.506C492.945 486.514 493.124 486.584 493.267 486.744C493.41 486.903 493.536 487.107 493.538 487.366L493.563 519.231ZM491.975 498.4L491.947 488.131L474.857 488.203L474.884 498.472L491.975 498.4Z" fill="white"/>
<path d="M492.831 520.696L490.462 520.691C489.732 520.712 489.391 520.269 489.265 520.065C489.086 519.736 489.022 519.505 489.038 519.202L489.046 519.05L489.099 518.917C489.152 518.783 489.187 518.693 489.187 518.693C489.248 518.408 489.443 518.176 489.726 517.978C489.913 517.897 490.206 517.806 490.616 517.813C490.83 517.794 491.044 517.775 491.346 517.791L491.274 500.701L474.139 500.756C473.667 500.776 473.283 500.573 473.014 500.209C472.772 499.908 472.655 499.552 472.644 499.187L472.626 487.324C472.605 486.852 472.808 486.468 473.172 486.199C473.474 485.957 473.829 485.839 474.194 485.829L492.772 485.775C493.075 485.792 493.387 485.915 493.692 486.189C493.924 486.384 494.149 486.73 494.179 487.309L494.275 519.255C494.2 520.101 493.668 520.665 492.831 520.696ZM490.366 519.364L490.411 519.382L492.78 519.387C492.824 519.405 492.824 519.405 492.842 519.36C492.842 519.36 492.86 519.315 492.833 519.253L492.753 487.263C492.744 487.156 492.744 487.156 492.699 487.138C492.628 487.059 492.628 487.059 492.628 487.059L474.139 487.147C474.094 487.129 474.032 487.156 473.952 487.228C473.952 487.228 473.935 487.273 473.917 487.317L473.935 499.18C473.917 499.225 473.945 499.287 474.016 499.367C474.016 499.367 474.061 499.384 474.105 499.402L492.532 499.341L492.6 519.058L491.932 519.053C491.353 519.083 490.899 519.059 490.623 519.105C490.516 519.114 490.409 519.123 490.347 519.15C490.33 519.195 490.33 519.195 490.312 519.24C490.339 519.302 490.384 519.319 490.366 519.364ZM492.637 499.073L474.211 499.134L474.194 487.53L492.621 487.468L492.637 499.073ZM475.513 497.792L491.312 497.726L491.274 488.794L475.475 488.859L475.513 497.792Z" fill="white"/>
<path d="M524.134 516.996C524.138 517.771 523.875 518.44 523.281 519.031C522.732 519.639 522.003 519.919 521.122 519.933L506.765 519.999C505.884 520.013 505.187 519.687 504.614 519.049C504.041 518.411 503.788 517.744 503.766 517.014L503.665 489.397C503.661 488.622 503.969 487.97 504.563 487.379C505.157 486.788 505.841 486.491 506.633 486.442L521.079 486.41C521.809 486.389 522.461 486.697 523.052 487.291C523.643 487.884 523.94 488.569 523.962 489.299L524.134 516.996ZM522.618 518.357L522.522 488.113L505.387 488.167L505.483 518.412L522.618 518.357Z" fill="white"/>
<path d="M521.116 520.601L506.822 520.641C505.789 520.646 504.87 520.232 504.18 519.497C503.49 518.761 503.156 517.908 503.16 516.982L503.059 489.364C503.064 488.438 503.398 487.59 504.151 486.856C504.859 486.104 505.73 485.725 506.701 485.747L521.146 485.716C522.028 485.702 522.858 486.081 523.61 486.789C524.344 487.542 524.696 488.351 524.737 489.295L524.82 516.957C524.816 517.883 524.482 518.731 523.791 519.438C523.082 520.19 522.211 520.568 521.116 520.601ZM505.736 519.079C506.031 519.246 506.406 519.342 506.815 519.349L521.172 519.283C521.581 519.289 521.937 519.172 522.248 519.036L505.736 519.079ZM504.648 488.341C504.463 488.68 504.322 489.037 504.333 489.402L504.434 517.019C504.427 517.429 504.545 517.785 504.769 518.131L504.648 488.341ZM523.156 488.466L523.266 517.891C523.372 517.623 523.45 517.293 523.466 516.991L523.383 489.329C523.355 489.008 523.309 488.732 523.156 488.466ZM506.112 517.732L521.956 517.684L521.848 488.776L506.005 488.823L506.112 517.732ZM505.499 487.49L522.224 487.429C521.858 487.181 521.501 487.041 521.136 487.052L506.69 487.083C506.263 487.121 505.863 487.221 505.499 487.49Z" fill="white"/>
<path d="M554.479 519C554.482 519.517 554.225 519.777 553.646 519.806L535.006 519.887C534.49 519.889 534.23 519.632 534.2 519.054C534.18 518.582 534.437 518.322 534.998 518.337L543.566 518.31L543.442 488.003L534.981 488.021C534.42 488.006 534.116 487.731 534.13 487.17C534.128 486.654 534.447 486.367 535.008 486.382L545.063 486.374L545.16 518.319L552.846 518.305L552.805 507.155C552.831 506.959 552.901 506.781 553.06 506.637C553.22 506.494 553.407 506.413 553.62 506.394C553.816 506.42 553.995 506.49 554.138 506.65C554.326 506.827 554.407 507.013 554.364 507.254L554.479 519Z" fill="white"/>
<path d="M553.641 520.474L535.001 520.554C534.119 520.568 533.528 519.974 533.532 519.048C533.519 518.166 534.077 517.665 534.959 517.651L542.858 517.618L542.769 488.665L534.976 488.688C534.05 488.684 533.459 488.091 533.463 487.164C533.449 486.283 534.043 485.692 535.014 485.713L545.754 485.666L545.851 517.612L552.201 517.587L552.172 507.06C552.171 506.802 552.267 506.427 552.621 506.051C552.923 505.809 553.234 505.674 553.599 505.663C553.857 505.662 554.232 505.758 554.607 506.112C554.912 506.387 555.074 506.76 555.067 507.17L555.085 519.033C555.143 519.932 554.567 520.478 553.641 520.474ZM534.922 519.183C534.922 519.183 534.967 519.201 535.029 519.174L553.669 519.093C553.776 519.084 553.821 519.101 553.838 519.057C553.838 519.057 553.856 519.012 553.829 518.95L553.811 507.087C553.829 507.043 553.784 507.025 553.757 506.963C553.73 506.901 553.685 506.883 553.685 506.883C553.685 506.883 553.623 506.91 553.605 506.955L553.623 518.818L544.646 518.838L544.549 486.892L535.162 486.906C535.011 486.898 534.949 486.925 534.949 486.925C534.949 486.925 534.931 486.97 534.958 487.032C534.968 487.139 534.995 487.201 534.995 487.201C534.995 487.201 535.039 487.218 535.146 487.209L544.275 487.197L544.388 518.839L535.152 518.861C535.108 518.844 535.046 518.871 535.046 518.871L535.028 518.915C534.895 519.121 534.922 519.183 534.922 519.183Z" fill="white"/>
<path d="M583.535 518.126C583.687 518.134 583.865 518.204 584.008 518.364C584.152 518.523 584.278 518.727 584.279 518.986C584.299 519.458 584.042 519.717 583.526 519.72L563.959 519.796L563.901 505.288C563.887 504.407 564.231 503.666 564.824 503.075C565.436 502.439 566.182 502.115 567.046 502.146L582.632 502.1L582.574 487.85L564.513 487.901C563.952 487.886 563.648 487.611 563.662 487.05C563.671 486.899 563.741 486.72 563.918 486.532C564.095 486.344 564.282 486.263 564.54 486.262L581.007 486.202C581.889 486.188 582.585 486.514 583.221 487.125C583.812 487.719 584.136 488.465 584.15 489.347L584.191 500.497C584.204 501.379 583.888 502.182 583.294 502.773C582.683 503.408 581.954 503.688 581.117 503.72L565.532 503.766L565.581 518.167L583.535 518.126Z" fill="white"/>
<path d="M583.582 520.361L563.348 520.432L563.295 505.256C563.29 504.223 563.659 503.286 564.412 502.552C565.165 501.817 566.053 501.394 567.131 501.406L582.049 501.354L582.025 488.459L564.632 488.514C563.706 488.51 563.115 487.917 563.119 486.991C563.135 486.688 563.258 486.375 563.55 486.026C563.842 485.678 564.26 485.533 564.687 485.495L581.154 485.435C582.187 485.43 583.125 485.799 583.859 486.552C584.593 487.305 584.954 488.22 584.96 489.254L585 500.404C584.988 501.481 584.619 502.419 583.911 503.17C583.202 503.922 582.269 504.328 581.236 504.333L566.319 504.385L566.378 517.45L583.665 517.404C583.968 517.42 584.28 517.543 584.584 517.817C584.817 518.012 585.041 518.358 585.071 518.937C584.978 519.828 584.402 520.374 583.582 520.361ZM564.65 519.089L583.593 519.025C583.638 519.043 583.638 519.043 583.655 518.998L583.673 518.953C583.664 518.846 583.664 518.846 583.619 518.829C583.574 518.811 583.53 518.794 583.547 518.749L564.969 518.802L564.927 503.992C564.724 504.376 564.628 504.75 564.604 505.205L564.65 519.089ZM565.778 503.141L581.105 503.096C581.577 503.076 582.022 502.993 582.385 502.724L567.058 502.769C566.604 502.745 566.186 502.89 565.778 503.141ZM583.253 488.221L583.306 501.695C583.491 501.356 583.543 500.964 583.567 500.509L583.526 489.359C583.533 488.949 583.433 488.549 583.253 488.221ZM564.367 487.224C564.367 487.224 564.412 487.242 564.518 487.233L582.232 487.148C581.893 486.963 581.474 486.849 581.064 486.843L564.597 486.903C564.49 486.912 564.49 486.912 564.428 486.939C564.348 487.011 564.33 487.055 564.33 487.055C564.34 487.162 564.385 487.18 564.367 487.224Z" fill="white"/>
<path d="M650.972 516.391C650.985 517.272 650.66 517.969 650.004 518.587C649.348 519.205 648.619 519.485 647.738 519.498L631.422 519.566C630.905 519.569 630.646 519.312 630.643 518.795C630.64 518.279 630.897 518.019 631.476 517.99L649.234 517.923L649.196 507.289C649.173 506.301 648.839 505.447 648.078 504.632C647.361 503.834 646.424 503.465 645.346 503.453L636.049 503.502C635.594 503.478 635.379 503.238 635.377 502.722C635.391 502.161 635.604 501.883 636.12 501.881L645.507 501.867C646.585 501.879 647.518 501.473 648.244 500.677C648.97 499.88 649.349 499.05 649.326 498.062L649.307 487.642L631.245 487.692C630.729 487.695 630.469 487.438 630.439 486.859C630.437 486.343 630.694 486.083 631.272 486.053L647.695 485.976C648.576 485.962 649.273 486.288 649.908 486.899C650.499 487.493 650.824 488.239 650.82 489.166L650.874 497.795C650.888 498.677 650.74 499.444 650.459 500.158C650.178 500.872 649.541 501.703 648.521 502.59C649.542 503.663 650.206 504.594 650.548 505.296C650.89 505.998 651.037 506.674 651.031 507.342L650.972 516.391Z" fill="white"/>
<path d="M647.794 520.139L631.479 520.207C630.597 520.221 630.051 519.645 630.037 518.763C630.024 517.882 630.617 517.291 631.544 517.295L648.679 517.24L648.635 507.274C648.649 506.455 648.306 505.753 647.706 505.053C647.088 504.397 646.329 504.098 645.465 504.067L636.078 504.081C635.41 504.076 634.732 503.705 634.744 502.627C634.729 501.487 635.448 501.101 636.116 501.106L645.503 501.092C646.429 501.096 647.176 500.772 647.742 500.119C648.354 499.483 648.635 498.769 648.648 497.95L648.624 488.198L631.23 488.254C630.349 488.267 629.758 487.673 629.762 486.747C629.748 485.866 630.342 485.275 631.268 485.279L647.691 485.201C648.724 485.196 649.616 485.547 650.35 486.3C651.085 487.054 651.463 487.924 651.451 489.002L651.506 497.632C651.502 498.558 651.346 499.476 651.047 500.235C650.784 500.904 650.226 501.664 649.438 502.488C650.254 503.427 650.819 504.217 651.116 504.901C651.468 505.71 651.686 506.466 651.663 507.178L651.693 516.262C651.698 517.296 651.284 518.215 650.531 518.949C649.743 519.773 648.827 520.134 647.794 520.139ZM631.383 518.881C631.383 518.881 631.427 518.898 631.489 518.871L647.805 518.803C648.215 518.81 648.615 518.71 648.944 518.53L631.55 518.586C631.444 518.596 631.399 518.578 631.381 518.623C631.381 518.623 631.364 518.667 631.391 518.729C631.356 518.819 631.338 518.863 631.383 518.881ZM636.054 502.834L645.441 502.82C646.732 502.814 647.786 503.28 648.663 504.193C649.496 505.088 649.956 506.145 649.971 507.285L650.025 517.616C650.273 517.25 650.386 516.83 650.366 516.359L650.336 507.274C650.333 506.758 650.214 506.144 649.899 505.504C649.584 504.865 648.992 504.013 647.998 503.003L647.523 502.507L648.02 502.032C648.959 501.217 649.561 500.474 649.807 499.85C650.053 499.225 650.183 498.503 650.179 497.728L650.125 489.098C650.114 488.733 650.058 488.35 649.923 488.039L649.967 498.005C649.982 499.145 649.515 500.198 648.692 501.111C647.824 502.006 646.766 502.466 645.475 502.473L636.088 502.487C636.043 502.469 636.043 502.469 636.026 502.514C636.026 502.514 635.991 502.603 636 502.71C636.027 502.772 636.009 502.817 636.054 502.834ZM631.117 486.972C631.117 486.972 631.161 486.989 631.224 486.962L648.92 486.923C648.536 486.72 648.161 486.624 647.707 486.599L631.284 486.677C631.178 486.686 631.133 486.669 631.115 486.713C631.115 486.713 631.098 486.758 631.125 486.82C631.09 486.909 631.072 486.954 631.117 486.972C631.099 487.016 631.099 487.016 631.117 486.972Z" fill="white"/>
<path d="M675.671 518.594C675.674 519.111 675.417 519.371 674.9 519.373C674.429 519.394 674.169 519.137 674.184 518.576L674.134 507.319L660.142 507.374L660.078 486.73C660.059 486.517 660.192 486.311 660.369 486.123C660.591 485.953 660.777 485.872 661.036 485.87C661.232 485.896 661.41 485.966 661.553 486.126C661.697 486.285 661.76 486.517 661.789 486.837L661.87 505.735L674.16 505.68L674.099 490.655C674.097 490.139 674.353 489.879 674.825 489.859C675.021 489.885 675.2 489.955 675.361 490.07C675.504 490.229 675.63 490.434 675.604 490.63L675.665 505.654C676.289 505.642 676.788 505.684 677.135 505.717C677.483 505.751 677.706 505.839 677.822 505.936C677.939 506.034 678.01 506.114 678.02 506.22C678.029 506.327 678.012 506.372 678.039 506.434C678.049 506.799 677.962 507.022 677.775 507.103C677.571 507.229 677.25 507.258 676.823 507.295L675.683 507.31L675.671 518.594Z" fill="white"/>
<path d="M674.878 520.086C673.996 520.099 673.494 519.541 673.481 518.659L673.47 508.088L659.479 508.143L659.42 486.831C659.436 486.529 659.505 486.092 659.966 485.706C660.285 485.42 660.641 485.302 661.051 485.309C661.309 485.308 661.683 485.404 662.059 485.758C662.301 486.059 662.464 486.433 662.439 486.887L662.526 505.117L673.525 505.068L673.459 490.712C673.445 489.83 673.976 489.266 674.858 489.253C675.223 489.242 675.535 489.365 675.84 489.64C676.144 489.914 676.306 490.287 676.299 490.697L676.366 505.053C676.731 505.042 677.016 505.103 677.257 505.147C677.694 505.216 678.006 505.339 678.256 505.489C678.668 505.754 678.741 506.092 678.759 506.305L678.778 506.519C678.8 507.249 678.463 507.58 678.179 507.778C677.895 507.975 677.451 508.058 676.889 508.043L676.418 508.063L676.429 518.635C676.353 519.481 675.759 520.072 674.878 520.086ZM674.844 518.732C674.888 518.75 674.995 518.74 675.013 518.696C675.013 518.696 675.03 518.651 675.003 518.589L674.941 506.708L676.749 506.699C677.069 506.671 677.221 506.679 677.328 506.669C677.328 506.669 677.345 506.625 677.318 506.562C677.273 506.545 677.14 506.492 676.988 506.484C676.703 506.423 676.248 506.399 675.625 506.411L674.957 506.406L674.901 490.713C674.919 490.669 674.919 490.669 674.874 490.651C674.758 490.554 674.74 490.598 674.74 490.598C674.74 490.598 674.723 490.643 674.75 490.705L674.806 506.397L661.18 506.442L661.103 486.876C661.094 486.769 661.084 486.662 661.057 486.6C661.013 486.583 660.968 486.565 660.826 486.664C660.764 486.691 660.746 486.735 660.746 486.735L660.816 506.711L674.807 506.656L674.87 518.536C674.817 518.67 674.799 518.715 674.844 518.732Z" fill="white"/>
<path d="M706.83 516.176C706.844 517.058 706.518 517.754 705.906 518.39C705.313 518.981 704.566 519.305 703.702 519.274L692.962 519.322C692.036 519.318 691.18 519.135 690.501 518.765L687.055 517.305C686.743 517.181 686.528 516.942 686.535 516.532C686.532 516.016 686.744 515.739 687.216 515.718C687.475 515.717 687.832 515.858 688.216 516.06L691.081 517.292C691.884 517.609 692.499 517.748 692.971 517.728L705.199 517.699L705.15 503.298L691.159 503.354L691.111 485.809L705.877 485.749C706.091 485.73 706.296 485.863 706.44 486.022C706.583 486.182 706.647 486.413 706.683 486.582C706.675 486.734 706.605 486.912 706.534 487.09C706.402 487.296 706.215 487.377 705.912 487.361L692.696 487.413L692.736 501.707L703.628 501.667C704.402 501.663 705.161 501.962 705.779 502.618C706.415 503.229 706.739 503.975 706.753 504.857L706.83 516.176Z" fill="white"/>
<path d="M703.742 519.96L693.001 520.008C691.968 520.013 691.023 519.795 690.21 519.372L686.809 517.93C686.256 517.763 685.906 517.213 685.911 516.545C685.924 515.467 686.598 515.063 687.266 515.068C687.631 515.057 688.095 515.189 688.596 515.489L691.416 516.703C692.264 517.037 692.763 517.079 693.021 517.078L704.581 517.043L704.521 503.978L690.53 504.034L690.449 485.136L705.883 485.081C706.292 485.088 706.694 485.246 706.963 485.61C707.205 485.912 707.323 486.267 707.351 486.588C707.353 486.846 707.274 487.176 707.062 487.453C706.929 487.659 706.62 488.052 705.89 488.074L693.341 488.131L693.392 501.089L703.615 501.044C704.586 501.066 705.479 501.417 706.213 502.171C706.992 502.941 707.371 503.812 707.376 504.845L707.391 516.191C707.397 517.225 707.045 518.117 706.292 518.851C705.646 519.576 704.775 519.955 703.742 519.96ZM687.211 516.387C687.193 516.431 687.193 516.431 687.203 516.538C687.212 516.645 687.239 516.707 687.239 516.707L687.329 516.742L690.774 518.203C691.453 518.573 692.175 518.703 692.994 518.716L703.735 518.669C704.145 518.676 704.5 518.558 704.856 518.44L693.038 518.476C692.521 518.478 691.817 518.304 690.951 518.015L688.041 516.765C687.496 516.448 687.3 516.422 687.211 516.387ZM705.839 503.776L705.874 517.295C706.059 516.955 706.093 516.608 706.1 516.198L706.085 504.852C706.091 504.442 706.018 504.104 705.839 503.776ZM691.832 502.691L704.746 502.624C704.407 502.438 704.032 502.342 703.622 502.336L692.062 502.37L692.016 486.784L705.9 486.738C705.945 486.755 705.963 486.711 705.963 486.711C705.998 486.622 706.015 486.577 706.015 486.577C706.015 486.577 705.988 486.515 705.917 486.435L691.729 486.465L691.832 502.691Z" fill="white"/>
<path d="M737.301 518.386C737.275 518.582 737.205 518.76 737.045 518.904C736.868 519.092 736.681 519.173 736.53 519.165L717.952 519.218C717.391 519.203 717.087 518.929 717.101 518.367L716.987 486.466C717.013 486.27 717.083 486.092 717.198 485.931C717.358 485.788 717.562 485.662 717.865 485.678L720.127 485.693C720.43 485.709 720.635 485.842 720.788 486.108C720.941 486.374 721.004 486.605 720.979 486.802C720.971 486.953 720.873 487.069 720.669 487.195C720.465 487.321 719.975 487.386 719.218 487.345L718.595 487.357L718.664 505.632L736.512 505.601C736.663 505.609 736.842 505.679 736.985 505.839C737.173 506.016 737.237 506.247 737.221 506.55L737.301 518.386ZM735.702 517.602L735.666 507.226L718.637 507.271L718.674 517.647L735.702 517.602Z" fill="white"/>
<path d="M736.524 519.833L717.947 519.886C717.02 519.882 716.429 519.288 716.433 518.362L716.319 486.461C716.308 486.096 716.431 485.783 716.706 485.479C716.9 485.247 717.247 485.022 717.87 485.01L720.132 485.025C720.693 485.04 721.104 485.305 721.383 485.775C721.545 486.148 721.636 486.442 721.664 486.762C721.683 486.976 721.552 487.44 721.019 487.745C720.815 487.871 720.415 487.971 719.32 488.004L719.382 504.987L736.517 504.933C736.838 504.904 737.177 505.09 737.481 505.364C737.714 505.559 737.921 505.95 737.951 506.528L737.969 518.391C737.97 518.649 737.874 519.024 737.52 519.4C737.165 519.776 736.783 519.831 736.524 519.833ZM717.788 518.586C717.788 518.586 717.833 518.604 717.94 518.594L736.518 518.541C736.518 518.541 736.518 518.541 736.597 518.47C736.615 518.425 736.677 518.398 736.677 518.398L736.642 506.58C736.632 506.473 736.623 506.366 736.578 506.348C736.534 506.331 736.551 506.286 736.506 506.269L718.08 506.33L718.021 486.719L719.313 486.712C719.936 486.7 720.257 486.672 720.363 486.662C720.336 486.6 720.309 486.538 720.282 486.476L717.975 486.443C717.869 486.453 717.806 486.48 717.806 486.48C717.789 486.524 717.727 486.551 717.771 486.569L717.886 518.47C717.761 518.524 717.788 518.586 717.788 518.586ZM736.365 518.275L717.983 518.354L717.957 506.642L736.339 506.563L736.365 518.275ZM719.347 516.984L735.04 516.928L734.992 507.889L719.3 507.944L719.347 516.984Z" fill="white"/>
<path d="M197.049 552.639L193.593 542.308L194.368 542.304L196.214 547.825C196.711 549.31 197.128 550.608 197.445 551.764L197.49 551.782C197.796 550.613 198.278 549.257 198.796 547.812L200.78 542.253L201.555 542.248L197.797 552.573L197.049 552.639Z" fill="white"/>
<path d="M206.24 552.6L206.145 551.531L206.101 551.514C205.721 552.086 204.941 552.758 203.756 552.755C202.269 552.736 201.595 551.698 201.555 550.754C201.555 549.053 203.037 548.039 206.029 548.032L206.01 547.818C205.988 547.088 205.838 545.637 204.12 545.682C203.496 545.694 202.82 545.84 202.252 546.235L201.991 545.72C202.639 545.253 203.484 545.071 204.152 545.076C206.263 545.083 206.681 546.639 206.67 547.975L206.667 550.861C206.653 551.422 206.709 552.063 206.801 552.614L206.24 552.6ZM206.086 548.673C204.509 548.619 202.4 548.87 202.365 550.661C202.37 551.694 203.058 552.171 203.833 552.167C205.062 552.187 205.744 551.373 206.007 550.704C206.06 550.57 206.086 550.374 206.076 550.267L206.086 548.673Z" fill="white"/>
<path d="M209.131 541.728L209.861 541.706L209.901 552.598L209.17 552.62L209.131 541.728Z" fill="white"/>
<path d="M213.368 543.14C213.379 543.505 213.167 543.782 212.757 543.775C212.437 543.804 212.195 543.502 212.184 543.137C212.173 542.772 212.43 542.513 212.795 542.502C213.116 542.473 213.358 542.775 213.368 543.14ZM212.438 552.568L212.391 545.229L213.121 545.207L213.169 552.546L212.438 552.568Z" fill="white"/>
<path d="M221.466 541.689L221.505 550.88C221.508 551.397 221.547 552.082 221.55 552.599L220.882 552.594L220.821 551.178L220.776 551.16C220.398 551.991 219.538 552.734 218.157 552.706C216.349 552.715 214.988 551.2 214.967 549.027C214.945 546.595 216.442 545.02 218.25 545.011C219.542 545.004 220.311 545.668 220.626 546.307L220.671 546.325L220.646 541.676L221.466 541.689ZM220.742 548.106C220.723 547.892 220.722 547.634 220.641 547.447C220.36 546.46 219.492 545.654 218.307 545.651C216.713 545.642 215.696 547.046 215.715 548.96C215.733 550.617 216.578 552.135 218.279 552.135C219.312 552.13 220.306 551.439 220.629 550.226C220.699 550.047 220.725 549.851 220.706 549.638L220.742 548.106Z" fill="white"/>
<path d="M228.605 542.801L225.248 542.819L225.235 542.195L232.708 542.201L232.72 542.824L229.362 542.842L229.404 552.549L228.674 552.571L228.605 542.801Z" fill="white"/>
<path d="M233.711 541.617L234.441 541.595L234.44 546.44L234.485 546.458C234.705 546.029 235.059 545.653 235.468 545.401C235.876 545.15 236.401 544.996 236.935 544.948C237.647 544.971 239.484 545.282 239.489 548.017L239.495 552.452L238.764 552.473L238.724 548.127C238.734 546.791 238.176 545.592 236.671 545.618C235.638 545.623 234.778 546.367 234.471 547.277C234.383 547.5 234.357 547.696 234.386 548.017L234.418 552.514L233.688 552.536L233.711 541.617Z" fill="white"/>
<path d="M241.926 547.326C241.904 546.596 241.9 545.822 241.861 545.136L242.529 545.141L242.555 546.646L242.599 546.664C242.924 545.709 243.677 544.975 244.692 545.014C244.799 545.005 244.888 545.04 244.995 545.03L244.972 545.743C244.883 545.708 244.776 545.717 244.625 545.709C243.592 545.715 242.893 546.573 242.676 547.777C242.651 547.973 242.607 548.214 242.609 548.472L242.603 552.542L241.873 552.564L241.926 547.326Z" fill="white"/>
<path d="M252.105 550.667C252.1 551.335 252.13 551.913 252.177 552.447L251.509 552.442L251.457 551.133L251.413 551.116C251.042 551.794 250.209 552.6 248.873 552.589C247.947 552.585 246.377 552.122 246.372 549.388L246.358 545.104L247.088 545.082L247.11 549.214C247.101 550.809 247.615 551.99 249.075 551.947C250.153 551.959 250.923 551.18 251.222 550.422C251.31 550.199 251.371 549.913 251.387 549.61L251.39 545.024L252.12 545.002L252.105 550.667Z" fill="white"/>
<path d="M197.257 561.794L195.597 562.738L195.416 562.151L197.298 561.037L197.966 561.042L198.01 571.008L197.297 570.985L197.257 561.794Z" fill="white"/>
<path d="M201.884 570.987L201.863 570.515L202.794 569.593C205.567 566.871 206.735 565.475 206.753 563.729C206.738 562.59 206.251 561.47 204.595 561.487C203.668 561.483 202.914 561.959 202.497 562.362L202.219 561.892C202.857 561.319 203.745 560.895 204.779 560.89C206.845 560.879 207.565 562.452 207.563 563.636C207.564 565.595 206.174 567.161 203.658 569.624L202.949 570.376L202.932 570.42L207.839 570.394L207.851 571.018L201.884 570.987Z" fill="white"/>
<path d="M208.459 571.567L213.308 560.436L214.038 560.414L209.145 571.528L208.459 571.567Z" fill="white"/>
<path d="M214.735 570.946L214.715 570.474L215.645 569.552C218.418 566.83 219.587 565.434 219.604 563.689C219.589 562.549 219.102 561.429 217.446 561.447C216.52 561.443 215.765 561.919 215.349 562.322L215.07 561.851C215.708 561.278 216.597 560.854 217.63 560.849C219.696 560.838 220.417 562.411 220.414 563.595C220.416 565.555 219.025 567.12 216.509 569.583L215.801 570.335L215.783 570.379L220.69 570.353L220.702 570.977L214.735 570.946Z" fill="white"/>
<path d="M226.402 570.902L226.377 567.954L221.622 567.988L221.601 567.516L226.448 560.972L227.071 560.959L227.078 567.354L228.627 567.346L228.64 567.969L227.09 567.977L227.114 570.925L226.402 570.902ZM226.392 567.393L226.38 563.368C226.36 562.896 226.384 562.441 226.408 561.987L226.364 561.97C226.046 562.514 225.861 562.854 225.613 563.22L222.536 567.369L222.518 567.414L226.392 567.393Z" fill="white"/>
<path d="M537.131 607.27L535.688 607.269L525.315 587.41L525.372 606.762C525.383 607.127 525.206 607.315 524.859 607.281C524.538 607.31 524.368 607.088 524.357 606.723L524.293 586.079L525.736 586.08L536.11 606.198L536.034 586.632C536.042 586.48 536.095 586.346 536.192 586.23C536.29 586.114 536.414 586.06 536.565 586.068C536.672 586.058 536.744 586.138 536.86 586.236C536.976 586.333 537.013 586.502 537.049 586.671L537.131 607.27Z" fill="white"/>
<path d="M555.707 606.7C555.716 606.807 555.663 606.941 555.628 607.03C555.531 607.146 555.469 607.173 555.362 607.183C555.059 607.166 554.898 607.051 554.807 606.758L553.412 602.188L545.316 602.195C544.921 603.328 544.615 604.238 544.458 604.898C544.256 605.54 544.107 606.048 544.011 606.423C543.933 606.753 543.845 606.976 543.748 607.092C543.713 607.182 543.588 607.236 543.526 607.263C543.206 607.291 543.035 607.069 543.024 606.704L543.023 606.446L548.876 586.483C548.892 586.18 549.097 586.055 549.462 586.044C549.72 586.042 549.854 586.095 549.89 586.264L555.75 606.459L555.707 606.7ZM553.103 601.138L549.377 588.485L545.614 601.178L553.103 601.138Z" fill="white"/>
<path d="M574.409 606.593C574.418 606.7 574.365 606.834 574.268 606.95C574.171 607.066 574.046 607.121 573.939 607.13C573.788 607.122 573.654 607.069 573.6 606.945C573.501 606.803 573.447 606.678 573.438 606.572L573.367 586.337L568.486 592.971L568.518 594.067C568.528 594.173 568.475 594.307 568.378 594.424C568.28 594.54 568.156 594.594 568.049 594.603C567.897 594.595 567.808 594.56 567.692 594.463C567.576 594.365 567.522 594.241 567.53 594.09L567.524 593.056L562.572 586.26L562.635 606.646C562.645 606.753 562.592 606.887 562.494 607.003C562.397 607.119 562.273 607.174 562.121 607.165C561.756 607.176 561.568 606.999 561.602 606.652L561.538 586.008L563.649 586.014L568.008 591.958L572.368 585.995L574.372 586.011L574.409 606.593Z" fill="white"/>
<path d="M593.225 606.067C593.376 606.075 593.51 606.128 593.582 606.207C593.698 606.305 593.752 606.429 593.744 606.581C593.753 606.687 593.718 606.777 593.576 606.875C593.479 606.992 593.354 607.046 593.203 607.038L580.913 607.093L580.846 585.933L593.136 585.877C593.243 585.868 593.315 585.947 593.476 586.062C593.592 586.16 593.691 586.302 593.682 586.453C593.692 586.56 593.612 586.632 593.497 586.793C593.355 586.891 593.231 586.945 593.124 586.955L581.867 587.005L581.887 595.982L587.311 595.954C587.418 595.944 587.507 595.98 587.606 596.122C587.722 596.219 587.776 596.343 587.768 596.495C587.76 596.646 587.707 596.78 587.628 596.852C587.53 596.968 587.406 597.022 587.299 597.032L581.875 597.06L581.923 606.1L593.225 606.067Z" fill="white"/>
<path d="M621.724 605.952C622.65 605.956 623.128 605.526 623.115 604.644C623.131 604.342 622.951 604.013 622.682 603.649L611.806 589.777C611.465 589.334 611.267 588.792 611.281 588.23C611.252 587.652 611.48 587.072 611.932 586.579C612.383 586.087 612.943 585.844 613.629 585.804L621.27 585.773C621.591 585.745 621.948 585.885 622.305 586.026C622.644 586.211 622.966 586.441 623.225 586.698C623.485 586.955 623.71 587.301 623.916 587.692C624.079 588.065 624.196 588.421 624.19 588.83C624.191 589.089 624.094 589.205 623.862 589.269C623.631 589.332 623.507 589.386 623.444 589.413C623.175 589.049 623.013 588.676 622.878 588.365C622.743 588.054 622.652 587.761 622.526 587.557C622.401 587.353 622.213 587.175 622.007 587.043C621.802 586.91 621.454 586.877 621 586.852L613.768 586.89C613.207 586.875 612.851 586.993 612.639 587.27C612.444 587.503 612.321 587.815 612.315 588.225C612.306 588.376 612.343 588.545 612.424 588.732C612.505 588.919 612.631 589.123 612.774 589.282L623.623 603.092C624.009 603.553 624.208 604.095 624.193 604.657C624.176 604.959 624.116 605.245 623.993 605.557C623.825 605.852 623.675 606.102 623.498 606.29C623.303 606.523 623.081 606.693 622.832 606.801C622.584 606.909 622.352 606.973 622.139 606.992L614.284 607.042C613.874 607.035 613.437 606.966 613.098 606.781C612.759 606.596 612.437 606.366 612.177 606.109C611.935 605.808 611.693 605.506 611.575 605.15C611.458 604.795 611.367 604.501 611.339 604.181C611.345 603.771 611.54 603.539 611.905 603.528C612.012 603.518 612.146 603.571 612.2 603.695C612.316 603.793 612.326 603.9 612.353 603.962C612.338 604.523 612.554 605.021 612.957 605.437C613.36 605.854 613.851 606.047 614.474 606.035L621.724 605.952Z" fill="white"/>
<path d="M643.228 603.443C643.248 603.915 643.117 604.379 642.958 604.78C642.783 605.227 642.508 605.531 642.216 605.88C641.897 606.166 641.533 606.436 641.142 606.642C640.752 606.849 640.307 606.932 639.853 606.908L633.868 606.921C633.396 606.941 632.932 606.81 632.53 606.652C632.084 606.476 631.78 606.202 631.431 605.91C631.144 605.591 630.875 605.227 630.668 604.836C630.479 604.401 630.397 603.956 630.421 603.502L630.366 586.366C630.374 586.215 630.427 586.081 630.525 585.965C630.622 585.849 630.746 585.794 630.898 585.803C631.201 585.819 631.344 585.978 631.355 586.343L631.409 603.479C631.404 604.147 631.692 604.724 632.184 605.176C632.676 605.627 633.256 605.856 633.88 605.843L639.865 605.83C640.488 605.818 641.048 605.574 641.527 605.144C642.023 604.67 642.278 604.152 642.284 603.484L642.202 586.286C642.228 586.09 642.236 585.939 642.378 585.84C642.475 585.724 642.582 585.714 642.689 585.705C642.796 585.695 642.867 585.775 642.984 585.873C643.1 585.97 643.136 586.139 643.173 586.308L643.228 603.443Z" fill="white"/>
<path d="M662.353 605.925C662.479 606.13 662.533 606.254 662.542 606.361C662.552 606.468 662.499 606.601 662.402 606.718C662.305 606.834 662.18 606.888 661.984 606.862C661.77 606.881 661.609 606.766 661.546 606.535L654.365 594.274L650.75 594.293L650.786 606.369C650.796 606.476 650.743 606.61 650.646 606.726C650.548 606.842 650.424 606.897 650.273 606.888C649.908 606.899 649.72 606.722 649.753 606.375L649.689 585.731L659.076 585.717C659.531 585.741 659.967 585.81 660.351 586.013C660.798 586.189 661.102 586.463 661.451 586.755C661.737 587.074 662.007 587.438 662.196 587.874C662.385 588.309 662.485 588.709 662.506 589.181L662.523 590.838C662.543 591.309 662.412 591.773 662.254 592.175C662.096 592.576 661.848 592.943 661.512 593.274C661.193 593.561 660.829 593.83 660.438 594.037C660.003 594.226 659.602 594.326 659.086 594.329L655.577 594.339L662.353 605.925ZM659.053 593.234C659.356 593.25 659.65 593.159 659.961 593.024C660.272 592.889 660.494 592.718 660.733 592.503C660.972 592.288 661.122 592.038 661.29 591.744C661.458 591.449 661.518 591.163 661.508 590.798L661.508 589.097C661.513 588.429 661.225 587.852 660.733 587.4C660.241 586.949 659.66 586.72 659.037 586.732L650.683 586.741L650.7 593.242L659.053 593.234Z" fill="white"/>
<path d="M681.657 606.777L680.214 606.776L669.841 586.916L669.898 606.269C669.909 606.634 669.732 606.822 669.384 606.788C669.064 606.816 668.894 606.595 668.883 606.23L668.819 585.586L670.261 585.587L680.636 605.705L680.56 586.138C680.568 585.987 680.621 585.853 680.718 585.737C680.815 585.62 680.94 585.566 681.091 585.574C681.198 585.565 681.27 585.645 681.386 585.742C681.502 585.84 681.539 586.009 681.575 586.178L681.657 606.777Z" fill="white"/>
<path d="M700.232 606.207C700.242 606.314 700.189 606.448 700.154 606.537C700.056 606.653 699.994 606.68 699.887 606.69C699.585 606.674 699.424 606.559 699.333 606.265L697.937 601.695L689.842 601.702C689.447 602.835 689.14 603.745 688.983 604.405C688.782 605.047 688.633 605.556 688.537 605.93C688.459 606.26 688.371 606.483 688.273 606.6C688.238 606.689 688.114 606.743 688.052 606.77C687.731 606.798 687.561 606.577 687.55 606.212L687.549 605.953L693.402 585.991C693.418 585.688 693.622 585.562 693.987 585.551C694.246 585.55 694.379 585.602 694.416 585.771L700.276 605.966L700.232 606.207ZM697.585 600.628L693.858 587.974L690.095 600.667L697.585 600.628Z" fill="white"/>
<path d="M718.872 606.127C718.882 606.233 718.829 606.367 718.732 606.484C718.634 606.6 718.51 606.654 718.403 606.664C718.252 606.655 718.118 606.603 718.064 606.478C717.965 606.336 717.911 606.212 717.901 606.105L717.831 585.871L712.949 592.505L712.982 593.6C712.991 593.707 712.939 593.841 712.841 593.957C712.744 594.073 712.619 594.127 712.513 594.137C712.361 594.129 712.272 594.094 712.156 593.996C712.039 593.899 711.985 593.775 711.993 593.623L711.988 592.59L707.036 585.794L707.099 606.18C707.108 606.287 707.055 606.42 706.958 606.537C706.861 606.653 706.736 606.707 706.585 606.699C706.22 606.71 706.032 606.533 706.066 606.185L706.002 585.541L708.112 585.548L712.472 591.492L716.831 585.529L718.835 585.545L718.872 606.127Z" fill="white"/>
<path d="M737.706 605.556C737.857 605.564 737.991 605.617 738.063 605.696C738.179 605.794 738.233 605.918 738.225 606.07C738.234 606.176 738.199 606.266 738.057 606.364C737.96 606.481 737.836 606.535 737.684 606.527L725.394 606.582L725.327 585.422L737.617 585.366C737.724 585.357 737.796 585.436 737.957 585.551C738.073 585.649 738.172 585.791 738.164 585.942C738.173 586.049 738.093 586.121 737.978 586.282C737.836 586.38 737.712 586.434 737.605 586.444L726.348 586.494L726.369 595.471L731.792 595.443C731.899 595.433 731.988 595.468 732.087 595.61C732.203 595.708 732.258 595.832 732.249 595.984C732.241 596.135 732.189 596.269 732.109 596.341C732.011 596.457 731.887 596.511 731.78 596.521L726.357 596.549L726.404 605.589L737.706 605.556Z" fill="white"/>
<path d="M720.298 257.561C720.339 255.103 720.72 253.088 721.504 251.49C722.288 249.892 723.369 248.719 724.745 247.973C726.122 247.226 727.768 246.844 729.665 246.869L741.991 246.983L741.916 252.932L730.061 252.799C729.028 252.804 728.263 252.915 727.703 253.158C727.143 253.402 726.736 253.912 726.472 254.581C726.253 255.268 726.107 256.293 726.096 257.629C726.086 258.965 726.198 259.988 726.433 260.7C726.669 261.411 727.054 261.872 727.616 262.145C728.179 262.418 728.963 262.521 729.979 262.56L741.833 262.694L741.758 268.643L729.431 268.53C727.534 268.504 725.947 268.085 724.544 267.327C723.16 266.524 722.129 265.345 721.382 263.71C720.589 262.057 720.258 260.02 720.298 257.561Z" fill="white"/>
<path d="M720.414 276.112L720.489 270.162L736.459 270.319L736.372 275.903L731.438 275.867L731.28 276.269L720.414 276.112ZM720.284 288.742L720.36 282.792L728.42 282.874C729.543 282.904 730.316 282.642 730.705 282.176C731.112 281.667 731.357 280.784 731.35 279.492C731.344 278.201 731.179 277.311 730.793 276.85C730.408 276.389 729.703 276.215 728.688 276.175L728.72 275.57L731.586 275.1L731.591 276.133C732.465 276.271 733.33 276.561 734.08 277.011C734.876 277.479 735.494 278.135 735.961 279.04C736.429 279.946 736.702 281.085 736.657 282.51C736.655 283.953 736.35 285.121 735.829 286.05C735.309 286.979 734.573 287.669 733.667 288.137C732.761 288.605 731.702 288.806 730.58 288.776L720.284 288.742Z" fill="white"/>
<path d="M720.174 296.482L720.249 290.532L736.219 290.689L736.143 296.638L720.174 296.482ZM737.586 296.64L737.661 290.69L741.456 290.741L741.38 296.691L737.586 296.64Z" fill="white"/>
<path d="M720.013 311.676L720.072 304.328L736.103 297.395L736.022 304.013L725.836 307.887L725.829 308.297L735.95 312.439L735.904 318.967L720.013 311.676Z" fill="white"/>
<path d="M719.505 328.538C719.54 326.748 719.808 325.152 720.353 323.769C720.898 322.385 721.836 321.312 723.061 320.557C724.286 319.803 725.887 319.402 727.891 319.418C729.637 319.436 731.073 319.847 732.306 320.642C733.539 321.437 734.454 322.519 735.111 323.86C735.75 325.246 736.061 326.812 736.044 328.558C736.036 330.41 735.723 331.988 735.089 333.336C734.455 334.685 733.579 335.731 732.416 336.459C731.253 337.186 729.777 337.532 728.076 337.532C727.817 337.534 727.559 337.535 727.318 337.492C727.122 337.466 726.819 337.45 726.534 337.389L726.682 323.272L729.702 323.328L729.602 333.134L727.743 331.834C727.939 331.86 728.108 331.823 728.304 331.849C728.455 331.857 728.669 331.838 728.865 331.864C729.836 331.886 730.503 331.633 730.91 331.123C731.299 330.658 731.499 329.757 731.51 328.421C731.521 327.085 731.329 326.133 730.899 325.655C730.469 325.176 729.737 324.939 728.615 324.91L727.083 324.873C725.96 324.843 725.187 325.106 724.798 325.571C724.408 326.036 724.19 326.981 724.18 328.317C724.177 329.502 724.27 330.312 724.46 330.747C724.667 331.138 725.033 331.385 725.505 331.365L725.87 331.354L725.794 337.304L725.429 337.315C724.245 337.312 723.201 336.952 722.315 336.191C721.412 335.475 720.738 334.436 720.215 333.147C719.736 331.876 719.515 330.346 719.505 328.538Z" fill="white"/>
<path d="M719.689 344.951L719.765 339.002L735.734 339.158L735.648 344.743L731.079 344.696L730.921 345.097L719.689 344.951ZM729.192 345.035L729.222 343.913L731.484 343.928L731.49 344.961C732.363 345.099 733.167 345.415 733.828 345.83C734.489 346.245 735.035 346.821 735.404 347.585C735.791 348.305 735.956 349.194 735.944 350.272C735.941 351.456 735.679 352.384 735.184 353.117C734.689 353.85 734.024 354.361 733.233 354.668C732.397 354.957 731.445 355.149 730.368 355.137L727.179 355.118L727.237 349.213L729.09 349.221C729.758 349.227 730.22 349.1 730.495 348.796C730.769 348.491 730.918 347.983 730.914 347.208C730.927 346.389 730.773 345.864 730.531 345.562C730.307 345.216 729.843 345.085 729.192 345.035Z" fill="white"/>
<path d="M719.153 364.895C719.183 362.072 719.706 359.958 720.758 358.465C721.792 357.017 723.276 356.261 725.066 356.296L725.173 356.287L725.097 362.237L724.794 362.22C724.34 362.196 724.056 362.394 723.96 362.768C723.864 363.143 723.796 363.838 723.784 364.915C723.79 365.948 723.846 366.589 723.937 366.883C724.045 367.132 724.233 367.309 724.491 367.307C724.75 367.306 724.936 367.225 725.024 367.002C725.112 366.779 725.199 366.297 725.328 365.575L725.865 360.941C726.044 359.31 726.536 358.061 727.297 357.175C728.103 356.307 729.143 355.892 730.479 355.903C731.405 355.907 732.27 356.196 733.093 356.726C733.852 357.283 734.489 358.153 734.986 359.379C735.437 360.588 735.686 362.181 735.67 364.185C735.662 366.037 735.412 367.588 734.964 368.855C734.517 370.122 733.845 371.043 732.975 371.68C732.106 372.317 731.012 372.608 729.676 372.597L729.569 372.607L729.645 366.657L729.841 366.683C730.099 366.681 730.33 366.618 730.517 366.536C730.721 366.411 730.827 366.143 730.923 365.768C731.019 365.394 731.051 364.788 731.064 363.969C731.086 362.998 731.012 362.401 730.859 362.135C730.751 361.886 730.483 361.781 730.225 361.782C730.011 361.801 729.869 361.9 729.719 362.15C729.569 362.4 729.447 362.971 729.336 363.906L728.97 367.061C728.679 369.369 728.153 370.966 727.392 371.852C726.586 372.72 725.529 373.18 724.193 373.169C723.222 373.148 722.312 372.841 721.542 372.177C720.773 371.513 720.154 370.599 719.764 369.363C719.357 368.172 719.118 366.686 719.153 364.895Z" fill="white"/>
<defs>
<radialGradient id="paint0_radial_394_5138" cx="0" cy="0" r="1" gradientUnits="userSpaceOnUse" gradientTransform="translate(895.652 199.15) rotate(10.6488) scale(813 813)">
<stop stop-color="#80FFFF"/>
<stop offset="0.0779373" stop-color="#80F5F6"/>
<stop offset="0.7102" stop-color="#80A5AF"/>
<stop offset="1" stop-color="#808593"/>
</radialGradient>
<radialGradient id="paint1_radial_394_5138" cx="0" cy="0" r="1" gradientUnits="userSpaceOnUse" gradientTransform="translate(814.084 185.464) rotate(-0.196084) scale(643.89 643.89)">
<stop stop-color="#00FFFF"/>
<stop offset="0.00788385" stop-color="#00FDFD"/>
<stop offset="0.5056" stop-color="#007D8B"/>
<stop offset="0.8455" stop-color="#002C42"/>
<stop offset="1" stop-color="#000C26"/>
</radialGradient>
<linearGradient id="paint2_linear_394_5138" x1="300.297" y1="448.213" x2="205.03" y2="382.776" gradientUnits="userSpaceOnUse">
<stop stop-color="#DCC080"/>
<stop offset="1" stop-color="#EDDDB8"/>
</linearGradient>
</defs>
</svg>
