<svg width="932" height="854" viewBox="0 0 932 854" fill="none" xmlns="http://www.w3.org/2000/svg">
<path d="M773.374 634.844L159.647 636.638C146.021 636.676 134.952 625.658 134.914 612.032L133.879 243.245C133.841 229.619 144.859 218.55 158.485 218.512L772.168 216.7C785.794 216.662 796.863 227.68 796.901 241.306L797.98 610.111C798.018 623.737 787 634.806 773.374 634.844Z" fill="white"/>
<path d="M159.68 636.29C146.25 636.354 135.342 625.451 135.279 612.021L134.199 243.216C134.136 229.786 145.039 218.878 158.469 218.814L772.196 217.021C785.626 216.957 796.534 227.86 796.598 241.29L797.677 610.094C797.741 623.524 786.838 634.433 773.408 634.496L159.68 636.29Z" fill="url(#paint0_radial_394_6188)"/>
<path d="M159.697 635.987C146.48 636.032 135.671 625.271 135.626 612.055L134.547 243.25C134.502 230.034 145.263 219.224 158.479 219.179L772.207 217.385C785.423 217.34 796.233 228.101 796.278 241.318L797.312 610.105C797.357 623.321 786.596 634.131 773.38 634.175L159.697 635.987Z" fill="url(#paint1_linear_394_6188)"/>
<path d="M291.82 450.07L213.358 450.308C206.385 450.341 200.721 444.704 200.732 437.748L200.577 391.749C200.544 384.776 206.181 379.111 213.137 379.123L291.598 378.885C298.572 378.852 304.236 384.489 304.224 391.445L304.38 437.444C304.413 444.418 298.793 450.037 291.82 450.07Z" fill="url(#paint2_linear_394_6188)"/>
<path d="M291.089 378.478L213.723 378.684C206.233 378.72 200.141 384.36 200.165 391.226L200.28 438.241C200.286 445.152 206.44 450.724 213.913 450.734L291.279 450.527C298.769 450.492 304.86 444.852 304.837 437.986L304.721 390.971C304.688 383.998 298.579 378.443 291.089 378.478ZM303.812 390.922L303.852 401.146L267.043 401.267L266.911 401.472C264.488 405.26 263.227 409.764 263.241 414.564C263.228 419.302 264.505 423.776 266.901 427.505C264.39 439.095 258.806 446.584 252.625 446.569C246.427 446.599 240.816 439.126 238.205 427.579C240.566 423.818 241.809 419.359 241.778 414.603C241.791 409.865 240.514 405.391 238.118 401.662C240.628 390.072 246.213 382.583 252.394 382.598C255.644 382.591 258.798 384.661 261.533 388.575L262.332 388.117C259.57 384.14 256.3 381.974 252.879 381.758L252.886 379.389L291.092 379.253C298.093 379.282 303.764 384.51 303.812 390.922ZM267.673 426.985C265.394 423.353 264.18 419.11 264.167 414.568C264.155 410.026 265.328 405.746 267.591 402.102L303.82 402.01L303.902 426.893L267.673 426.985ZM237.428 427.066L201.199 427.157L201.116 402.274L237.346 402.182C239.625 405.814 240.839 410.057 240.851 414.599C240.846 419.185 239.673 423.466 237.428 427.066ZM213.691 379.548L251.898 379.412L251.891 381.781C245.462 382.132 239.754 389.676 237.226 401.31L201.086 401.437L201.046 391.213C201.043 384.818 206.735 379.537 213.691 379.548ZM201.207 438.245L201.167 428.021L237.307 427.894C239.901 439.487 245.663 446.967 252.112 447.346L252.106 449.716L213.899 449.852C206.926 449.885 201.255 444.657 201.207 438.245ZM291.266 449.646L253.059 449.782L253.066 447.413C259.494 447.062 265.203 439.518 267.731 427.884L303.871 427.757L303.91 437.981C303.959 444.393 298.284 449.63 291.266 449.646Z" fill="black"/>
<path d="M252.431 384.984C251.701 385.006 251.125 385.552 251.119 386.22C251.114 386.887 251.722 387.437 252.452 387.415C253.182 387.394 253.758 386.848 253.764 386.18C253.77 385.512 253.162 384.963 252.431 384.984Z" fill="black"/>
<path d="M633.133 278.214C633.113 277.742 633.306 277.251 633.616 276.858C634.351 275.91 635.695 275.77 636.643 276.505C642.802 281.41 651.552 284.192 660.636 284.166C669.72 284.141 678.426 281.286 684.557 276.331C685.479 275.561 686.852 275.742 687.577 276.647C688.348 277.569 688.167 278.942 687.262 279.667C680.306 285.276 670.827 288.393 660.648 288.45C650.486 288.463 641.004 285.444 633.987 279.84C633.415 279.459 633.145 278.837 633.133 278.214Z" fill="white"/>
<path d="M639.227 269.43C639.207 268.958 639.401 268.467 639.711 268.074C640.446 267.126 641.79 266.986 642.737 267.721C647.323 271.386 653.835 273.439 660.594 273.425C667.354 273.411 673.863 271.287 678.406 267.614C679.328 266.844 680.701 267.025 681.426 267.929C682.196 268.852 682.016 270.224 681.111 270.95C675.743 275.277 668.443 277.708 660.606 277.709C652.768 277.711 645.499 275.358 640.081 271.055C639.509 270.675 639.239 270.053 639.227 269.43Z" fill="white"/>
<path d="M645.322 260.647C645.302 260.175 645.496 259.684 645.805 259.291C646.54 258.343 647.884 258.203 648.832 258.938C651.818 261.302 656.117 262.688 660.552 262.685C664.987 262.682 669.256 261.273 672.255 258.898C673.177 258.128 674.55 258.308 675.275 259.213C676.046 260.136 675.865 261.508 674.96 262.234C671.181 265.28 666.077 266.979 660.564 266.969C655.095 266.977 649.975 265.318 646.158 262.317C645.604 261.892 645.334 261.27 645.322 260.647Z" fill="white"/>
<path d="M651.417 251.864C651.397 251.392 651.591 250.901 651.9 250.508C652.635 249.56 653.979 249.42 654.927 250.155C656.339 251.279 658.4 251.937 660.528 251.901C662.656 251.864 664.711 251.231 666.139 250.093C667.062 249.323 668.434 249.503 669.16 250.408C669.93 251.331 669.75 252.703 668.845 253.429C666.653 255.194 663.746 256.16 660.584 256.202C657.44 256.199 654.515 255.251 652.315 253.507C651.699 253.109 651.429 252.487 651.417 251.864Z" fill="white"/>
<path d="M214.588 519.984C214.59 520.5 214.333 520.76 213.754 520.789L195.114 520.86C194.598 520.862 194.338 520.605 194.309 520.026C194.289 519.554 194.546 519.295 195.107 519.31L203.675 519.287L203.567 488.98L195.106 488.994C194.545 488.979 194.241 488.704 194.256 488.143C194.253 487.626 194.573 487.34 195.134 487.355L205.189 487.352L205.269 519.298L212.955 519.288L212.92 508.138C212.945 507.942 213.016 507.763 213.176 507.62C213.335 507.477 213.522 507.396 213.718 507.421C213.914 507.447 214.092 507.518 214.236 507.677C214.424 507.854 214.505 508.041 214.461 508.282L214.588 519.984Z" fill="white"/>
<path d="M213.722 521.396L195.082 521.466C194.2 521.479 193.609 520.885 193.614 519.959C193.601 519.077 194.16 518.576 195.041 518.563L202.941 518.534L202.928 489.554L195.135 489.573C194.209 489.569 193.619 488.975 193.623 488.048C193.61 487.167 194.204 486.576 195.175 486.598L205.915 486.556L205.995 518.502L212.345 518.481L212.322 507.954C212.321 507.696 212.417 507.321 212.772 506.945C213.073 506.704 213.384 506.569 213.749 506.558C214.008 506.557 214.382 506.653 214.758 507.007C215.062 507.282 215.224 507.655 215.217 508.065L215.229 519.928C215.224 520.854 214.648 521.4 213.722 521.396ZM194.986 520.139C194.986 520.139 195.031 520.157 195.093 520.13L213.716 520.104C213.822 520.095 213.867 520.112 213.885 520.068C213.885 520.068 213.902 520.023 213.875 519.961L213.864 508.098C213.881 508.053 213.837 508.036 213.81 507.974C213.783 507.911 213.738 507.894 213.738 507.894C213.738 507.894 213.676 507.921 213.658 507.965L213.67 519.828L204.693 519.844L204.612 487.898L195.226 487.907C195.074 487.899 195.012 487.926 195.012 487.926C195.012 487.926 194.994 487.971 195.021 488.033C195.031 488.14 195.058 488.202 195.058 488.202C195.058 488.202 195.102 488.22 195.209 488.21L204.338 488.202L204.434 519.845L195.199 519.862C195.154 519.845 195.092 519.872 195.092 519.872L195.074 519.916C194.959 520.077 195.004 520.095 194.986 520.139Z" fill="white"/>
<path d="M243.662 519.081C243.813 519.089 243.992 519.16 244.135 519.319C244.278 519.479 244.404 519.683 244.405 519.942C244.425 520.413 244.168 520.673 243.652 520.675L224.085 520.741L224.035 506.234C224.021 505.352 224.365 504.611 224.959 504.021C225.571 503.385 226.317 503.061 227.181 503.093L242.767 503.054L242.717 488.805L224.656 488.846C224.095 488.831 223.79 488.556 223.806 487.995C223.814 487.844 223.884 487.665 224.061 487.477C224.239 487.289 224.425 487.208 224.684 487.207L241.151 487.156C242.032 487.143 242.729 487.469 243.364 488.081C243.954 488.674 244.279 489.421 244.292 490.303L244.327 501.453C244.34 502.335 244.023 503.138 243.429 503.728C242.817 504.363 242.089 504.643 241.251 504.674L225.666 504.712L225.708 519.113L243.662 519.081Z" fill="white"/>
<path d="M243.646 521.343L223.412 521.403L223.366 506.228C223.362 505.195 223.731 504.258 224.485 503.524C225.238 502.79 226.127 502.367 227.205 502.38L242.122 502.336L242.105 489.44L224.712 489.487C223.786 489.482 223.195 488.888 223.2 487.962C223.216 487.659 223.339 487.347 223.632 486.998C223.924 486.65 224.342 486.505 224.769 486.467L241.236 486.416C242.269 486.411 243.206 486.781 243.94 487.534C244.674 488.288 245.034 489.203 245.039 490.237L245.074 501.387C245.062 502.465 244.692 503.401 243.983 504.153C243.274 504.904 242.341 505.31 241.308 505.314L226.39 505.358L226.443 518.423L243.73 518.386C244.033 518.402 244.345 518.526 244.649 518.8C244.882 518.995 245.106 519.341 245.135 519.92C245.059 520.767 244.483 521.313 243.646 521.343ZM224.714 520.061L243.657 520.007C243.702 520.025 243.702 520.025 243.72 519.98L243.737 519.936C243.728 519.829 243.728 519.829 243.683 519.811C243.639 519.794 243.594 519.776 243.612 519.731L225.034 519.775L224.999 504.964C224.796 505.348 224.7 505.723 224.675 506.177L224.714 520.061ZM225.868 504.069L241.195 504.033C241.667 504.012 242.112 503.93 242.476 503.661L227.148 503.698C226.677 503.718 226.276 503.818 225.868 504.069ZM243.396 489.176L243.442 502.65C243.627 502.311 243.679 501.919 243.703 501.465L243.668 490.314C243.631 489.887 243.513 489.531 243.396 489.176ZM224.51 488.17C224.51 488.17 224.555 488.187 224.661 488.178L242.375 488.103C242.036 487.917 241.617 487.804 241.207 487.797L224.74 487.848C224.633 487.857 224.633 487.857 224.571 487.884C224.491 487.956 224.473 488.001 224.473 488.001C224.483 488.107 224.465 488.152 224.51 488.17C224.465 488.152 224.465 488.152 224.51 488.17Z" fill="white"/>
<path d="M274.977 517.462C274.99 518.344 274.663 519.04 274.007 519.657C273.351 520.275 272.622 520.555 271.741 520.568L255.425 520.627C254.908 520.63 254.649 520.373 254.646 519.856C254.644 519.34 254.901 519.08 255.48 519.051L273.238 518.993L273.206 508.359C273.183 507.371 272.85 506.518 272.089 505.702C271.373 504.904 270.436 504.534 269.358 504.521L259.971 504.53C259.517 504.506 259.302 504.266 259.299 503.75C259.314 503.188 259.527 502.911 260.043 502.909L269.43 502.9C270.508 502.913 271.441 502.508 272.168 501.712C272.894 500.915 273.273 500.085 273.251 499.097L273.237 488.677L255.176 488.718C254.659 488.72 254.4 488.463 254.37 487.885C254.368 487.368 254.625 487.109 255.204 487.079L271.626 487.01C272.508 486.997 273.204 487.323 273.839 487.935C274.43 488.529 274.754 489.275 274.75 490.202L274.799 498.831C274.812 499.713 274.665 500.48 274.383 501.193C274.101 501.907 273.464 502.738 272.444 503.625C273.464 504.698 274.128 505.63 274.47 506.332C274.811 507.034 274.957 507.71 274.951 508.378L274.977 517.462Z" fill="white"/>
<path d="M271.735 521.236L255.419 521.296C254.538 521.309 253.992 520.733 253.979 519.851C253.966 518.969 254.56 518.379 255.486 518.383L272.621 518.338L272.583 508.372C272.597 507.553 272.255 506.851 271.655 506.15C271.037 505.494 270.279 505.195 269.415 505.163L260.028 505.172C259.36 505.166 258.681 504.795 258.694 503.718C258.68 502.578 259.399 502.191 260.067 502.197L269.454 502.188C270.38 502.193 271.127 501.869 271.694 501.216C272.305 500.581 272.587 499.867 272.601 499.047L272.581 489.295L255.188 489.342C254.306 489.355 253.716 488.761 253.72 487.835C253.707 486.953 254.301 486.363 255.227 486.367L271.65 486.298C272.683 486.293 273.575 486.645 274.309 487.399C275.043 488.153 275.421 489.024 275.408 490.101L275.458 498.731C275.454 499.657 275.298 500.575 274.998 501.334C274.734 502.003 274.177 502.763 273.388 503.586C274.203 504.526 274.768 505.316 275.065 506C275.416 506.809 275.634 507.565 275.61 508.278L275.635 517.362C275.64 518.395 275.226 519.314 274.473 520.048C273.684 520.871 272.813 521.249 271.735 521.236ZM255.324 519.969C255.324 519.969 255.369 519.987 255.431 519.96L271.747 519.901C272.156 519.907 272.557 519.808 272.885 519.628L255.492 519.675C255.385 519.684 255.341 519.667 255.323 519.711C255.323 519.711 255.305 519.756 255.332 519.818C255.297 519.907 255.342 519.925 255.324 519.969ZM260.004 503.925L269.391 503.916C270.682 503.91 271.735 504.377 272.613 505.29C273.445 506.186 273.904 507.244 273.919 508.384L273.968 518.714C274.215 518.348 274.329 517.929 274.309 517.457L274.284 508.373C274.281 507.856 274.163 507.242 273.848 506.603C273.533 505.963 272.941 505.111 271.948 504.1L271.474 503.604L271.97 503.129C272.91 502.314 273.512 501.572 273.759 500.948C274.005 500.323 274.135 499.601 274.132 498.826L274.082 490.197C274.071 489.831 274.016 489.449 273.881 489.138L273.919 499.103C273.933 500.243 273.466 501.296 272.643 502.209C271.774 503.104 270.716 503.563 269.425 503.569L260.038 503.578C259.993 503.56 259.993 503.56 259.976 503.605C259.976 503.605 259.941 503.694 259.95 503.801C260.022 503.881 260.022 503.881 260.004 503.925ZM255.075 488.06C255.075 488.06 255.12 488.078 255.182 488.051L272.878 488.02C272.494 487.817 272.12 487.721 271.665 487.696L255.243 487.765C255.136 487.775 255.091 487.757 255.074 487.802C255.074 487.802 255.056 487.846 255.083 487.909C255.048 487.998 255.075 488.06 255.075 488.06Z" fill="white"/>
<path d="M299.613 519.706C299.615 520.222 299.358 520.482 298.842 520.484C298.37 520.504 298.11 520.247 298.125 519.686L298.081 508.429L284.09 508.477L284.036 487.833C284.018 487.62 284.15 487.414 284.327 487.226C284.549 487.056 284.736 486.975 284.994 486.974C285.19 487 285.369 487.07 285.512 487.23C285.655 487.389 285.719 487.621 285.747 487.941L285.819 506.839L298.109 506.79L298.055 491.766C298.053 491.249 298.31 490.99 298.782 490.97C298.978 490.996 299.156 491.066 299.317 491.181C299.461 491.341 299.586 491.545 299.56 491.741L299.614 506.765C300.237 506.753 300.736 506.796 301.084 506.83C301.431 506.863 301.654 506.951 301.77 507.049C301.887 507.146 301.958 507.226 301.968 507.333C301.977 507.44 301.96 507.484 301.987 507.547C301.997 507.912 301.909 508.135 301.723 508.216C301.518 508.341 301.198 508.37 300.77 508.407L299.631 508.422L299.613 519.706Z" fill="white"/>
<path d="M298.836 521.152C297.954 521.165 297.453 520.606 297.44 519.725L297.434 509.153L283.443 509.202L283.395 487.89C283.412 487.587 283.481 487.15 283.942 486.765C284.262 486.479 284.617 486.361 285.027 486.368C285.285 486.367 285.66 486.463 286.035 486.817C286.277 487.119 286.439 487.492 286.415 487.947L286.492 506.177L297.491 506.134L297.432 491.778C297.419 490.896 297.951 490.332 298.832 490.319C299.197 490.309 299.51 490.432 299.814 490.706C300.118 490.981 300.28 491.354 300.273 491.764L300.332 506.12C300.697 506.11 300.982 506.171 301.223 506.214C301.66 506.283 301.972 506.407 302.222 506.557C302.633 506.822 302.706 507.16 302.725 507.374L302.744 507.587C302.765 508.318 302.428 508.649 302.144 508.846C301.86 509.043 301.415 509.126 300.854 509.11L300.382 509.13L300.388 519.702C300.294 520.593 299.762 521.157 298.836 521.152ZM298.785 519.843C298.83 519.861 298.937 519.851 298.954 519.807C298.954 519.807 298.972 519.762 298.945 519.7L298.888 507.819L300.696 507.811C301.017 507.783 301.168 507.791 301.275 507.781C301.275 507.781 301.293 507.737 301.266 507.675C301.221 507.657 301.087 507.604 300.936 507.596C300.65 507.535 300.196 507.51 299.573 507.522L298.905 507.517L298.902 491.842C298.919 491.797 298.919 491.797 298.875 491.78C298.759 491.682 298.741 491.727 298.741 491.727C298.741 491.727 298.723 491.771 298.75 491.834L298.798 507.526L285.127 507.546L285.061 487.98C285.052 487.873 285.042 487.766 285.015 487.704C284.971 487.686 284.926 487.669 284.784 487.767C284.722 487.794 284.704 487.839 284.704 487.839L284.763 507.815L298.755 507.767L298.811 519.647C298.758 519.781 298.803 519.799 298.785 519.843Z" fill="white"/>
<path d="M366.896 517.223C366.909 518.105 366.582 518.801 365.971 519.436C365.377 520.027 364.631 520.351 363.766 520.319L353.026 520.361C352.1 520.357 351.244 520.174 350.565 519.803L347.121 518.341C346.808 518.218 346.593 517.978 346.6 517.569C346.598 517.052 346.81 516.775 347.282 516.755C347.54 516.754 347.897 516.894 348.281 517.098L351.146 518.331C351.949 518.648 352.564 518.787 353.036 518.767L365.264 518.745L365.223 504.344L351.231 504.392L351.193 486.848L365.959 486.795C366.173 486.777 366.378 486.909 366.521 487.069C366.664 487.228 366.728 487.46 366.764 487.629C366.756 487.78 366.686 487.959 366.615 488.137C366.483 488.343 366.296 488.424 365.993 488.407L352.777 488.452L352.809 502.746L363.701 502.712C364.476 502.709 365.234 503.008 365.852 503.664C366.487 504.276 366.811 505.022 366.824 505.904L366.896 517.223Z" fill="white"/>
<path d="M363.805 521.005L353.065 521.047C352.032 521.052 351.087 520.834 350.274 520.41L346.874 518.966C346.321 518.799 345.971 518.249 345.977 517.581C345.99 516.503 346.665 516.099 347.333 516.105C347.698 516.094 348.161 516.225 348.662 516.526L351.482 517.742C352.329 518.076 352.828 518.118 353.087 518.117L364.646 518.089L364.593 505.024L350.62 505.028L350.548 486.129L365.982 486.083C366.392 486.09 366.793 486.248 367.062 486.612C367.304 486.914 367.422 487.27 367.45 487.59C367.451 487.848 367.373 488.178 367.16 488.455C367.028 488.661 366.718 489.054 365.987 489.075L353.439 489.126L353.483 502.084L363.707 502.045C364.677 502.067 365.57 502.419 366.304 503.172C367.082 503.943 367.46 504.814 367.465 505.847L367.474 517.194C367.479 518.227 367.127 519.119 366.374 519.853C365.772 520.595 364.856 520.956 363.805 521.005ZM347.321 517.441C347.303 517.485 347.303 517.485 347.313 517.592C347.322 517.699 347.349 517.761 347.349 517.761L347.439 517.796L350.883 519.258C351.562 519.629 352.284 519.759 353.103 519.773L363.844 519.731C364.254 519.738 364.609 519.621 364.965 519.503L353.147 519.533C352.63 519.535 351.926 519.36 351.06 519.071L348.151 517.82C347.579 517.439 347.383 517.414 347.321 517.441ZM365.928 504.777L366.001 518.314C366.187 517.975 366.221 517.627 366.228 517.217L366.218 505.871C366.181 505.444 366.108 505.106 365.928 504.777ZM351.967 503.703L364.881 503.642C364.542 503.457 364.167 503.36 363.757 503.354L352.197 503.382L352.159 487.796L366.044 487.757C366.088 487.775 366.106 487.73 366.106 487.73C366.141 487.641 366.159 487.596 366.159 487.596C366.159 487.596 366.132 487.534 366.06 487.454L351.917 487.494L351.967 503.703Z" fill="white"/>
<path d="M397.382 519.402C397.356 519.599 397.286 519.777 397.126 519.92C396.949 520.108 396.762 520.189 396.611 520.181L378.033 520.224C377.472 520.209 377.168 519.935 377.183 519.374L377.085 487.472C377.111 487.276 377.181 487.098 377.296 486.937C377.456 486.794 377.66 486.668 377.963 486.684L380.225 486.7C380.528 486.717 380.734 486.849 380.886 487.116C381.039 487.382 381.103 487.614 381.077 487.81C381.069 487.961 380.971 488.077 380.767 488.203C380.563 488.329 380.073 488.393 379.316 488.352L378.693 488.364L378.752 506.639L396.6 506.617C396.752 506.625 396.93 506.696 397.073 506.855C397.261 507.033 397.325 507.264 397.308 507.567L397.382 519.402ZM395.784 518.617L395.753 508.242L378.725 508.278L378.756 518.654L395.784 518.617Z" fill="white"/>
<path d="M396.588 520.894L378.01 520.938C377.084 520.933 376.493 520.339 376.498 519.413L376.4 487.512C376.389 487.147 376.512 486.834 376.787 486.53C376.982 486.298 377.328 486.073 377.952 486.062L380.214 486.078C380.775 486.093 381.186 486.358 381.464 486.829C381.626 487.202 381.717 487.495 381.745 487.816C381.764 488.03 381.632 488.493 381.099 488.799C380.895 488.924 380.495 489.024 379.4 489.056L379.453 506.04L396.633 506.012C396.954 505.984 397.293 506.169 397.597 506.444C397.829 506.638 398.036 507.029 398.066 507.608L398.077 519.471C398.078 519.729 397.982 520.104 397.628 520.479C397.246 520.793 396.846 520.893 396.588 520.894ZM377.87 519.593C377.87 519.593 377.915 519.611 378.021 519.602L396.599 519.558C396.599 519.558 396.599 519.558 396.679 519.486C396.697 519.442 396.759 519.415 396.759 519.415L396.73 507.597C396.72 507.49 396.711 507.383 396.666 507.365C396.622 507.348 396.639 507.303 396.595 507.286L378.168 507.337L378.12 487.726L379.411 487.72C380.034 487.708 380.355 487.68 380.462 487.671C380.435 487.608 380.408 487.546 380.381 487.484L378.074 487.45C377.967 487.46 377.905 487.487 377.905 487.487C377.887 487.531 377.825 487.558 377.87 487.576L377.967 519.477C377.843 519.531 377.87 519.593 377.87 519.593ZM396.447 519.292L378.065 519.361L378.045 507.649L396.427 507.58L396.447 519.292ZM379.412 518.036L395.105 517.989L395.062 508.949L379.369 508.997L379.412 518.036Z" fill="white"/>
<path d="M410.964 519.348C410.949 519.909 410.692 520.169 410.175 520.171C409.917 520.172 409.694 520.084 409.506 519.907C409.318 519.73 409.237 519.543 409.281 519.302L409.226 507.68C409.233 507.271 409.356 506.958 409.578 506.788L418.652 499.077L418.601 488.23L401.937 488.255C401.7 488.986 401.534 489.539 401.384 489.789C401.233 490.04 401.029 490.165 400.815 490.184C400.254 490.169 399.995 489.912 399.992 489.395L399.974 487.481C399.956 487.267 400.088 487.061 400.265 486.874C400.443 486.686 400.674 486.622 400.888 486.603L420.267 486.619L420.31 499.318C420.311 499.577 420.205 499.844 419.993 500.121L410.981 507.806L410.964 519.348Z" fill="white"/>
<path d="M410.214 520.857C409.805 520.85 409.403 520.691 409.099 520.417C408.795 520.142 408.633 519.769 408.64 519.359L408.585 507.737C408.573 507.113 408.766 506.623 409.148 506.309L417.983 498.813L417.954 488.954L402.475 488.983C402.309 489.536 402.15 489.937 402 490.187C401.647 490.821 401.14 490.931 400.881 490.932C399.955 490.927 399.347 490.378 399.396 489.469L399.378 487.555C399.385 487.145 399.543 486.743 399.863 486.457C400.182 486.17 400.538 486.053 400.903 486.042L420.923 486.001L420.96 499.369C420.953 499.779 420.777 500.225 420.467 500.618L420.387 500.69L411.597 508.203L411.614 519.398C411.645 520.235 411.096 520.844 410.214 520.857ZM401.454 487.652L419.257 487.612L419.286 499.43L410.034 507.329C409.955 507.401 409.946 507.552 409.938 507.704L409.993 519.326C409.976 519.37 410.02 519.388 410.047 519.45C410.092 519.468 410.119 519.53 410.226 519.521C410.27 519.538 410.333 519.511 410.333 519.511C410.333 519.511 410.35 519.467 410.341 519.36L410.311 507.542L419.501 499.67C419.581 499.598 419.633 499.464 419.624 499.357L419.576 487.325L400.909 487.334C400.864 487.316 400.802 487.343 400.722 487.415C400.642 487.486 400.642 487.486 400.687 487.504L400.705 489.419C400.687 489.463 400.714 489.526 400.714 489.526C400.714 489.526 400.759 489.543 400.821 489.516L400.839 489.472C400.892 489.338 401.077 488.998 401.34 488.071L401.454 487.652Z" fill="white"/>
<path d="M447.833 516.982C447.846 517.863 447.52 518.56 446.863 519.177C446.207 519.795 445.478 520.074 444.659 520.06L430.668 520.109C429.786 520.122 429.072 519.84 428.437 519.229C427.802 518.617 427.522 517.888 427.492 517.051L427.455 505.643C427.445 505.278 427.523 504.948 427.602 504.618C427.698 504.243 427.883 503.904 428.203 503.618C428.54 503.286 428.993 503.053 429.597 502.827C430.202 502.602 431.056 502.526 432.152 502.495L432.116 487.426C432.113 486.909 432.371 486.65 432.949 486.62L442.247 486.576C442.461 486.557 442.666 486.69 442.854 486.867C443.042 487.044 443.105 487.276 443.124 487.489L443.177 502.514C444.166 502.491 444.95 502.594 445.548 502.778C446.145 502.963 446.619 503.201 446.967 503.493C447.316 503.785 447.54 504.132 447.596 504.514C447.695 504.915 447.751 505.297 447.717 505.645L447.833 516.982ZM446.263 518.476L446.222 504.076L429.131 504.139L429.173 518.54L446.263 518.476ZM441.539 502.486L441.507 488.192L433.714 488.211L433.746 502.505L441.539 502.486Z" fill="white"/>
<path d="M444.698 520.747L430.707 520.795C429.674 520.8 428.737 520.43 427.985 519.721C427.234 519.012 426.828 518.079 426.824 517.046L426.787 505.638C426.794 505.228 426.846 504.836 426.96 504.417C427.091 503.953 427.374 503.497 427.746 503.077C428.163 502.674 428.696 502.369 429.407 502.134C429.949 501.936 430.652 501.852 431.507 501.777L431.466 487.376C431.452 486.494 432.046 485.904 432.973 485.908L442.27 485.864C442.68 485.871 443.082 486.029 443.368 486.349C443.655 486.668 443.772 487.024 443.783 487.389L443.842 501.745C444.599 501.786 445.232 501.881 445.74 502.03C446.427 502.249 446.989 502.523 447.41 502.895C447.875 503.285 448.153 503.755 448.262 504.262C448.345 504.707 448.427 505.152 448.42 505.562L448.429 516.908C448.434 517.941 448.02 518.861 447.266 519.594C446.557 520.346 445.686 520.724 444.698 520.747ZM429.577 519.215C429.916 519.401 430.308 519.452 430.718 519.459L444.709 519.411C445.119 519.418 445.457 519.345 445.786 519.165L429.577 519.215ZM428.438 504.33C428.34 504.446 428.287 504.58 428.235 504.713C428.174 504.999 428.113 505.284 428.096 505.587L428.133 516.995C428.108 517.45 428.208 517.85 428.432 518.196L428.438 504.33ZM446.891 504.34L446.956 518.028C447.141 517.689 447.22 517.359 447.227 516.95L447.218 505.603C447.234 505.3 447.161 504.962 447.088 504.624C446.972 504.527 446.945 504.465 446.891 504.34ZM429.802 517.86L445.601 517.803L445.548 504.738L429.794 504.813L429.802 517.86ZM429.592 503.496L445.542 503.447C445.497 503.429 445.453 503.412 445.364 503.377C444.811 503.21 444.116 503.142 443.189 503.138L442.521 503.132L442.474 487.439C442.491 487.395 442.464 487.333 442.393 487.253C442.321 487.173 442.321 487.173 442.304 487.218L433.006 487.262C432.899 487.271 432.854 487.253 432.837 487.298C432.837 487.298 432.819 487.343 432.846 487.405L432.876 503.142L432.208 503.136C431.175 503.141 430.41 503.251 429.823 503.432C429.778 503.415 429.716 503.442 429.592 503.496ZM442.201 503.16L433.072 503.168L433.034 487.582L442.163 487.575L442.201 503.16ZM434.375 501.826L440.832 501.795L440.788 488.837L434.332 488.867L434.375 501.826Z" fill="white"/>
<path d="M494.36 519.149C494.362 519.666 494.105 519.925 493.633 519.945L491.264 519.939C490.961 519.923 490.738 519.835 490.657 519.648C490.531 519.444 490.495 519.275 490.503 519.123C490.556 518.989 490.609 518.855 490.644 518.766C490.679 518.677 490.714 518.588 490.839 518.534C490.963 518.48 491.132 518.443 491.453 518.415C491.773 518.387 492.183 518.394 492.806 518.382L492.737 500L474.979 500.058C474.72 500.059 474.497 499.971 474.372 499.766C474.228 499.607 474.165 499.376 474.146 499.162L474.134 487.299C474.133 487.041 474.221 486.818 474.425 486.692C474.585 486.549 474.816 486.485 475.03 486.467L493.608 486.423C493.759 486.431 493.938 486.502 494.081 486.661C494.224 486.821 494.35 487.025 494.351 487.283L494.36 519.149ZM492.782 498.317L492.761 488.048L475.67 488.111L475.692 498.38L492.782 498.317Z" fill="white"/>
<path d="M493.627 520.613L491.258 520.607C490.528 520.628 490.188 520.184 490.062 519.98C489.882 519.651 489.819 519.42 489.835 519.117L489.843 518.966L489.896 518.832C489.949 518.698 489.984 518.609 489.984 518.609C490.045 518.324 490.24 518.091 490.524 517.894C490.711 517.813 491.004 517.722 491.414 517.729C491.628 517.71 491.841 517.692 492.144 517.708L492.081 500.617L474.946 500.663C474.474 500.683 474.09 500.48 473.821 500.116C473.579 499.815 473.462 499.459 473.451 499.094L473.439 487.231C473.419 486.759 473.622 486.375 473.986 486.106C474.288 485.864 474.644 485.747 475.009 485.736L493.587 485.693C493.89 485.709 494.202 485.832 494.506 486.107C494.738 486.302 494.963 486.648 494.992 487.227L495.072 519.173C494.996 520.019 494.464 520.583 493.627 520.613ZM491.163 519.28L491.208 519.298L493.577 519.304C493.621 519.322 493.621 519.322 493.639 519.277C493.639 519.277 493.656 519.233 493.629 519.17L493.567 487.18C493.558 487.073 493.558 487.073 493.513 487.056C493.441 486.976 493.441 486.976 493.441 486.976L474.953 487.055C474.908 487.037 474.846 487.064 474.766 487.136C474.766 487.136 474.748 487.18 474.731 487.225L474.742 499.088C474.725 499.132 474.752 499.194 474.824 499.274C474.824 499.274 474.868 499.292 474.913 499.309L493.339 499.258L493.397 518.976L492.729 518.97C492.15 518.999 491.696 518.975 491.42 519.021C491.313 519.03 491.206 519.039 491.144 519.066C491.127 519.111 491.127 519.111 491.109 519.156C491.136 519.218 491.181 519.235 491.163 519.28ZM493.445 498.99L475.018 499.042L475.008 487.437L493.434 487.386L493.445 498.99ZM476.321 497.7L492.12 497.643L492.087 488.71L476.288 488.767L476.321 497.7Z" fill="white"/>
<path d="M524.932 516.928C524.936 517.703 524.672 518.372 524.078 518.963C523.529 519.571 522.8 519.851 521.918 519.864L507.562 519.923C506.68 519.936 505.984 519.61 505.411 518.971C504.838 518.333 504.585 517.666 504.564 516.936L504.478 489.318C504.474 488.544 504.783 487.892 505.377 487.301C505.971 486.711 506.655 486.414 507.447 486.365L521.893 486.341C522.623 486.32 523.275 486.629 523.865 487.223C524.456 487.817 524.753 488.501 524.774 489.231L524.932 516.928ZM523.416 518.289L523.335 488.045L506.2 488.09L506.281 518.335L523.416 518.289Z" fill="white"/>
<path d="M521.913 520.532L507.618 520.564C506.585 520.569 505.666 520.155 504.977 519.419C504.288 518.683 503.954 517.83 503.958 516.903L503.872 489.286C503.877 488.36 504.211 487.512 504.965 486.778C505.674 486.027 506.545 485.649 507.515 485.671L521.961 485.647C522.843 485.634 523.673 486.013 524.424 486.722C525.158 487.475 525.509 488.284 525.549 489.228L525.618 516.89C525.614 517.816 525.279 518.664 524.588 519.371C523.879 520.122 523.008 520.5 521.913 520.532ZM506.533 519.002C506.828 519.17 507.203 519.266 507.612 519.273L521.969 519.214C522.378 519.221 522.734 519.103 523.045 518.968L506.533 519.002ZM505.462 488.263C505.276 488.603 505.135 488.959 505.146 489.325L505.232 516.942C505.225 517.352 505.343 517.707 505.567 518.054L505.462 488.263ZM523.969 488.398L524.064 517.823C524.169 517.556 524.248 517.226 524.264 516.923L524.196 489.261C524.168 488.941 524.122 488.665 523.969 488.398ZM506.91 517.655L522.754 517.616L522.661 488.707L506.818 488.747L506.91 517.655ZM506.312 487.413L523.038 487.361C522.672 487.113 522.315 486.972 521.95 486.983L507.504 487.007C507.077 487.044 506.676 487.144 506.312 487.413Z" fill="white"/>
<path d="M555.276 518.949C555.278 519.465 555.021 519.725 554.443 519.754L535.803 519.825C535.286 519.827 535.027 519.57 534.997 518.991C534.977 518.519 535.234 518.26 535.795 518.275L544.363 518.252L544.255 487.945L535.794 487.959C535.233 487.944 534.929 487.669 534.944 487.108C534.942 486.591 535.261 486.305 535.822 486.32L545.877 486.317L545.957 518.263L553.643 518.253L553.608 507.103C553.634 506.907 553.704 506.728 553.864 506.585C554.023 506.442 554.21 506.361 554.424 506.342C554.62 506.368 554.798 506.438 554.941 506.598C555.129 506.775 555.21 506.961 555.167 507.202L555.276 518.949Z" fill="white"/>
<path d="M554.437 520.422L535.797 520.493C534.915 520.506 534.325 519.912 534.329 518.986C534.316 518.104 534.875 517.603 535.756 517.59L543.656 517.561L543.581 488.608L535.788 488.627C534.862 488.623 534.272 488.029 534.276 487.102C534.263 486.221 534.857 485.63 535.828 485.652L546.568 485.61L546.648 517.556L552.998 517.535L552.975 507.008C552.974 506.75 553.07 506.375 553.425 505.999C553.726 505.758 554.037 505.622 554.402 505.612C554.661 505.611 555.035 505.707 555.411 506.061C555.715 506.336 555.877 506.709 555.87 507.119L555.882 518.982C555.94 519.881 555.363 520.427 554.437 520.422ZM535.719 519.122C535.719 519.122 535.764 519.139 535.826 519.112L554.466 519.042C554.573 519.032 554.618 519.05 554.635 519.005C554.635 519.005 554.653 518.961 554.626 518.899L554.614 507.036C554.632 506.991 554.587 506.974 554.56 506.911C554.533 506.849 554.488 506.832 554.488 506.832C554.488 506.832 554.426 506.859 554.409 506.903L554.42 518.766L545.443 518.782L545.363 486.836L535.976 486.845C535.825 486.837 535.762 486.864 535.762 486.864C535.762 486.864 535.745 486.908 535.772 486.971C535.781 487.077 535.808 487.14 535.808 487.14C535.808 487.14 535.853 487.157 535.96 487.148L545.088 487.14L545.185 518.783L535.949 518.8C535.905 518.783 535.842 518.81 535.842 518.81L535.825 518.854C535.692 519.06 535.719 519.122 535.719 519.122Z" fill="white"/>
<path d="M584.333 518.09C584.484 518.098 584.663 518.169 584.806 518.328C584.949 518.488 585.075 518.692 585.076 518.95C585.096 519.422 584.839 519.682 584.323 519.684L564.756 519.75L564.705 505.243C564.692 504.361 565.036 503.62 565.63 503.029C566.241 502.394 566.988 502.07 567.852 502.102L583.438 502.063L583.388 487.814L565.327 487.855C564.765 487.84 564.461 487.565 564.476 487.004C564.485 486.853 564.555 486.674 564.732 486.486C564.909 486.298 565.096 486.217 565.354 486.216L581.821 486.165C582.703 486.152 583.399 486.478 584.035 487.089C584.625 487.683 584.949 488.43 584.962 489.312L584.997 500.462C585.01 501.343 584.694 502.147 584.1 502.737C583.488 503.372 582.759 503.652 581.922 503.683L566.337 503.721L566.378 518.122L584.333 518.09Z" fill="white"/>
<path d="M584.379 520.326L564.145 520.386L564.099 505.21C564.095 504.177 564.464 503.24 565.218 502.506C565.971 501.772 566.86 501.349 567.938 501.362L582.855 501.318L582.838 488.422L565.445 488.469C564.519 488.465 563.928 487.871 563.933 486.944C563.949 486.642 564.072 486.329 564.365 485.981C564.657 485.632 565.075 485.487 565.502 485.45L581.969 485.398C583.002 485.393 583.939 485.763 584.673 486.517C585.407 487.27 585.767 488.186 585.772 489.219L585.807 500.369C585.795 501.447 585.425 502.384 584.716 503.135C584.007 503.887 583.074 504.292 582.041 504.297L567.123 504.341L567.176 517.406L584.463 517.368C584.766 517.385 585.078 517.508 585.382 517.783C585.615 517.977 585.839 518.324 585.868 518.902C585.775 519.793 585.198 520.339 584.379 520.326ZM565.447 519.044L584.39 518.99C584.435 519.007 584.435 519.007 584.453 518.963L584.47 518.918C584.461 518.811 584.461 518.811 584.416 518.793C584.372 518.776 584.327 518.758 584.345 518.714L565.767 518.757L565.732 503.947C565.529 504.33 565.433 504.705 565.408 505.159L565.447 519.044ZM566.583 503.096L581.91 503.059C582.382 503.039 582.827 502.957 583.191 502.688L567.864 502.725C567.41 502.701 566.992 502.845 566.583 503.096ZM584.066 488.185L584.112 501.66C584.298 501.32 584.349 500.928 584.374 500.474L584.339 489.324C584.346 488.914 584.246 488.514 584.066 488.185ZM565.181 487.179C565.181 487.179 565.225 487.197 565.332 487.187L583.046 487.112C582.707 486.927 582.288 486.813 581.878 486.806L565.411 486.857C565.304 486.867 565.304 486.867 565.242 486.894C565.162 486.965 565.144 487.01 565.144 487.01C565.154 487.117 565.198 487.134 565.181 487.179Z" fill="white"/>
<path d="M651.77 516.39C651.783 517.272 651.457 517.968 650.801 518.585C650.145 519.203 649.416 519.483 648.534 519.496L632.219 519.555C631.702 519.558 631.443 519.3 631.44 518.784C631.438 518.267 631.695 518.008 632.274 517.978L650.032 517.921L649.999 507.287C649.977 506.299 649.643 505.445 648.882 504.63C648.166 503.832 647.229 503.462 646.152 503.449L636.854 503.493C636.4 503.469 636.185 503.229 636.182 502.713C636.197 502.152 636.41 501.874 636.926 501.872L646.313 501.863C647.391 501.876 648.324 501.471 649.051 500.675C649.777 499.879 650.156 499.048 650.134 498.06L650.12 487.64L632.059 487.681C631.542 487.683 631.283 487.426 631.253 486.848C631.251 486.331 631.508 486.072 632.087 486.042L648.509 485.973C649.391 485.96 650.087 486.286 650.722 486.898C651.313 487.492 651.637 488.238 651.632 489.165L651.682 497.794C651.695 498.676 651.548 499.443 651.266 500.156C650.984 500.87 650.347 501.702 649.327 502.588C650.347 503.661 651.011 504.593 651.353 505.295C651.694 505.997 651.84 506.673 651.834 507.341L651.77 516.39Z" fill="white"/>
<path d="M648.591 520.137L632.275 520.196C631.394 520.209 630.848 519.633 630.834 518.752C630.821 517.87 631.415 517.279 632.342 517.284L649.477 517.238L649.438 507.273C649.452 506.453 649.111 505.751 648.511 505.05C647.893 504.394 647.134 504.095 646.27 504.064L636.883 504.072C636.215 504.067 635.537 503.696 635.55 502.618C635.535 501.478 636.255 501.092 636.923 501.098L646.31 501.089C647.236 501.093 647.983 500.769 648.549 500.116C649.161 499.481 649.443 498.767 649.457 497.948L649.437 488.196L632.044 488.242C631.162 488.256 630.571 487.662 630.576 486.735C630.563 485.854 631.157 485.263 632.083 485.268L648.506 485.199C649.539 485.194 650.431 485.546 651.165 486.299C651.899 487.053 652.277 487.924 652.264 489.002L652.314 497.631C652.309 498.558 652.153 499.476 651.854 500.234C651.59 500.903 651.033 501.663 650.244 502.486C651.059 503.426 651.624 504.216 651.921 504.901C652.272 505.709 652.489 506.465 652.466 507.178L652.491 516.262C652.496 517.295 652.082 518.214 651.328 518.948C650.54 519.771 649.624 520.132 648.591 520.137ZM632.18 518.87C632.18 518.87 632.225 518.887 632.287 518.86L648.602 518.801C649.012 518.808 649.412 518.708 649.741 518.528L632.348 518.575C632.241 518.585 632.196 518.567 632.179 518.612C632.179 518.612 632.161 518.656 632.188 518.718C632.153 518.808 632.135 518.852 632.18 518.87ZM636.86 502.826L646.247 502.817C647.538 502.811 648.591 503.278 649.468 504.191C650.301 505.086 650.76 506.144 650.774 507.284L650.823 517.615C651.071 517.249 651.185 516.829 651.165 516.357L651.139 507.273C651.137 506.757 651.018 506.143 650.704 505.503C650.389 504.863 649.797 504.011 648.804 503.001L648.329 502.504L648.826 502.03C649.766 501.215 650.368 500.473 650.614 499.848C650.861 499.224 650.991 498.502 650.987 497.727L650.938 489.097C650.927 488.732 650.872 488.349 650.737 488.038L650.775 498.004C650.789 499.144 650.322 500.197 649.498 501.109C648.63 502.004 647.572 502.463 646.281 502.469L636.894 502.478C636.849 502.461 636.849 502.461 636.831 502.505C636.831 502.505 636.796 502.594 636.806 502.701C636.833 502.763 636.815 502.808 636.86 502.826ZM631.931 486.961C631.931 486.961 631.975 486.978 632.038 486.951L649.734 486.921C649.35 486.718 648.975 486.621 648.521 486.597L632.099 486.666C631.992 486.675 631.947 486.658 631.93 486.702C631.93 486.702 631.912 486.747 631.939 486.809C631.904 486.898 631.886 486.943 631.931 486.961C631.913 487.005 631.913 487.005 631.931 486.961Z" fill="white"/>
<path d="M676.468 518.606C676.471 519.123 676.214 519.382 675.697 519.385C675.225 519.405 674.966 519.148 674.981 518.587L674.937 507.33L660.945 507.378L660.892 486.734C660.873 486.52 661.006 486.315 661.183 486.127C661.405 485.957 661.592 485.876 661.85 485.874C662.046 485.9 662.224 485.971 662.368 486.13C662.511 486.29 662.574 486.521 662.603 486.842L662.674 505.74L674.964 505.691L674.911 490.666C674.909 490.15 675.166 489.89 675.638 489.87C675.834 489.896 676.012 489.966 676.173 490.081C676.316 490.241 676.442 490.445 676.416 490.641L676.47 505.666C677.093 505.654 677.592 505.696 677.939 505.73C678.287 505.764 678.51 505.852 678.626 505.949C678.742 506.047 678.814 506.127 678.823 506.233C678.833 506.34 678.815 506.385 678.842 506.447C678.853 506.812 678.765 507.035 678.578 507.116C678.374 507.242 678.053 507.27 677.626 507.308L676.486 507.322L676.468 518.606Z" fill="white"/>
<path d="M675.674 520.098C674.792 520.111 674.291 519.552 674.278 518.67L674.272 508.099L660.281 508.147L660.234 486.835C660.25 486.532 660.319 486.096 660.781 485.711C661.1 485.424 661.455 485.307 661.865 485.314C662.123 485.312 662.498 485.409 662.874 485.763C663.116 486.065 663.278 486.438 663.253 486.892L663.331 505.123L674.329 505.08L674.27 490.723C674.257 489.842 674.789 489.278 675.671 489.265C676.036 489.254 676.348 489.377 676.652 489.652C676.956 489.927 677.118 490.3 677.111 490.71L677.17 505.066C677.535 505.055 677.821 505.116 678.061 505.16C678.498 505.229 678.81 505.352 679.061 505.502C679.471 505.768 679.544 506.106 679.563 506.319L679.582 506.533C679.603 507.263 679.266 507.594 678.982 507.792C678.698 507.989 678.253 508.071 677.692 508.056L677.22 508.076L677.226 518.648C677.15 519.494 676.556 520.085 675.674 520.098ZM675.641 518.744C675.686 518.762 675.792 518.752 675.81 518.708C675.81 518.708 675.828 518.663 675.801 518.601L675.744 506.72L677.552 506.712C677.873 506.684 678.024 506.692 678.131 506.682C678.131 506.682 678.149 506.638 678.122 506.576C678.077 506.558 677.943 506.505 677.792 506.497C677.506 506.436 677.052 506.411 676.429 506.423L675.761 506.418L675.713 490.725C675.731 490.681 675.731 490.681 675.686 490.663C675.57 490.566 675.552 490.61 675.552 490.61C675.552 490.61 675.535 490.655 675.562 490.717L675.609 506.409L661.983 506.447L661.917 486.881C661.908 486.774 661.898 486.667 661.871 486.605C661.827 486.587 661.782 486.57 661.64 486.668C661.578 486.695 661.56 486.74 661.56 486.74L661.619 506.716L675.61 506.668L675.667 518.548C675.614 518.682 675.596 518.727 675.641 518.744Z" fill="white"/>
<path d="M707.628 516.205C707.641 517.087 707.315 517.783 706.704 518.418C706.11 519.009 705.363 519.333 704.499 519.302L693.759 519.344C692.832 519.339 691.977 519.156 691.298 518.785L687.853 517.323C687.541 517.2 687.326 516.961 687.333 516.551C687.331 516.034 687.543 515.757 688.015 515.737C688.273 515.736 688.63 515.877 689.014 516.08L691.879 517.313C692.682 517.63 693.297 517.769 693.769 517.749L705.997 517.727L705.955 503.326L691.964 503.375L691.926 485.83L706.692 485.778C706.905 485.759 707.111 485.891 707.254 486.051C707.397 486.211 707.461 486.442 707.497 486.611C707.489 486.763 707.419 486.941 707.348 487.119C707.215 487.325 707.029 487.406 706.726 487.39L693.51 487.434L693.542 501.728L704.434 501.695C705.208 501.691 705.967 501.99 706.584 502.646C707.22 503.258 707.544 504.004 707.557 504.886L707.628 516.205Z" fill="white"/>
<path d="M704.538 519.987L693.798 520.029C692.765 520.034 691.819 519.816 691.007 519.392L687.607 517.948C687.054 517.781 686.704 517.231 686.71 516.563C686.722 515.485 687.397 515.081 688.065 515.087C688.43 515.076 688.894 515.208 689.394 515.508L692.214 516.724C693.062 517.058 693.561 517.1 693.819 517.099L705.379 517.071L705.326 504.006L691.335 504.055L691.263 485.156L706.697 485.11C707.107 485.117 707.509 485.275 707.778 485.639C708.019 485.941 708.137 486.297 708.165 486.617C708.166 486.875 708.088 487.205 707.875 487.482C707.743 487.688 707.433 488.081 706.703 488.102L694.154 488.153L694.198 501.111L704.422 501.071C705.393 501.094 706.285 501.446 707.019 502.199C707.797 502.97 708.176 503.841 708.18 504.874L708.19 516.221C708.194 517.254 707.842 518.146 707.089 518.88C706.442 519.604 705.571 519.983 704.538 519.987ZM688.009 516.405C687.992 516.45 687.992 516.45 688.001 516.557C688.01 516.664 688.038 516.726 688.038 516.726L688.127 516.761L691.571 518.223C692.25 518.594 692.972 518.724 693.791 518.738L704.532 518.696C704.942 518.703 705.297 518.586 705.653 518.468L693.835 518.497C693.318 518.5 692.614 518.325 691.749 518.035L688.839 516.784C688.295 516.466 688.099 516.441 688.009 516.405ZM706.643 503.804L706.672 517.323C706.857 516.984 706.891 516.637 706.898 516.227L706.889 504.88C706.896 504.471 706.823 504.133 706.643 503.804ZM692.638 502.713L705.551 502.651C705.212 502.466 704.838 502.37 704.428 502.363L692.868 502.391L692.83 486.805L706.714 486.766C706.759 486.784 706.776 486.739 706.776 486.739C706.812 486.65 706.829 486.606 706.829 486.606C706.829 486.606 706.802 486.543 706.731 486.463L692.543 486.486L692.638 502.713Z" fill="white"/>
<path d="M738.098 518.43C738.072 518.626 738.002 518.805 737.842 518.948C737.665 519.136 737.478 519.217 737.327 519.209L718.749 519.252C718.188 519.237 717.884 518.962 717.899 518.401L717.801 486.5C717.827 486.304 717.897 486.126 718.012 485.965C718.172 485.821 718.376 485.696 718.679 485.712L720.941 485.728C721.244 485.745 721.45 485.877 721.602 486.144C721.755 486.41 721.818 486.641 721.793 486.837C721.784 486.989 721.687 487.105 721.483 487.231C721.279 487.356 720.789 487.421 720.032 487.38L719.408 487.392L719.468 505.667L737.316 505.645C737.467 505.653 737.646 505.723 737.789 505.883C737.977 506.06 738.04 506.291 738.024 506.594L738.098 518.43ZM736.5 517.645L736.469 507.27L719.44 507.306L719.472 517.681L736.5 517.645Z" fill="white"/>
<path d="M737.321 519.877L718.743 519.921C717.817 519.916 717.226 519.322 717.231 518.396L717.133 486.495C717.123 486.13 717.246 485.817 717.52 485.513C717.715 485.281 718.061 485.056 718.685 485.045L720.947 485.061C721.508 485.076 721.919 485.341 722.197 485.812C722.36 486.185 722.45 486.478 722.478 486.799C722.497 487.013 722.366 487.476 721.833 487.782C721.629 487.907 721.228 488.007 720.133 488.039L720.187 505.023L737.322 504.977C737.642 504.949 737.982 505.134 738.286 505.409C738.518 505.604 738.725 505.995 738.754 506.574L738.766 518.436C738.767 518.695 738.671 519.069 738.317 519.445C737.962 519.821 737.579 519.876 737.321 519.877ZM718.586 518.621C718.586 518.621 718.63 518.639 718.737 518.629L737.315 518.586C737.315 518.586 737.315 518.586 737.395 518.514C737.412 518.47 737.475 518.442 737.475 518.442L737.445 506.624C737.436 506.517 737.426 506.411 737.382 506.393C737.337 506.375 737.355 506.331 737.31 506.313L718.884 506.365L718.835 486.754L720.127 486.748C720.75 486.736 721.071 486.708 721.177 486.698C721.15 486.636 721.123 486.574 721.096 486.512L718.79 486.478C718.683 486.487 718.621 486.514 718.621 486.514C718.603 486.559 718.541 486.586 718.585 486.604L718.683 518.505C718.559 518.559 718.586 518.621 718.586 518.621ZM737.162 518.319L718.781 518.389L718.761 506.677L737.142 506.608L737.162 518.319ZM720.146 517.019L735.838 516.972L735.795 507.932L720.103 507.98L720.146 517.019Z" fill="white"/>
<path d="M197.829 552.402L194.378 542.069L195.153 542.066L196.996 547.588C197.492 549.073 197.908 550.371 198.225 551.527L198.27 551.545C198.576 550.377 199.06 549.021 199.578 547.575L201.565 542.018L202.34 542.014L198.577 552.336L197.829 552.402Z" fill="white"/>
<path d="M207.02 552.367L206.926 551.299L206.881 551.281C206.501 551.853 205.72 552.525 204.536 552.522C203.048 552.502 202.375 551.463 202.335 550.519C202.336 548.818 203.819 547.805 206.811 547.799L206.792 547.586C206.771 546.856 206.622 545.405 204.903 545.448C204.279 545.46 203.603 545.606 203.035 546.001L202.774 545.485C203.422 545.019 204.268 544.837 204.936 544.843C207.046 544.85 207.463 546.407 207.452 547.743L207.448 550.629C207.433 551.19 207.489 551.831 207.581 552.382L207.02 552.367ZM206.867 548.44C205.291 548.386 203.181 548.636 203.145 550.426C203.15 551.459 203.838 551.937 204.613 551.933C205.842 551.954 206.524 551.141 206.788 550.471C206.841 550.338 206.867 550.142 206.857 550.035L206.867 548.44Z" fill="white"/>
<path d="M209.916 541.497L210.646 541.476L210.68 552.368L209.95 552.389L209.916 541.497Z" fill="white"/>
<path d="M214.153 542.911C214.164 543.276 213.951 543.553 213.542 543.546C213.221 543.574 212.979 543.273 212.969 542.907C212.958 542.542 213.215 542.283 213.58 542.272C213.901 542.244 214.142 542.546 214.153 542.911ZM213.218 552.338L213.174 544.999L213.905 544.978L213.948 552.317L213.218 552.338Z" fill="white"/>
<path d="M222.251 541.466L222.286 550.657C222.288 551.173 222.327 551.859 222.329 552.375L221.661 552.37L221.601 550.954L221.557 550.936C221.178 551.766 220.317 552.51 218.937 552.481C217.129 552.489 215.768 550.973 215.749 548.8C215.728 546.368 217.226 544.794 219.034 544.785C220.325 544.779 221.094 545.443 221.409 546.083L221.454 546.101L221.432 541.452L222.251 541.466ZM221.524 547.882C221.506 547.668 221.504 547.41 221.423 547.223C221.143 546.236 220.275 545.429 219.09 545.426C217.496 545.416 216.479 546.819 216.497 548.734C216.513 550.39 217.358 551.909 219.059 551.91C220.092 551.905 221.086 551.215 221.41 550.002C221.48 549.823 221.506 549.627 221.487 549.414L221.524 547.882Z" fill="white"/>
<path d="M229.39 542.58L226.032 542.596L226.02 541.973L233.493 541.982L233.505 542.605L230.147 542.621L230.184 552.329L229.454 552.35L229.39 542.58Z" fill="white"/>
<path d="M234.496 541.399L235.227 541.377L235.223 546.222L235.267 546.24C235.488 545.811 235.843 545.436 236.251 545.184C236.66 544.933 237.184 544.779 237.718 544.732C238.431 544.755 240.267 545.067 240.271 547.801L240.274 552.237L239.544 552.258L239.506 547.912C239.517 546.576 238.959 545.376 237.454 545.401C236.421 545.406 235.561 546.149 235.254 547.059C235.166 547.282 235.14 547.478 235.168 547.799L235.198 552.296L234.468 552.317L234.496 541.399Z" fill="white"/>
<path d="M242.708 547.113C242.687 546.383 242.683 545.608 242.644 544.922L243.312 544.928L243.337 546.433L243.382 546.451C243.707 545.496 244.461 544.762 245.476 544.802C245.583 544.793 245.672 544.828 245.779 544.818L245.756 545.531C245.666 545.496 245.559 545.505 245.408 545.497C244.375 545.502 243.675 546.36 243.458 547.564C243.433 547.76 243.389 548 243.391 548.259L243.383 552.329L242.653 552.35L242.708 547.113Z" fill="white"/>
<path d="M252.886 550.458C252.88 551.126 252.91 551.705 252.957 552.239L252.289 552.233L252.238 550.924L252.193 550.907C251.822 551.585 250.989 552.391 249.653 552.379C248.727 552.375 247.157 551.91 247.153 549.176L247.142 544.892L247.872 544.871L247.892 549.003C247.881 550.597 248.395 551.779 249.855 551.737C250.933 551.75 251.704 550.971 252.003 550.213C252.091 549.99 252.152 549.704 252.168 549.402L252.173 544.815L252.904 544.794L252.886 550.458Z" fill="white"/>
<path d="M198.033 561.556L196.372 562.499L196.191 561.912L198.074 560.799L198.742 560.805L198.78 570.771L198.067 570.747L198.033 561.556Z" fill="white"/>
<path d="M202.654 570.752L202.634 570.28L203.565 569.359C206.339 566.638 207.508 565.243 207.527 563.498C207.512 562.358 207.026 561.238 205.37 561.255C204.443 561.25 203.689 561.726 203.272 562.128L202.994 561.658C203.632 561.085 204.521 560.662 205.554 560.657C207.62 560.647 208.34 562.22 208.337 563.405C208.337 565.364 206.946 566.929 204.429 569.39L203.72 570.142L203.702 570.186L208.609 570.163L208.621 570.786L202.654 570.752Z" fill="white"/>
<path d="M209.229 571.336L214.084 560.207L214.814 560.185L209.915 571.297L209.229 571.336Z" fill="white"/>
<path d="M215.505 570.718L215.485 570.246L216.416 569.324C219.19 566.603 220.359 565.209 220.378 563.463C220.363 562.323 219.877 561.203 218.221 561.22C217.295 561.215 216.54 561.691 216.123 562.094L215.845 561.623C216.483 561.05 217.372 560.627 218.405 560.622C220.471 560.612 221.191 562.185 221.188 563.37C221.188 565.329 219.797 566.894 217.28 569.356L216.571 570.107L216.553 570.152L221.46 570.128L221.472 570.752L215.505 570.718Z" fill="white"/>
<path d="M227.172 570.681L227.149 567.733L222.393 567.764L222.373 567.292L227.223 560.75L227.846 560.738L227.85 567.133L229.399 567.126L229.411 567.749L227.862 567.756L227.885 570.704L227.172 570.681ZM227.164 567.172L227.154 563.146C227.134 562.674 227.159 562.22 227.183 561.766L227.139 561.748C226.821 562.293 226.635 562.632 226.387 562.998L223.308 567.146L223.29 567.19L227.164 567.172Z" fill="white"/>
<path d="M537.882 607.21L536.439 607.208L526.076 587.343L526.123 606.696C526.134 607.061 525.957 607.249 525.609 607.215C525.289 607.243 525.119 607.021 525.108 606.656L525.055 586.012L526.498 586.014L536.862 606.137L536.796 586.571C536.804 586.42 536.857 586.286 536.954 586.17C537.051 586.053 537.176 585.999 537.327 586.008C537.434 585.998 537.506 586.078 537.622 586.175C537.738 586.273 537.775 586.442 537.811 586.611L537.882 607.21Z" fill="white"/>
<path d="M556.458 606.651C556.467 606.758 556.414 606.892 556.379 606.981C556.282 607.097 556.219 607.124 556.113 607.134C555.81 607.117 555.649 607.002 555.558 606.709L554.165 602.138L546.07 602.14C545.674 603.273 545.367 604.183 545.21 604.843C545.008 605.485 544.859 605.993 544.763 606.368C544.684 606.698 544.596 606.921 544.499 607.037C544.463 607.126 544.339 607.18 544.277 607.207C543.956 607.236 543.786 607.014 543.775 606.649L543.774 606.39L549.638 586.431C549.654 586.128 549.858 586.002 550.224 585.992C550.482 585.99 550.616 586.043 550.652 586.212L556.501 606.41L556.458 606.651ZM553.857 601.088L550.137 588.432L546.368 601.124L553.857 601.088Z" fill="white"/>
<path d="M575.16 606.553C575.169 606.66 575.116 606.794 575.019 606.91C574.921 607.026 574.797 607.08 574.69 607.09C574.539 607.081 574.405 607.029 574.351 606.904C574.252 606.762 574.198 606.638 574.189 606.531L574.129 586.296L569.244 592.928L569.276 594.023C569.285 594.13 569.232 594.264 569.135 594.38C569.038 594.496 568.913 594.55 568.806 594.56C568.655 594.552 568.566 594.516 568.449 594.419C568.333 594.322 568.279 594.197 568.287 594.046L568.282 593.013L563.334 586.214L563.386 606.6C563.396 606.707 563.343 606.84 563.245 606.957C563.148 607.073 563.023 607.127 562.872 607.119C562.507 607.129 562.319 606.952 562.353 606.605L562.3 585.961L564.411 585.968L568.767 591.915L573.13 585.954L575.134 585.971L575.16 606.553Z" fill="white"/>
<path d="M593.976 606.037C594.127 606.045 594.261 606.098 594.333 606.178C594.449 606.275 594.503 606.399 594.495 606.551C594.504 606.658 594.469 606.747 594.327 606.846C594.23 606.962 594.105 607.016 593.954 607.008L581.664 607.057L581.608 585.896L593.898 585.847C594.005 585.838 594.077 585.917 594.237 586.032C594.354 586.13 594.452 586.272 594.444 586.423C594.454 586.53 594.374 586.602 594.259 586.763C594.117 586.861 593.992 586.915 593.885 586.925L582.628 586.969L582.644 595.946L588.068 595.921C588.175 595.911 588.264 595.947 588.363 596.089C588.479 596.186 588.533 596.31 588.525 596.462C588.516 596.613 588.464 596.747 588.384 596.819C588.286 596.935 588.162 596.989 588.055 596.998L582.631 597.024L582.674 606.064L593.976 606.037Z" fill="white"/>
<path d="M622.475 605.937C623.401 605.941 623.88 605.512 623.867 604.63C623.883 604.327 623.704 603.998 623.435 603.635L612.566 589.757C612.225 589.313 612.027 588.771 612.042 588.21C612.013 587.631 612.241 587.051 612.693 586.559C613.145 586.067 613.705 585.824 614.391 585.785L622.032 585.758C622.352 585.73 622.709 585.87 623.066 586.011C623.406 586.197 623.727 586.427 623.987 586.684C624.246 586.941 624.471 587.287 624.677 587.678C624.839 588.051 624.957 588.407 624.95 588.817C624.951 589.075 624.854 589.191 624.622 589.255C624.391 589.318 624.267 589.372 624.204 589.399C623.936 589.035 623.773 588.662 623.638 588.351C623.503 588.04 623.413 587.746 623.287 587.542C623.162 587.338 622.974 587.16 622.768 587.028C622.563 586.895 622.215 586.861 621.761 586.837L614.529 586.871C613.968 586.856 613.613 586.973 613.4 587.25C613.205 587.483 613.082 587.795 613.075 588.205C613.067 588.356 613.103 588.525 613.184 588.712C613.265 588.899 613.391 589.103 613.534 589.263L624.376 603.078C624.761 603.539 624.96 604.082 624.945 604.643C624.928 604.946 624.867 605.231 624.744 605.543C624.576 605.838 624.426 606.088 624.249 606.276C624.054 606.508 623.832 606.679 623.583 606.787C623.334 606.895 623.103 606.958 622.889 606.977L615.035 607.023C614.625 607.016 614.188 606.947 613.849 606.761C613.509 606.576 613.188 606.346 612.928 606.089C612.686 605.787 612.444 605.486 612.327 605.13C612.21 604.774 612.119 604.481 612.091 604.16C612.098 603.751 612.293 603.518 612.658 603.507C612.765 603.498 612.898 603.551 612.952 603.675C613.069 603.773 613.078 603.88 613.105 603.942C613.09 604.503 613.306 605.001 613.709 605.417C614.112 605.834 614.602 606.028 615.226 606.016L622.475 605.937Z" fill="white"/>
<path d="M643.98 603.439C644 603.911 643.869 604.375 643.71 604.777C643.534 605.223 643.26 605.527 642.968 605.876C642.648 606.162 642.284 606.431 641.894 606.638C641.503 606.844 641.058 606.927 640.603 606.902L634.619 606.913C634.147 606.933 633.683 606.801 633.281 606.643C632.835 606.467 632.531 606.192 632.182 605.9C631.896 605.581 631.627 605.217 631.42 604.826C631.231 604.39 631.149 603.945 631.174 603.491L631.128 586.356C631.136 586.205 631.189 586.071 631.286 585.955C631.384 585.838 631.508 585.784 631.66 585.792C631.963 585.809 632.106 585.968 632.116 586.334L632.162 603.469C632.156 604.137 632.444 604.714 632.936 605.166C633.428 605.618 634.008 605.847 634.631 605.835L640.616 605.824C641.239 605.812 641.799 605.569 642.278 605.14C642.775 604.665 643.031 604.147 643.036 603.479L642.964 586.282C642.99 586.086 642.998 585.935 643.14 585.836C643.237 585.72 643.344 585.71 643.451 585.701C643.558 585.692 643.629 585.771 643.746 585.869C643.862 585.966 643.898 586.135 643.935 586.304L643.98 603.439Z" fill="white"/>
<path d="M663.105 605.932C663.23 606.136 663.284 606.261 663.294 606.368C663.303 606.474 663.25 606.608 663.153 606.725C663.056 606.841 662.931 606.895 662.735 606.869C662.521 606.888 662.361 606.773 662.297 606.542L655.123 594.276L651.507 594.293L651.538 606.37C651.547 606.477 651.494 606.611 651.397 606.727C651.3 606.843 651.175 606.897 651.024 606.889C650.659 606.9 650.471 606.722 650.505 606.375L650.451 585.731L659.838 585.722C660.293 585.746 660.729 585.816 661.113 586.019C661.56 586.195 661.864 586.469 662.212 586.762C662.499 587.081 662.768 587.445 662.957 587.88C663.146 588.316 663.246 588.716 663.266 589.188L663.283 590.844C663.303 591.316 663.171 591.78 663.013 592.182C662.854 592.583 662.607 592.949 662.27 593.281C661.951 593.567 661.587 593.836 661.196 594.043C660.76 594.232 660.36 594.332 659.844 594.334L656.335 594.342L663.105 605.932ZM659.812 593.239C660.115 593.255 660.408 593.165 660.719 593.03C661.03 592.895 661.252 592.724 661.491 592.509C661.731 592.295 661.881 592.044 662.049 591.75C662.217 591.455 662.278 591.17 662.267 590.805L662.268 589.104C662.274 588.436 661.986 587.858 661.494 587.406C661.002 586.954 660.422 586.726 659.799 586.737L651.445 586.741L651.458 593.243L659.812 593.239Z" fill="white"/>
<path d="M682.408 606.793L680.965 606.791L670.603 586.926L670.65 606.279C670.66 606.644 670.483 606.832 670.136 606.798C669.815 606.826 669.645 606.604 669.634 606.239L669.581 585.595L671.024 585.597L681.388 605.721L681.322 586.154C681.33 586.003 681.383 585.869 681.48 585.753C681.578 585.636 681.702 585.582 681.853 585.591C681.96 585.581 682.032 585.661 682.148 585.758C682.264 585.856 682.301 586.025 682.337 586.194L682.408 606.793Z" fill="white"/>
<path d="M700.983 606.233C700.993 606.34 700.94 606.474 700.905 606.563C700.807 606.679 700.745 606.706 700.638 606.716C700.335 606.699 700.175 606.584 700.084 606.291L698.691 601.72L690.595 601.722C690.2 602.855 689.893 603.765 689.735 604.425C689.534 605.067 689.385 605.576 689.288 605.95C689.21 606.28 689.122 606.503 689.024 606.619C688.989 606.709 688.865 606.763 688.803 606.79C688.482 606.818 688.312 606.596 688.301 606.231L688.3 605.973L694.164 586.013C694.18 585.71 694.384 585.584 694.749 585.574C695.008 585.573 695.141 585.625 695.178 585.794L701.027 605.992L700.983 606.233ZM698.339 600.653L694.618 587.997L690.849 600.688L698.339 600.653Z" fill="white"/>
<path d="M719.623 606.162C719.633 606.269 719.58 606.403 719.483 606.519C719.385 606.635 719.261 606.689 719.154 606.699C719.003 606.691 718.869 606.638 718.815 606.513C718.716 606.371 718.662 606.247 718.653 606.14L718.592 585.906L713.708 592.537L713.74 593.633C713.749 593.739 713.696 593.873 713.599 593.989C713.501 594.106 713.377 594.16 713.27 594.169C713.119 594.161 713.029 594.126 712.913 594.028C712.797 593.931 712.743 593.806 712.751 593.655L712.746 592.622L707.798 585.823L707.85 606.209C707.859 606.316 707.806 606.45 707.709 606.566C707.612 606.682 707.487 606.736 707.336 606.728C706.971 606.739 706.783 606.562 706.817 606.214L706.764 585.57L708.874 585.578L713.231 591.524L717.593 585.563L719.597 585.58L719.623 606.162Z" fill="white"/>
<path d="M738.457 605.602C738.609 605.61 738.743 605.663 738.814 605.743C738.931 605.84 738.985 605.965 738.976 606.116C738.986 606.223 738.951 606.312 738.809 606.411C738.711 606.527 738.587 606.581 738.435 606.573L726.145 606.622L726.09 585.462L738.38 585.412C738.487 585.403 738.558 585.483 738.719 585.598C738.835 585.695 738.934 585.837 738.926 585.989C738.935 586.096 738.855 586.167 738.74 586.328C738.598 586.427 738.474 586.481 738.367 586.49L727.11 586.535L727.126 595.512L732.549 595.486C732.656 595.477 732.745 595.512 732.844 595.654C732.96 595.751 733.014 595.876 733.006 596.027C732.998 596.179 732.945 596.313 732.865 596.384C732.768 596.5 732.644 596.554 732.537 596.564L727.113 596.589L727.156 605.629L738.457 605.602Z" fill="white"/>
<path d="M721.232 257.598C721.274 255.14 721.656 253.125 722.442 251.527C723.227 249.929 724.308 248.758 725.685 248.012C727.061 247.266 728.707 246.884 730.604 246.911L742.931 247.031L742.852 252.98L730.998 252.841C729.965 252.845 729.199 252.956 728.639 253.199C728.079 253.442 727.672 253.952 727.408 254.621C727.189 255.308 727.042 256.333 727.031 257.669C727.019 259.005 727.131 260.028 727.366 260.74C727.601 261.451 727.986 261.912 728.548 262.186C729.111 262.459 729.895 262.562 730.91 262.602L742.765 262.742L742.686 268.691L730.36 268.572C728.462 268.545 726.875 268.125 725.473 267.366C724.089 266.562 723.059 265.382 722.312 263.747C721.521 262.094 721.191 260.056 721.232 257.598Z" fill="white"/>
<path d="M721.338 276.149L721.417 270.2L737.386 270.364L737.297 275.949L732.363 275.91L732.204 276.311L721.338 276.149ZM721.202 288.779L721.281 282.829L729.341 282.916C730.463 282.946 731.237 282.684 731.627 282.219C732.034 281.709 732.279 280.826 732.273 279.535C732.267 278.244 732.102 277.354 731.717 276.893C731.332 276.431 730.628 276.257 729.612 276.217L729.645 275.611L732.51 275.143L732.515 276.176C733.389 276.315 734.254 276.605 735.004 277.055C735.799 277.523 736.417 278.18 736.884 279.086C737.352 279.992 737.624 281.131 737.577 282.556C737.575 283.999 737.269 285.167 736.748 286.096C736.227 287.024 735.491 287.713 734.585 288.181C733.679 288.648 732.62 288.849 731.498 288.819L721.202 288.779Z" fill="white"/>
<path d="M721.087 296.519L721.166 290.569L737.135 290.734L737.057 296.684L721.087 296.519ZM738.499 296.686L738.578 290.736L742.372 290.789L742.294 296.739L738.499 296.686Z" fill="white"/>
<path d="M720.919 311.713L720.982 304.365L737.016 297.44L736.931 304.058L726.743 307.927L726.736 308.337L736.855 312.484L736.806 319.012L720.919 311.713Z" fill="white"/>
<path d="M720.402 328.575C720.438 326.784 720.706 325.189 721.252 323.806C721.798 322.423 722.737 321.35 723.962 320.596C725.188 319.842 726.789 319.443 728.793 319.46C730.538 319.478 731.974 319.89 733.207 320.686C734.44 321.481 735.353 322.564 736.01 323.905C736.649 325.292 736.959 326.858 736.941 328.603C736.932 330.456 736.618 332.034 735.983 333.382C735.349 334.729 734.472 335.775 733.309 336.502C732.145 337.229 730.669 337.575 728.968 337.574C728.709 337.575 728.451 337.576 728.21 337.533C728.014 337.507 727.711 337.491 727.426 337.43L727.582 323.313L730.601 323.37L730.496 333.176L728.638 331.876C728.834 331.901 729.003 331.865 729.199 331.891C729.35 331.899 729.564 331.88 729.76 331.906C730.731 331.928 731.398 331.675 731.805 331.166C732.195 330.701 732.395 329.8 732.407 328.464C732.418 327.129 732.227 326.176 731.797 325.698C731.367 325.219 730.636 324.982 729.513 324.951L727.981 324.914C726.859 324.884 726.085 325.146 725.696 325.611C725.306 326.076 725.088 327.021 725.076 328.357C725.073 329.541 725.166 330.351 725.355 330.787C725.562 331.178 725.928 331.425 726.4 331.405L726.765 331.395L726.687 337.344L726.321 337.355C725.137 337.352 724.093 336.991 723.208 336.23C722.305 335.513 721.632 334.474 721.109 333.185C720.631 331.913 720.41 330.383 720.402 328.575Z" fill="white"/>
<path d="M720.577 344.988L720.656 339.038L736.626 339.203L736.536 344.787L731.967 344.738L731.809 345.139L720.577 344.988ZM730.081 345.076L730.111 343.954L732.373 343.97L732.378 345.003C733.252 345.141 734.055 345.458 734.716 345.874C735.377 346.289 735.923 346.865 736.291 347.63C736.678 348.349 736.842 349.239 736.83 350.317C736.826 351.501 736.563 352.429 736.068 353.161C735.573 353.894 734.907 354.405 734.116 354.711C733.28 355 732.328 355.192 731.251 355.179L728.062 355.159L728.123 349.254L729.976 349.263C730.644 349.268 731.106 349.141 731.381 348.837C731.656 348.533 731.805 348.025 731.801 347.25C731.815 346.431 731.661 345.906 731.419 345.604C731.195 345.258 730.731 345.127 730.081 345.076Z" fill="white"/>
<path d="M720.031 364.931C720.062 362.108 720.586 359.994 721.639 358.502C722.674 357.054 724.158 356.299 725.948 356.335L726.055 356.326L725.976 362.276L725.673 362.259C725.219 362.235 724.935 362.432 724.839 362.806C724.743 363.181 724.675 363.876 724.662 364.954C724.667 365.987 724.723 366.628 724.814 366.921C724.922 367.17 725.11 367.347 725.368 367.346C725.626 367.345 725.813 367.264 725.901 367.041C725.989 366.818 726.076 366.336 726.206 365.614L726.745 360.981C726.924 359.35 727.417 358.101 728.179 357.215C728.985 356.348 730.025 355.933 731.361 355.945C732.287 355.949 733.153 356.239 733.975 356.769C734.734 357.327 735.371 358.197 735.866 359.423C736.317 360.632 736.565 362.225 736.548 364.229C736.539 366.082 736.288 367.633 735.84 368.9C735.392 370.166 734.719 371.087 733.849 371.723C732.98 372.36 731.886 372.65 730.55 372.638L730.443 372.648L730.521 366.698L730.718 366.724C730.976 366.723 731.207 366.659 731.394 366.578C731.598 366.453 731.704 366.185 731.8 365.81C731.896 365.436 731.929 364.83 731.943 364.011C731.965 363.04 731.891 362.444 731.738 362.177C731.63 361.928 731.362 361.823 731.104 361.824C730.89 361.843 730.748 361.941 730.598 362.191C730.448 362.441 730.326 363.012 730.215 363.948L729.847 367.102C729.555 369.41 729.028 371.007 728.266 371.892C727.46 372.76 726.402 373.219 725.066 373.208C724.095 373.186 723.185 372.878 722.416 372.214C721.647 371.55 721.028 370.635 720.64 369.399C720.233 368.208 719.995 366.721 720.031 364.931Z" fill="white"/>
<defs>
<radialGradient id="paint0_radial_394_6188" cx="0" cy="0" r="1" gradientUnits="userSpaceOnUse" gradientTransform="translate(896.617 199.279) rotate(10.6788) scale(813 813)">
<stop stop-color="#80FFFF"/>
<stop offset="0.0779373" stop-color="#80F5F6"/>
<stop offset="0.7102" stop-color="#80A5AF"/>
<stop offset="1" stop-color="#808593"/>
</radialGradient>
<linearGradient id="paint1_linear_394_6188" x1="171.169" y1="187.416" x2="1458.94" y2="183.683" gradientUnits="userSpaceOnUse">
<stop stop-color="#00FF3D"/>
<stop offset="0.00788385" stop-color="#9AFE1A"/>
<stop offset="0.5056" stop-color="#9FE870"/>
<stop offset="0.8455" stop-color="#002C42"/>
<stop offset="1" stop-color="#000C26"/>
</linearGradient>
<linearGradient id="paint2_linear_394_6188" x1="301.131" y1="448.029" x2="205.899" y2="382.542" gradientUnits="userSpaceOnUse">
<stop stop-color="#DCC080"/>
<stop offset="1" stop-color="#EDDDB8"/>
</linearGradient>
</defs>
</svg>
