<svg width="17" height="16" viewBox="0 0 17 16" fill="none" xmlns="http://www.w3.org/2000/svg">
<path d="M9.5955 4.55C9.5955 5.184 9.2215 5.57 8.5625 5.57C7.8775 5.57 7.5295 5.184 7.5295 4.55C7.5295 3.94 7.8775 3.554 8.5625 3.554C9.2225 3.554 9.5955 3.939 9.5955 4.549V4.55ZM9.3835 12.18C9.3835 12.328 9.2635 12.447 9.1165 12.447H7.9825C7.91169 12.447 7.84377 12.4189 7.7937 12.3688C7.74363 12.3187 7.7155 12.2508 7.7155 12.18V7.75C7.7155 7.603 7.8355 7.483 7.9825 7.483H9.1165C9.2645 7.483 9.3835 7.603 9.3835 7.75V12.18ZM16.5625 8C16.5625 10.1217 15.7196 12.1566 14.2194 13.6569C12.7191 15.1571 10.6842 16 8.5625 16C6.44077 16 4.40594 15.1571 2.90565 13.6569C1.40535 12.1566 0.5625 10.1217 0.5625 8C0.5625 5.87827 1.40535 3.84344 2.90565 2.34315C4.40594 0.842855 6.44077 0 8.5625 0C10.6842 0 12.7191 0.842855 14.2194 2.34315C15.7196 3.84344 16.5625 5.87827 16.5625 8ZM15.0625 8C15.0625 6.27609 14.3777 4.62279 13.1587 3.40381C11.9397 2.18482 10.2864 1.5 8.5625 1.5C6.83859 1.5 5.18529 2.18482 3.96631 3.40381C2.74732 4.62279 2.0625 6.27609 2.0625 8C2.0625 9.72391 2.74732 11.3772 3.96631 12.5962C5.18529 13.8152 6.83859 14.5 8.5625 14.5C10.2864 14.5 11.9397 13.8152 13.1587 12.5962C14.3777 11.3772 15.0625 9.72391 15.0625 8ZM9.5955 4.55C9.5955 5.184 9.2215 5.57 8.5625 5.57C7.8775 5.57 7.5295 5.184 7.5295 4.55C7.5295 3.94 7.8775 3.554 8.5625 3.554C9.2225 3.554 9.5955 3.939 9.5955 4.549V4.55ZM9.3835 12.18C9.3835 12.328 9.2635 12.447 9.1165 12.447H7.9825C7.91169 12.447 7.84377 12.4189 7.7937 12.3688C7.74363 12.3187 7.7155 12.2508 7.7155 12.18V7.75C7.7155 7.603 7.8355 7.483 7.9825 7.483H9.1165C9.2645 7.483 9.3835 7.603 9.3835 7.75V12.18ZM16.5625 8C16.5625 10.1217 15.7196 12.1566 14.2194 13.6569C12.7191 15.1571 10.6842 16 8.5625 16C6.44077 16 4.40594 15.1571 2.90565 13.6569C1.40535 12.1566 0.5625 10.1217 0.5625 8C0.5625 5.87827 1.40535 3.84344 2.90565 2.34315C4.40594 0.842855 6.44077 0 8.5625 0C10.6842 0 12.7191 0.842855 14.2194 2.34315C15.7196 3.84344 16.5625 5.87827 16.5625 8ZM15.0625 8C15.0625 6.27609 14.3777 4.62279 13.1587 3.40381C11.9397 2.18482 10.2864 1.5 8.5625 1.5C6.83859 1.5 5.18529 2.18482 3.96631 3.40381C2.74732 4.62279 2.0625 6.27609 2.0625 8C2.0625 9.72391 2.74732 11.3772 3.96631 12.5962C5.18529 13.8152 6.83859 14.5 8.5625 14.5C10.2864 14.5 11.9397 13.8152 13.1587 12.5962C14.3777 11.3772 15.0625 9.72391 15.0625 8ZM9.5955 4.55C9.5955 5.184 9.2215 5.57 8.5625 5.57C7.8775 5.57 7.5295 5.184 7.5295 4.55C7.5295 3.94 7.8775 3.554 8.5625 3.554C9.2225 3.554 9.5955 3.939 9.5955 4.549V4.55ZM9.3835 12.18C9.3835 12.328 9.2635 12.447 9.1165 12.447H7.9825C7.91169 12.447 7.84377 12.4189 7.7937 12.3688C7.74363 12.3187 7.7155 12.2508 7.7155 12.18V7.75C7.7155 7.603 7.8355 7.483 7.9825 7.483H9.1165C9.2645 7.483 9.3835 7.603 9.3835 7.75V12.18ZM16.5625 8C16.5625 10.1217 15.7196 12.1566 14.2194 13.6569C12.7191 15.1571 10.6842 16 8.5625 16C6.44077 16 4.40594 15.1571 2.90565 13.6569C1.40535 12.1566 0.5625 10.1217 0.5625 8C0.5625 5.87827 1.40535 3.84344 2.90565 2.34315C4.40594 0.842855 6.44077 0 8.5625 0C10.6842 0 12.7191 0.842855 14.2194 2.34315C15.7196 3.84344 16.5625 5.87827 16.5625 8ZM15.0625 8C15.0625 6.27609 14.3777 4.62279 13.1587 3.40381C11.9397 2.18482 10.2864 1.5 8.5625 1.5C6.83859 1.5 5.18529 2.18482 3.96631 3.40381C2.74732 4.62279 2.0625 6.27609 2.0625 8C2.0625 9.72391 2.74732 11.3772 3.96631 12.5962C5.18529 13.8152 6.83859 14.5 8.5625 14.5C10.2864 14.5 11.9397 13.8152 13.1587 12.5962C14.3777 11.3772 15.0625 9.72391 15.0625 8Z" fill="#939393"/>
<path d="M9.5955 4.55C9.5955 5.184 9.2215 5.57 8.5625 5.57C7.8775 5.57 7.5295 5.184 7.5295 4.55C7.5295 3.94 7.8775 3.554 8.5625 3.554C9.2225 3.554 9.5955 3.939 9.5955 4.549V4.55ZM9.3835 12.18C9.3835 12.328 9.2635 12.447 9.1165 12.447H7.9825C7.91169 12.447 7.84377 12.4189 7.7937 12.3688C7.74363 12.3187 7.7155 12.2508 7.7155 12.18V7.75C7.7155 7.603 7.8355 7.483 7.9825 7.483H9.1165C9.2645 7.483 9.3835 7.603 9.3835 7.75V12.18ZM16.5625 8C16.5625 10.1217 15.7196 12.1566 14.2194 13.6569C12.7191 15.1571 10.6842 16 8.5625 16C6.44077 16 4.40594 15.1571 2.90565 13.6569C1.40535 12.1566 0.5625 10.1217 0.5625 8C0.5625 5.87827 1.40535 3.84344 2.90565 2.34315C4.40594 0.842855 6.44077 0 8.5625 0C10.6842 0 12.7191 0.842855 14.2194 2.34315C15.7196 3.84344 16.5625 5.87827 16.5625 8ZM15.0625 8C15.0625 6.27609 14.3777 4.62279 13.1587 3.40381C11.9397 2.18482 10.2864 1.5 8.5625 1.5C6.83859 1.5 5.18529 2.18482 3.96631 3.40381C2.74732 4.62279 2.0625 6.27609 2.0625 8C2.0625 9.72391 2.74732 11.3772 3.96631 12.5962C5.18529 13.8152 6.83859 14.5 8.5625 14.5C10.2864 14.5 11.9397 13.8152 13.1587 12.5962C14.3777 11.3772 15.0625 9.72391 15.0625 8ZM9.5955 4.55C9.5955 5.184 9.2215 5.57 8.5625 5.57C7.8775 5.57 7.5295 5.184 7.5295 4.55C7.5295 3.94 7.8775 3.554 8.5625 3.554C9.2225 3.554 9.5955 3.939 9.5955 4.549V4.55ZM9.3835 12.18C9.3835 12.328 9.2635 12.447 9.1165 12.447H7.9825C7.91169 12.447 7.84377 12.4189 7.7937 12.3688C7.74363 12.3187 7.7155 12.2508 7.7155 12.18V7.75C7.7155 7.603 7.8355 7.483 7.9825 7.483H9.1165C9.2645 7.483 9.3835 7.603 9.3835 7.75V12.18ZM16.5625 8C16.5625 10.1217 15.7196 12.1566 14.2194 13.6569C12.7191 15.1571 10.6842 16 8.5625 16C6.44077 16 4.40594 15.1571 2.90565 13.6569C1.40535 12.1566 0.5625 10.1217 0.5625 8C0.5625 5.87827 1.40535 3.84344 2.90565 2.34315C4.40594 0.842855 6.44077 0 8.5625 0C10.6842 0 12.7191 0.842855 14.2194 2.34315C15.7196 3.84344 16.5625 5.87827 16.5625 8ZM15.0625 8C15.0625 6.27609 14.3777 4.62279 13.1587 3.40381C11.9397 2.18482 10.2864 1.5 8.5625 1.5C6.83859 1.5 5.18529 2.18482 3.96631 3.40381C2.74732 4.62279 2.0625 6.27609 2.0625 8C2.0625 9.72391 2.74732 11.3772 3.96631 12.5962C5.18529 13.8152 6.83859 14.5 8.5625 14.5C10.2864 14.5 11.9397 13.8152 13.1587 12.5962C14.3777 11.3772 15.0625 9.72391 15.0625 8ZM9.5955 4.55C9.5955 5.184 9.2215 5.57 8.5625 5.57C7.8775 5.57 7.5295 5.184 7.5295 4.55C7.5295 3.94 7.8775 3.554 8.5625 3.554C9.2225 3.554 9.5955 3.939 9.5955 4.549V4.55ZM9.3835 12.18C9.3835 12.328 9.2635 12.447 9.1165 12.447H7.9825C7.91169 12.447 7.84377 12.4189 7.7937 12.3688C7.74363 12.3187 7.7155 12.2508 7.7155 12.18V7.75C7.7155 7.603 7.8355 7.483 7.9825 7.483H9.1165C9.2645 7.483 9.3835 7.603 9.3835 7.75V12.18ZM16.5625 8C16.5625 10.1217 15.7196 12.1566 14.2194 13.6569C12.7191 15.1571 10.6842 16 8.5625 16C6.44077 16 4.40594 15.1571 2.90565 13.6569C1.40535 12.1566 0.5625 10.1217 0.5625 8C0.5625 5.87827 1.40535 3.84344 2.90565 2.34315C4.40594 0.842855 6.44077 0 8.5625 0C10.6842 0 12.7191 0.842855 14.2194 2.34315C15.7196 3.84344 16.5625 5.87827 16.5625 8ZM15.0625 8C15.0625 6.27609 14.3777 4.62279 13.1587 3.40381C11.9397 2.18482 10.2864 1.5 8.5625 1.5C6.83859 1.5 5.18529 2.18482 3.96631 3.40381C2.74732 4.62279 2.0625 6.27609 2.0625 8C2.0625 9.72391 2.74732 11.3772 3.96631 12.5962C5.18529 13.8152 6.83859 14.5 8.5625 14.5C10.2864 14.5 11.9397 13.8152 13.1587 12.5962C14.3777 11.3772 15.0625 9.72391 15.0625 8Z" fill="#939393"/>
<path d="M9.5955 4.55C9.5955 5.184 9.2215 5.57 8.5625 5.57C7.8775 5.57 7.5295 5.184 7.5295 4.55C7.5295 3.94 7.8775 3.554 8.5625 3.554C9.2225 3.554 9.5955 3.939 9.5955 4.549V4.55ZM9.3835 12.18C9.3835 12.328 9.2635 12.447 9.1165 12.447H7.9825C7.91169 12.447 7.84377 12.4189 7.7937 12.3688C7.74363 12.3187 7.7155 12.2508 7.7155 12.18V7.75C7.7155 7.603 7.8355 7.483 7.9825 7.483H9.1165C9.2645 7.483 9.3835 7.603 9.3835 7.75V12.18ZM16.5625 8C16.5625 10.1217 15.7196 12.1566 14.2194 13.6569C12.7191 15.1571 10.6842 16 8.5625 16C6.44077 16 4.40594 15.1571 2.90565 13.6569C1.40535 12.1566 0.5625 10.1217 0.5625 8C0.5625 5.87827 1.40535 3.84344 2.90565 2.34315C4.40594 0.842855 6.44077 0 8.5625 0C10.6842 0 12.7191 0.842855 14.2194 2.34315C15.7196 3.84344 16.5625 5.87827 16.5625 8ZM15.0625 8C15.0625 6.27609 14.3777 4.62279 13.1587 3.40381C11.9397 2.18482 10.2864 1.5 8.5625 1.5C6.83859 1.5 5.18529 2.18482 3.96631 3.40381C2.74732 4.62279 2.0625 6.27609 2.0625 8C2.0625 9.72391 2.74732 11.3772 3.96631 12.5962C5.18529 13.8152 6.83859 14.5 8.5625 14.5C10.2864 14.5 11.9397 13.8152 13.1587 12.5962C14.3777 11.3772 15.0625 9.72391 15.0625 8ZM9.5955 4.55C9.5955 5.184 9.2215 5.57 8.5625 5.57C7.8775 5.57 7.5295 5.184 7.5295 4.55C7.5295 3.94 7.8775 3.554 8.5625 3.554C9.2225 3.554 9.5955 3.939 9.5955 4.549V4.55ZM9.3835 12.18C9.3835 12.328 9.2635 12.447 9.1165 12.447H7.9825C7.91169 12.447 7.84377 12.4189 7.7937 12.3688C7.74363 12.3187 7.7155 12.2508 7.7155 12.18V7.75C7.7155 7.603 7.8355 7.483 7.9825 7.483H9.1165C9.2645 7.483 9.3835 7.603 9.3835 7.75V12.18ZM16.5625 8C16.5625 10.1217 15.7196 12.1566 14.2194 13.6569C12.7191 15.1571 10.6842 16 8.5625 16C6.44077 16 4.40594 15.1571 2.90565 13.6569C1.40535 12.1566 0.5625 10.1217 0.5625 8C0.5625 5.87827 1.40535 3.84344 2.90565 2.34315C4.40594 0.842855 6.44077 0 8.5625 0C10.6842 0 12.7191 0.842855 14.2194 2.34315C15.7196 3.84344 16.5625 5.87827 16.5625 8ZM15.0625 8C15.0625 6.27609 14.3777 4.62279 13.1587 3.40381C11.9397 2.18482 10.2864 1.5 8.5625 1.5C6.83859 1.5 5.18529 2.18482 3.96631 3.40381C2.74732 4.62279 2.0625 6.27609 2.0625 8C2.0625 9.72391 2.74732 11.3772 3.96631 12.5962C5.18529 13.8152 6.83859 14.5 8.5625 14.5C10.2864 14.5 11.9397 13.8152 13.1587 12.5962C14.3777 11.3772 15.0625 9.72391 15.0625 8ZM9.5955 4.55C9.5955 5.184 9.2215 5.57 8.5625 5.57C7.8775 5.57 7.5295 5.184 7.5295 4.55C7.5295 3.94 7.8775 3.554 8.5625 3.554C9.2225 3.554 9.5955 3.939 9.5955 4.549V4.55ZM9.3835 12.18C9.3835 12.328 9.2635 12.447 9.1165 12.447H7.9825C7.91169 12.447 7.84377 12.4189 7.7937 12.3688C7.74363 12.3187 7.7155 12.2508 7.7155 12.18V7.75C7.7155 7.603 7.8355 7.483 7.9825 7.483H9.1165C9.2645 7.483 9.3835 7.603 9.3835 7.75V12.18ZM16.5625 8C16.5625 10.1217 15.7196 12.1566 14.2194 13.6569C12.7191 15.1571 10.6842 16 8.5625 16C6.44077 16 4.40594 15.1571 2.90565 13.6569C1.40535 12.1566 0.5625 10.1217 0.5625 8C0.5625 5.87827 1.40535 3.84344 2.90565 2.34315C4.40594 0.842855 6.44077 0 8.5625 0C10.6842 0 12.7191 0.842855 14.2194 2.34315C15.7196 3.84344 16.5625 5.87827 16.5625 8ZM15.0625 8C15.0625 6.27609 14.3777 4.62279 13.1587 3.40381C11.9397 2.18482 10.2864 1.5 8.5625 1.5C6.83859 1.5 5.18529 2.18482 3.96631 3.40381C2.74732 4.62279 2.0625 6.27609 2.0625 8C2.0625 9.72391 2.74732 11.3772 3.96631 12.5962C5.18529 13.8152 6.83859 14.5 8.5625 14.5C10.2864 14.5 11.9397 13.8152 13.1587 12.5962C14.3777 11.3772 15.0625 9.72391 15.0625 8Z" fill="#939393"/>
</svg>
