<svg width="641" height="263" viewBox="0 0 641 263" fill="none" xmlns="http://www.w3.org/2000/svg">
<path d="M431.546 97.148C444.69 100.644 457.703 102.317 470.93 104.776C484.525 107.31 499.184 108.535 512.181 102.737C513.444 102.166 514.733 101.507 515.566 100.402C517.067 98.4282 516.774 95.724 517.007 93.2587C517.356 89.428 519.151 85.7152 521.971 83.0996C516.603 76.2229 512.776 69.5149 511.654 60.5989C511.268 57.4978 511.408 53.9434 513.678 51.7885C517.449 48.1912 523.719 51.0422 527.532 54.5621C533.381 59.962 537.913 66.8009 540.576 74.3159C537.303 66.1089 535.763 57.2143 536.072 48.3675C536.198 44.7644 536.673 41.0014 538.801 38.1183C540.921 35.2108 545.133 33.5811 548.251 35.3442C549.543 36.0941 550.494 37.294 551.365 38.4918C561.681 52.6126 566.871 70.4244 565.703 87.8863C570.254 91.8198 577.667 87.1657 579.57 81.4513C581.473 75.7369 580.324 69.4364 581.668 63.5465C583.387 55.9195 589.583 49.455 597.123 47.3962C599.969 46.6086 603.391 46.5764 605.494 48.6755C607.337 50.5344 607.521 53.4049 607.598 56.015C608.006 70.0967 608.225 84.9542 601.514 97.3221C598.682 102.521 594.758 107.016 591.34 111.862C586.578 118.581 582.828 126.003 580.179 133.807C578.504 138.787 576.861 145.353 572.031 148.182C565.884 151.758 555.77 152.527 548.863 154.393C533.236 158.544 517.616 162.72 501.988 166.872C496.403 168.361 490.794 169.858 485.052 170.571C460.487 173.59 436.627 162.692 412.524 159.983C388.228 157.253 363.183 161.668 341.267 172.419C335.274 175.363 329.495 178.747 323.741 182.124C318.575 185.162 313.433 188.192 308.26 191.206C309.477 190.489 308.488 179.91 308.424 178.306C308.285 173.747 307.406 169.119 307.403 164.571C307.42 156.771 307.91 149.04 307.544 141.118C307.217 134.46 300.935 117.167 303.079 112.071C305.619 106.003 322.863 99.124 328.545 96.3812C338.417 91.5895 348.902 88.0212 359.805 86.613C383.907 83.4697 408.01 90.8877 431.546 97.148Z" fill="#B55C43"/>
<path d="M376.197 62.276C388.233 59.4321 400.985 61.5573 412.596 65.7862C422.493 69.367 432.373 74.5493 442.867 73.7182C450.974 73.0828 458.336 68.8701 466.212 66.8684C475.741 64.4426 485.765 65.2978 495.555 66.1711C502.775 66.8168 511.169 68.1691 514.651 74.5301C517.71 80.1153 515.29 87.4505 510.747 91.9212C506.204 96.392 499.986 98.6862 493.99 100.833C487.327 103.237 480.656 105.616 473.993 108.019C497.47 110.068 520.517 93.8646 543.46 99.1355C547.519 89.4118 558.594 84.8123 568.907 82.5999C570.752 82.1969 572.613 81.8426 574.279 80.9358C576.467 79.7367 578.057 77.7091 579.589 75.7524C587.398 65.7635 596.997 55.3621 609.645 54.3533C612.065 54.1744 614.659 54.3946 616.618 55.8459C621.57 59.5241 618.968 67.3938 615.392 72.4209C611.165 78.365 606.141 83.7007 601.165 89.0216C592.613 98.1461 584.037 107.278 575.493 116.427C569.889 122.391 564.185 128.466 557.037 132.507C545.143 139.219 531.121 139.476 517.953 141.308C511.288 142.222 504.254 143.409 498.117 146.317C492.078 149.195 486.977 153.144 480.169 154.288C471.842 155.683 463.426 153.034 455.412 150.395C433.453 143.202 411.456 132.828 388.457 130.075C379.789 129.046 370.769 128.603 362.056 129.343C354.513 129.993 346.792 133.464 339.257 135.016C335.049 135.873 330.729 136.711 326.451 136.206C320.191 135.48 315.156 132.226 315.706 125.567C316.822 111.686 330.004 97.8517 338.855 88.0508C349.355 76.4169 360.12 66.086 376.197 62.276Z" fill="#C67154"/>
<path d="M540.274 48.3634C540.169 50.5502 540.467 52.7474 540.764 54.9447C542.235 65.6166 543.883 76.2608 545.677 86.8606C547.935 87.0237 549.969 85.5791 551.784 84.2012C553.516 82.9018 555.24 81.5779 556.973 80.2785C558.311 79.2586 559.715 78.1921 560.479 76.6824C561.487 74.7524 561.281 72.4207 560.87 70.2849C559.351 62.4212 556.989 52.5795 553.774 45.2595C552.474 42.3037 550.46 39.5388 547.677 37.9132C542.347 34.829 540.443 44.6407 540.274 48.3634Z" fill="#C67154"/>
<path d="M514.878 64.192C515.752 64.6172 516.752 64.5786 517.715 64.6841C521.231 65.0488 524.251 67.1877 527.455 68.7116C529.133 69.5037 531.332 70.0838 532.709 68.8395C534.216 67.502 533.693 65.0011 532.774 63.2064C531.026 59.8285 528.369 57.0469 525.727 54.314C516.493 44.705 509.582 61.6561 514.878 64.192Z" fill="#C67154"/>
<path d="M436.301 110.304C432.254 111.165 428.474 112.902 424.605 114.348C415.046 117.9 404.841 119.68 394.653 119.594C395.082 120.74 396.298 121.327 397.438 121.751C405.876 124.819 415.273 123.444 423.932 121.044C432.592 118.644 441.052 115.24 449.964 114.28C455.243 113.708 462.494 114.717 467.226 112.263C464.767 108.996 458.247 110.212 454.71 110.04C448.576 109.728 442.372 109.012 436.301 110.304Z" fill="#B55C43"/>
<path d="M586.487 72.9847C584.414 76.2235 582.846 79.8938 580.001 82.5168C575.894 86.3227 569.946 87.2313 564.717 89.2774C559.512 91.3161 554.791 94.5909 551.116 98.7703C549.591 100.486 548.139 102.444 546.017 103.251C544.156 103.951 542.102 103.673 540.152 103.469C529.844 102.381 520.099 103.489 510.232 106.204C500.414 108.904 490.843 110.146 481.59 114.962C498.993 114.977 516.4 114.832 533.788 114.534C541.221 114.396 550.346 112.041 557.19 109.183C562.618 106.917 567.448 103.476 572.113 99.9256C585.243 89.9376 597.454 78.7667 608.58 66.5695C610.412 64.5481 613.596 62.5134 611.442 59.8978C609.538 57.5785 604.99 58.805 602.78 59.585C596.2 61.9101 590.212 67.1404 586.487 72.9847Z" fill="#ED977A"/>
<path d="M484.044 66.8069C474.642 67.7307 465.621 71.0391 456.392 73.0541C443.148 75.9472 429.201 76.1014 416.176 72.3832C411.661 71.0991 407.264 69.327 402.696 68.2187C390.193 65.1661 376.811 67.1702 364.906 72.1024C356.81 75.475 343.013 83.5379 348.251 93.5667C361.063 89.954 372.769 83.0605 385.656 79.6912C398.89 76.2424 413.11 76.7232 426.086 81.0679C432.096 83.0669 437.963 85.9075 444.309 86.1281C449.553 86.3122 454.666 84.6736 459.658 83.0721C465.471 81.194 471.259 79.3234 477.071 77.4453C482.932 75.5524 488.939 73.6149 495.094 73.734C501.242 73.8288 507.721 76.3229 511.032 81.5122C509.615 75.0276 509.263 72.1286 503.021 69.4555C497.011 66.8447 490.524 66.1616 484.044 66.8069Z" fill="#ED977A"/>
<path d="M486.196 89.4021C486.507 91.9941 487.13 94.9967 489.501 96.0563C490.424 96.4666 491.477 96.518 492.501 96.4721C498.421 96.3436 504.307 94.7089 509.447 91.7589C510.852 90.9581 512.237 90.0038 513.133 88.6666C514.598 86.4908 514.591 83.6732 514.328 81.0663C513.893 76.7565 512.55 72.0045 508.79 69.8786C507.378 69.0854 505.728 68.7368 504.097 68.6221C500.964 68.38 497.829 68.8301 494.741 69.3459C492.663 69.6865 490.552 70.0907 488.674 71.0886C482.063 74.6203 485.47 83.5311 486.196 89.4021Z" fill="#EFA28E"/>
<path d="M607.651 67.0124C605.435 70.2152 602.41 74.1698 602.196 78.0926C602.12 79.4993 602.463 81.1504 603.736 81.7468C605.001 82.3189 606.445 81.5594 607.561 80.7672C611.866 77.699 615.717 73.8382 618.183 69.0962C619.004 67.5156 620.947 64.2896 620.649 62.4385C620.29 60.127 616.654 59.1071 614.687 59.5472C613.019 59.9226 611.862 61.3658 610.813 62.7232C609.805 64.0414 608.772 65.3671 607.835 66.7435C607.784 66.8388 607.734 66.934 607.651 67.0124Z" fill="#EFA28E"/>
<path d="M555.156 49.3607C556.102 51.0676 557.114 52.7279 558.167 54.349C558.468 54.8157 558.77 55.2823 559.247 55.5362C560.588 56.2712 560.452 54.6899 560.317 53.9861C560.035 52.4494 559.255 50.8514 558.64 49.4429C557.34 46.4871 555.689 43.6914 554.039 40.8956C553.153 39.3834 552.22 37.4595 550.775 36.3837C548.919 35.0074 549.075 36.1304 549.694 37.7242C551.233 41.7245 553.056 45.6115 555.156 49.3607Z" fill="#EFA28E"/>
<path d="M302.781 102.452C301.68 101.457 299.97 101.606 298.481 101.874C286.045 104.015 272.639 107.862 261.67 114.291C219.948 137.354 130.296 185.252 105.462 192.347C80.6286 199.443 43.7811 246.1 28.4616 268.542L235.679 268.542C231.163 240.161 250.544 227.733 260.799 225.066C262.265 225.338 263.726 224.547 265.01 223.783C286.52 211.001 307.352 197.043 327.382 182.025C317.204 173.422 314.134 159.247 311.688 146.16C309.351 133.813 307.041 121.481 304.727 109.132L304.032 105.423C303.835 104.339 303.591 103.189 302.781 102.452Z" fill="#D9D9D9"/>
</svg>
