<svg width="996" height="913" viewBox="0 0 996 913" fill="none" xmlns="http://www.w3.org/2000/svg">
<path d="M826.565 679.326L170.13 681.589C155.555 681.637 143.71 669.858 143.662 655.284L142.349 260.834C142.301 246.26 154.079 234.414 168.653 234.366L825.041 232.085C839.615 232.037 851.461 243.815 851.509 258.39L852.869 652.858C852.917 667.433 841.139 679.278 826.565 679.326Z" fill="white"/>
<path d="M170.166 681.217C155.801 681.292 144.128 669.637 144.052 655.272L142.692 260.803C142.616 246.439 154.271 234.765 168.636 234.69L825.071 232.427C839.436 232.352 851.109 244.007 851.185 258.372L852.546 652.841C852.621 667.205 840.966 678.879 826.601 678.954L170.166 681.217Z" fill="url(#paint0_radial_394_5663)"/>
<path d="M170.183 680.893C156.047 680.948 144.479 669.445 144.424 655.309L143.063 260.84C143.008 246.704 154.511 235.136 168.647 235.081L825.083 232.818C839.219 232.763 850.786 244.266 850.842 258.402L852.155 652.852C852.21 666.989 840.707 678.556 826.57 678.612L170.183 680.893Z" fill="url(#paint1_linear_394_5663)"/>
<path d="M311.396 481.964L227.474 482.263C220.016 482.302 213.954 476.275 213.963 468.836L213.771 419.636C213.731 412.177 219.758 406.115 227.198 406.124L311.119 405.825C318.578 405.786 324.639 411.813 324.631 419.252L324.823 468.453C324.862 475.911 318.854 481.925 311.396 481.964Z" fill="url(#paint2_linear_394_5663)"/>
<path d="M310.574 405.39L227.824 405.654C219.813 405.696 213.301 411.732 213.33 419.076L213.48 469.362C213.49 476.754 220.075 482.711 228.068 482.717L310.817 482.453C318.829 482.411 325.341 476.375 325.312 469.031L325.162 418.745C325.122 411.286 318.585 405.348 310.574 405.39ZM324.19 418.693L324.238 429.628L284.868 429.778L284.726 429.998C282.138 434.051 280.791 438.868 280.809 444.003C280.797 449.07 282.166 453.855 284.73 457.842C282.052 470.24 276.083 478.254 269.472 478.241C262.842 478.276 256.837 470.287 254.038 457.937C256.56 453.913 257.888 449.143 257.852 444.057C257.863 438.989 256.495 434.205 253.93 430.217C256.609 417.819 262.577 409.805 269.188 409.818C272.665 409.809 276.039 412.021 278.967 416.206L279.822 415.716C276.865 411.464 273.367 409.148 269.708 408.92L269.713 406.386L310.578 406.219C318.066 406.246 324.135 411.834 324.19 418.693ZM285.556 457.285C283.116 453.402 281.815 448.865 281.799 444.007C281.783 439.149 283.036 434.57 285.454 430.671L324.205 430.552L324.306 457.167L285.556 457.285ZM253.206 457.389L214.456 457.507L214.354 430.892L253.105 430.774C255.545 434.657 256.845 439.194 256.861 444.052C256.858 448.958 255.606 453.537 253.206 457.389ZM227.791 406.578L268.656 406.411L268.65 408.945C261.775 409.324 255.673 417.396 252.976 429.841L214.321 429.997L214.273 419.061C214.265 412.222 220.351 406.57 227.791 406.578ZM214.471 469.367L214.423 458.431L253.078 458.275C255.858 470.673 262.025 478.671 268.924 479.073L268.918 481.607L228.053 481.774C220.595 481.813 214.526 476.225 214.471 469.367ZM310.803 481.51L269.938 481.677L269.944 479.144C276.819 478.764 282.921 470.693 285.618 458.247L324.273 458.091L324.321 469.027C324.376 475.885 318.309 481.49 310.803 481.51Z" fill="black"/>
<path d="M269.23 412.371C268.449 412.394 267.833 412.978 267.827 413.693C267.822 414.407 268.472 414.994 269.253 414.971C270.034 414.948 270.65 414.364 270.656 413.649C270.662 412.935 270.011 412.348 269.23 412.371Z" fill="black"/>
<path d="M676.365 297.958C676.343 297.453 676.55 296.928 676.881 296.508C677.666 295.494 679.104 295.343 680.118 296.129C686.709 301.371 696.069 304.342 705.785 304.31C715.502 304.278 724.811 301.218 731.366 295.916C732.352 295.092 733.82 295.284 734.597 296.252C735.421 297.238 735.229 298.706 734.261 299.483C726.825 305.485 716.688 308.825 705.8 308.891C694.931 308.911 684.788 305.687 677.279 299.697C676.667 299.29 676.378 298.625 676.365 297.958Z" fill="white"/>
<path d="M682.878 288.56C682.857 288.055 683.064 287.53 683.395 287.109C684.18 286.095 685.618 285.945 686.631 286.73C691.539 290.648 698.504 292.84 705.734 292.822C712.964 292.803 719.925 290.527 724.782 286.596C725.768 285.772 727.236 285.964 728.013 286.932C728.837 287.918 728.645 289.386 727.678 290.163C721.939 294.794 714.132 297.397 705.749 297.403C697.366 297.409 689.589 294.897 683.793 290.298C683.181 289.892 682.891 289.227 682.878 288.56Z" fill="white"/>
<path d="M689.392 279.162C689.371 278.657 689.577 278.132 689.909 277.711C690.694 276.697 692.131 276.547 693.145 277.332C696.34 279.859 700.94 281.34 705.683 281.334C710.427 281.328 714.992 279.818 718.198 277.277C719.184 276.452 720.652 276.645 721.429 277.612C722.254 278.599 722.061 280.067 721.094 280.843C717.053 284.103 711.595 285.923 705.698 285.916C699.849 285.928 694.372 284.156 690.288 280.948C689.695 280.494 689.405 279.829 689.392 279.162Z" fill="white"/>
<path d="M695.906 269.763C695.885 269.258 696.091 268.733 696.423 268.313C697.208 267.299 698.646 267.148 699.659 267.934C701.171 269.135 703.375 269.838 705.652 269.798C707.928 269.757 710.125 269.079 711.652 267.861C712.639 267.037 714.106 267.229 714.883 268.196C715.708 269.183 715.515 270.651 714.548 271.427C712.205 273.316 709.095 274.352 705.714 274.398C702.351 274.397 699.221 273.385 696.868 271.52C696.209 271.095 695.919 270.43 695.906 269.763Z" fill="white"/>
<path d="M228.829 556.787C228.832 557.339 228.557 557.617 227.938 557.649L208.001 557.734C207.448 557.737 207.17 557.463 207.138 556.843C207.117 556.339 207.392 556.061 207.992 556.077L217.156 556.048L217.023 523.632L207.974 523.651C207.373 523.635 207.048 523.341 207.064 522.741C207.061 522.189 207.402 521.882 208.002 521.898L218.757 521.889L218.861 556.058L227.081 556.043L227.038 544.117C227.065 543.907 227.14 543.716 227.311 543.563C227.482 543.41 227.681 543.323 227.891 543.35C228.101 543.378 228.292 543.453 228.445 543.624C228.646 543.813 228.733 544.013 228.687 544.27L228.829 556.787Z" fill="white"/>
<path d="M227.903 558.297L207.966 558.383C207.023 558.397 206.391 557.762 206.395 556.772C206.381 555.829 206.978 555.292 207.921 555.278L216.37 555.243L216.341 524.246L208.006 524.271C207.015 524.266 206.383 523.631 206.387 522.641C206.373 521.698 207.008 521.066 208.046 521.089L219.534 521.038L219.637 555.207L226.429 555.18L226.399 543.921C226.397 543.645 226.5 543.244 226.879 542.842C227.201 542.583 227.534 542.438 227.924 542.427C228.201 542.425 228.601 542.528 229.003 542.907C229.329 543.201 229.502 543.6 229.495 544.038L229.514 556.726C229.51 557.717 228.894 558.301 227.903 558.297ZM207.863 556.964C207.863 556.964 207.911 556.983 207.977 556.954L227.896 556.916C228.01 556.906 228.058 556.925 228.077 556.877C228.077 556.877 228.095 556.829 228.067 556.763L228.047 544.074C228.066 544.026 228.018 544.008 227.99 543.941C227.961 543.875 227.913 543.856 227.913 543.856C227.913 543.856 227.846 543.885 227.828 543.932L227.847 556.621L218.245 556.643L218.141 522.474L208.101 522.489C207.939 522.48 207.872 522.509 207.872 522.509C207.872 522.509 207.854 522.557 207.883 522.623C207.893 522.737 207.922 522.804 207.922 522.804C207.922 522.804 207.969 522.823 208.084 522.813L217.848 522.799L217.968 556.644L208.09 556.668C208.043 556.649 207.976 556.678 207.976 556.678L207.957 556.725C207.834 556.898 207.882 556.916 207.863 556.964Z" fill="white"/>
<path d="M259.926 555.804C260.088 555.813 260.279 555.888 260.432 556.059C260.585 556.23 260.72 556.448 260.721 556.724C260.743 557.229 260.468 557.507 259.916 557.51L238.988 557.591L238.925 542.074C238.911 541.131 239.278 540.338 239.913 539.706C240.567 539.026 241.365 538.679 242.289 538.712L258.959 538.663L258.898 523.422L239.58 523.476C238.98 523.46 238.654 523.166 238.67 522.566C238.679 522.404 238.754 522.213 238.943 522.012C239.133 521.811 239.332 521.724 239.609 521.723L257.222 521.659C258.165 521.644 258.909 521.993 259.589 522.647C260.221 523.281 260.568 524.08 260.583 525.023L260.627 536.949C260.641 537.892 260.303 538.751 259.668 539.383C259.014 540.063 258.235 540.362 257.339 540.396L240.669 540.445L240.722 555.848L259.926 555.804Z" fill="white"/>
<path d="M259.91 558.224L238.267 558.3L238.211 542.068C238.205 540.963 238.6 539.961 239.405 539.175C240.211 538.39 241.161 537.937 242.314 537.95L258.269 537.895L258.244 524.102L239.641 524.161C238.65 524.157 238.018 523.522 238.022 522.531C238.039 522.207 238.171 521.873 238.483 521.5C238.796 521.127 239.243 520.972 239.7 520.932L257.313 520.868C258.418 520.862 259.42 521.257 260.205 522.062C260.991 522.868 261.377 523.847 261.383 524.952L261.426 536.878C261.413 538.031 261.019 539.033 260.261 539.837C259.503 540.641 258.505 541.075 257.4 541.081L241.444 541.136L241.508 555.111L259.998 555.061C260.322 555.078 260.656 555.21 260.981 555.504C261.23 555.712 261.47 556.082 261.502 556.701C261.421 557.606 260.805 558.191 259.91 558.224ZM239.66 556.864L259.921 556.795C259.969 556.814 259.969 556.814 259.988 556.766L260.007 556.718C259.997 556.604 259.997 556.604 259.949 556.585C259.901 556.567 259.853 556.548 259.872 556.5L240.001 556.557L239.956 540.716C239.739 541.126 239.637 541.527 239.611 542.013L239.66 556.864ZM240.885 539.758L257.279 539.71C257.783 539.688 258.259 539.6 258.648 539.312L242.254 539.36C241.75 539.382 241.321 539.489 240.885 539.758ZM259.624 523.818L259.681 538.23C259.879 537.867 259.934 537.448 259.96 536.962L259.916 525.036C259.876 524.579 259.75 524.198 259.624 523.818ZM239.424 522.753C239.424 522.753 239.471 522.771 239.586 522.761L258.532 522.671C258.169 522.473 257.721 522.352 257.282 522.344L239.669 522.408C239.555 522.419 239.555 522.419 239.489 522.447C239.403 522.524 239.384 522.572 239.384 522.572C239.395 522.686 239.376 522.734 239.424 522.753C239.376 522.734 239.376 522.734 239.424 522.753Z" fill="white"/>
<path d="M293.419 554.056C293.433 554.999 293.085 555.744 292.383 556.405C291.682 557.066 290.902 557.365 289.959 557.379L272.508 557.452C271.956 557.455 271.678 557.18 271.675 556.628C271.672 556.075 271.947 555.798 272.566 555.766L291.56 555.694L291.52 544.321C291.495 543.264 291.138 542.351 290.323 541.479C289.557 540.626 288.555 540.231 287.402 540.218L277.362 540.232C276.876 540.206 276.646 539.95 276.643 539.398C276.659 538.798 276.886 538.501 277.438 538.498L287.478 538.484C288.631 538.497 289.629 538.063 290.406 537.211C291.182 536.359 291.587 535.471 291.563 534.414L291.542 523.269L272.224 523.323C271.672 523.325 271.394 523.051 271.362 522.432C271.359 521.879 271.634 521.601 272.253 521.57L289.818 521.487C290.761 521.472 291.506 521.821 292.186 522.474C292.818 523.109 293.165 523.908 293.161 524.898L293.219 534.129C293.233 535.072 293.076 535.892 292.775 536.655C292.474 537.419 291.793 538.309 290.702 539.257C291.794 540.404 292.504 541.401 292.87 542.151C293.236 542.902 293.393 543.625 293.387 544.34L293.419 554.056Z" fill="white"/>
<path d="M289.954 558.094L272.503 558.167C271.56 558.181 270.975 557.565 270.961 556.622C270.946 555.679 271.581 555.047 272.572 555.051L290.899 554.993L290.853 544.334C290.867 543.457 290.501 542.707 289.859 541.958C289.198 541.256 288.387 540.937 287.463 540.903L277.423 540.918C276.708 540.912 275.982 540.516 275.995 539.363C275.979 538.144 276.748 537.73 277.463 537.736L287.503 537.721C288.494 537.726 289.292 537.379 289.898 536.68C290.552 536 290.853 535.237 290.867 534.36L290.841 523.929L272.237 523.989C271.294 524.004 270.662 523.369 270.666 522.378C270.652 521.435 271.287 520.803 272.278 520.807L289.843 520.724C290.948 520.719 291.902 521.095 292.688 521.9C293.473 522.706 293.878 523.637 293.865 524.79L293.923 534.02C293.919 535.011 293.753 535.993 293.433 536.804C293.151 537.52 292.555 538.333 291.712 539.214C292.584 540.219 293.189 541.064 293.507 541.796C293.883 542.66 294.116 543.469 294.091 544.231L294.123 553.947C294.129 555.052 293.687 556.036 292.881 556.821C292.038 557.702 291.106 558.107 289.954 558.094ZM272.4 556.748C272.4 556.748 272.448 556.767 272.514 556.738L289.965 556.665C290.403 556.672 290.832 556.565 291.183 556.373L272.579 556.433C272.465 556.443 272.417 556.424 272.398 556.472C272.398 556.472 272.38 556.519 272.409 556.586C272.371 556.681 272.419 556.7 272.4 556.748ZM277.396 539.585L287.437 539.57C288.818 539.563 289.945 540.062 290.883 541.038C291.774 541.995 292.266 543.126 292.282 544.345L292.34 555.395C292.605 555.003 292.726 554.555 292.704 554.05L292.672 544.334C292.669 543.781 292.542 543.125 292.205 542.441C291.868 541.757 291.235 540.845 290.172 539.765L289.664 539.234L290.195 538.727C291.2 537.854 291.843 537.06 292.107 536.392C292.37 535.724 292.509 534.952 292.504 534.123L292.446 524.893C292.435 524.502 292.375 524.093 292.231 523.76L292.277 534.419C292.293 535.639 291.794 536.765 290.914 537.742C289.985 538.699 288.854 539.191 287.473 539.198L277.433 539.213C277.385 539.194 277.385 539.194 277.366 539.242C277.366 539.242 277.328 539.337 277.339 539.451C277.415 539.537 277.415 539.537 277.396 539.585ZM272.116 522.618C272.116 522.618 272.163 522.637 272.23 522.608L291.158 522.566C290.747 522.349 290.346 522.246 289.86 522.22L272.295 522.303C272.181 522.313 272.133 522.294 272.114 522.342C272.114 522.342 272.095 522.39 272.124 522.456C272.087 522.552 272.116 522.618 272.116 522.618Z" fill="white"/>
<path d="M319.771 556.443C319.774 556.995 319.499 557.273 318.946 557.276C318.442 557.298 318.164 557.023 318.18 556.423L318.126 544.382L303.161 544.442L303.093 522.361C303.072 522.133 303.214 521.913 303.403 521.712C303.641 521.53 303.84 521.443 304.116 521.441C304.326 521.469 304.517 521.544 304.67 521.715C304.824 521.885 304.892 522.133 304.922 522.475L305.009 542.689L318.155 542.629L318.089 526.559C318.086 526.007 318.361 525.729 318.866 525.707C319.076 525.735 319.267 525.81 319.439 525.933C319.592 526.104 319.726 526.322 319.699 526.532L319.765 542.602C320.431 542.589 320.965 542.633 321.337 542.67C321.708 542.706 321.947 542.8 322.071 542.904C322.196 543.008 322.272 543.093 322.283 543.208C322.293 543.322 322.274 543.37 322.303 543.436C322.314 543.827 322.22 544.065 322.021 544.152C321.802 544.287 321.46 544.317 321.003 544.357L319.783 544.373L319.771 556.443Z" fill="white"/>
<path d="M318.941 557.99C317.998 558.005 317.461 557.407 317.446 556.464L317.435 545.157L302.47 545.217L302.407 522.422C302.424 522.098 302.498 521.631 302.991 521.218C303.333 520.912 303.713 520.786 304.151 520.793C304.427 520.792 304.828 520.894 305.23 521.273C305.489 521.596 305.663 521.995 305.637 522.481L305.73 541.98L317.494 541.927L317.423 526.572C317.408 525.629 317.976 525.026 318.919 525.012C319.31 525 319.644 525.132 319.969 525.425C320.295 525.719 320.468 526.118 320.461 526.556L320.533 541.911C320.923 541.9 321.228 541.965 321.486 542.011C321.953 542.085 322.287 542.217 322.554 542.377C322.994 542.661 323.072 543.022 323.092 543.251L323.113 543.479C323.136 544.26 322.776 544.615 322.472 544.826C322.168 545.037 321.693 545.125 321.092 545.109L320.588 545.131L320.599 556.438C320.5 557.391 319.931 557.994 318.941 557.99ZM318.886 556.59C318.933 556.609 319.048 556.599 319.066 556.551C319.066 556.551 319.085 556.503 319.056 556.437L318.989 543.73L320.923 543.719C321.266 543.689 321.428 543.698 321.542 543.688C321.542 543.688 321.561 543.64 321.532 543.573C321.484 543.554 321.341 543.498 321.179 543.489C320.874 543.424 320.388 543.398 319.721 543.411L319.007 543.406L318.995 526.64C319.013 526.592 319.014 526.592 318.966 526.574C318.841 526.469 318.823 526.517 318.823 526.517C318.823 526.517 318.804 526.565 318.833 526.631L318.892 543.416L304.27 543.445L304.189 522.517C304.179 522.403 304.169 522.289 304.14 522.222C304.092 522.203 304.044 522.184 303.892 522.29C303.826 522.319 303.807 522.367 303.807 522.367L303.881 543.733L318.846 543.673L318.913 556.38C318.857 556.523 318.904 556.542 318.886 556.59Z" fill="white"/>
<path d="M391.734 553.748C391.748 554.691 391.4 555.436 390.746 556.116C390.111 556.748 389.313 557.095 388.389 557.062L376.901 557.113C375.91 557.108 374.995 556.913 374.269 556.517L370.583 554.955C370.249 554.823 370.019 554.567 370.027 554.129C370.024 553.577 370.251 553.28 370.755 553.258C371.032 553.257 371.414 553.407 371.824 553.624L374.889 554.942C375.748 555.28 376.406 555.429 376.911 555.407L389.99 555.377L389.937 539.974L374.973 540.033L374.921 521.268L390.715 521.204C390.943 521.183 391.163 521.325 391.317 521.496C391.47 521.666 391.538 521.914 391.577 522.095C391.568 522.257 391.493 522.447 391.418 522.638C391.276 522.858 391.077 522.945 390.753 522.928L376.617 522.983L376.659 538.272L388.309 538.23C389.137 538.225 389.949 538.545 390.61 539.246C391.29 539.9 391.637 540.698 391.651 541.641L391.734 553.748Z" fill="white"/>
<path d="M388.431 557.795L376.943 557.846C375.838 557.852 374.827 557.619 373.958 557.166L370.32 555.623C369.729 555.445 369.354 554.857 369.36 554.142C369.373 552.99 370.094 552.557 370.809 552.563C371.199 552.551 371.696 552.692 372.231 553.013L375.248 554.311C376.155 554.669 376.688 554.713 376.964 554.712L389.329 554.676L389.265 540.701L374.319 540.713L374.232 520.5L390.74 520.442C391.178 520.449 391.607 520.618 391.895 521.007C392.154 521.33 392.28 521.71 392.31 522.053C392.312 522.329 392.228 522.682 392.001 522.978C391.859 523.198 391.528 523.619 390.747 523.642L377.325 523.703L377.379 537.563L388.315 537.515C389.353 537.538 390.308 537.914 391.093 538.72C391.926 539.544 392.331 540.476 392.337 541.581L392.353 553.717C392.359 554.822 391.983 555.776 391.177 556.561C390.534 557.356 389.555 557.742 388.431 557.795ZM370.797 553.992C370.779 554.04 370.779 554.04 370.789 554.154C370.799 554.268 370.828 554.335 370.828 554.335L370.923 554.372L374.608 555.934C375.335 556.33 376.107 556.469 376.983 556.484L388.471 556.433C388.909 556.44 389.29 556.314 389.67 556.188L377.03 556.226C376.477 556.229 375.724 556.043 374.798 555.733L371.685 554.397C371.074 553.99 370.864 553.963 370.797 553.992ZM390.692 540.437L390.778 554.916C390.976 554.553 391.012 554.181 391.02 553.743L391.003 541.607C390.963 541.15 390.885 540.788 390.692 540.437ZM375.759 539.296L389.571 539.223C389.208 539.025 388.808 538.922 388.37 538.915L376.005 538.952L375.956 522.282L390.806 522.232C390.854 522.251 390.873 522.203 390.873 522.203C390.91 522.108 390.929 522.06 390.929 522.06C390.929 522.06 390.9 521.994 390.824 521.908L375.697 521.959L375.759 539.296Z" fill="white"/>
<path d="M424.344 556.063C424.316 556.272 424.241 556.463 424.07 556.616C423.881 556.817 423.681 556.904 423.519 556.896L403.649 556.953C403.048 556.937 402.723 556.643 402.739 556.043L402.617 521.922C402.644 521.712 402.719 521.521 402.842 521.349C403.013 521.196 403.231 521.061 403.555 521.079L405.975 521.094C406.299 521.112 406.519 521.253 406.682 521.538C406.845 521.823 406.913 522.071 406.886 522.28C406.877 522.442 406.773 522.567 406.555 522.701C406.336 522.836 405.813 522.905 405.003 522.862L404.336 522.875L404.41 542.422L423.5 542.388C423.662 542.396 423.853 542.472 424.006 542.642C424.207 542.832 424.275 543.079 424.258 543.403L424.344 556.063ZM422.634 555.224L422.595 544.126L404.382 544.174L404.421 555.272L422.634 555.224Z" fill="white"/>
<path d="M423.495 557.658L403.624 557.715C402.633 557.711 402.001 557.076 402.006 556.085L401.883 521.964C401.872 521.573 402.003 521.239 402.297 520.914C402.505 520.665 402.875 520.425 403.542 520.412L405.962 520.428C406.562 520.444 407.002 520.727 407.3 521.23C407.473 521.63 407.57 521.943 407.6 522.286C407.621 522.515 407.48 523.011 406.911 523.338C406.692 523.472 406.264 523.579 405.093 523.614L405.16 541.78L423.535 541.74C423.878 541.71 424.241 541.908 424.566 542.201C424.815 542.41 425.036 542.828 425.068 543.447L425.087 556.135C425.088 556.411 424.986 556.812 424.607 557.214C424.199 557.549 423.771 557.657 423.495 557.658ZM403.474 556.277C403.474 556.277 403.521 556.296 403.635 556.286L423.506 556.229C423.506 556.229 423.506 556.229 423.592 556.152C423.61 556.105 423.677 556.076 423.677 556.076L423.639 543.435C423.629 543.321 423.619 543.207 423.571 543.188C423.523 543.169 423.542 543.121 423.494 543.102L403.786 543.168L403.723 522.192L405.104 522.185C405.771 522.172 406.114 522.142 406.228 522.132C406.199 522.065 406.17 521.998 406.141 521.932L403.674 521.897C403.559 521.907 403.493 521.936 403.493 521.936C403.474 521.984 403.408 522.013 403.455 522.032L403.578 556.153C403.445 556.211 403.474 556.277 403.474 556.277ZM423.343 555.944L403.682 556.028L403.654 543.502L423.315 543.418L423.343 555.944ZM405.122 554.611L421.907 554.551L421.856 544.883L405.071 544.943L405.122 554.611Z" fill="white"/>
<path d="M438.87 555.996C438.854 556.597 438.579 556.874 438.027 556.877C437.751 556.879 437.512 556.785 437.311 556.595C437.11 556.406 437.023 556.206 437.069 555.949L437.004 543.518C437.011 543.079 437.143 542.745 437.38 542.563L447.082 534.31L447.021 522.708L429.198 522.745C428.945 523.527 428.767 524.119 428.606 524.386C428.446 524.654 428.227 524.788 427.999 524.809C427.399 524.793 427.121 524.518 427.118 523.965L427.098 521.918C427.078 521.689 427.219 521.469 427.409 521.268C427.598 521.067 427.846 520.999 428.074 520.979L448.802 520.984L448.855 534.568C448.856 534.844 448.743 535.13 448.516 535.427L438.881 543.651L438.87 555.996Z" fill="white"/>
<path d="M438.069 557.611C437.631 557.603 437.201 557.434 436.876 557.141C436.55 556.847 436.377 556.448 436.384 556.01L436.319 543.579C436.306 542.912 436.512 542.387 436.92 542.051L446.366 534.029L446.329 523.484L429.774 523.523C429.596 524.115 429.427 524.544 429.266 524.812C428.889 525.49 428.346 525.607 428.07 525.609C427.079 525.604 426.428 525.017 426.48 524.045L426.46 521.997C426.467 521.559 426.637 521.13 426.978 520.823C427.319 520.516 427.7 520.391 428.09 520.379L449.504 520.323L449.551 534.622C449.543 535.06 449.355 535.537 449.024 535.958L448.939 536.035L439.541 544.076L439.566 556.05C439.599 556.945 439.012 557.596 438.069 557.611ZM428.68 522.1L447.722 522.047L447.76 534.688L437.869 543.142C437.784 543.219 437.775 543.381 437.766 543.543L437.832 555.973C437.813 556.021 437.861 556.04 437.89 556.107C437.937 556.125 437.966 556.192 438.081 556.182C438.128 556.201 438.195 556.172 438.195 556.172C438.195 556.172 438.214 556.124 438.203 556.01L438.166 543.369L447.99 534.944C448.075 534.867 448.132 534.724 448.122 534.61L448.063 521.741L428.097 521.76C428.05 521.741 427.983 521.77 427.898 521.847C427.812 521.924 427.812 521.924 427.86 521.942L427.88 523.99C427.862 524.038 427.891 524.105 427.891 524.105C427.891 524.105 427.938 524.123 428.005 524.094L428.024 524.047C428.08 523.904 428.278 523.541 428.559 522.548L428.68 522.1Z" fill="white"/>
<path d="M478.303 553.445C478.318 554.388 477.969 555.133 477.268 555.794C476.566 556.455 475.787 556.755 474.91 556.74L459.946 556.8C459.003 556.814 458.239 556.514 457.559 555.86C456.879 555.206 456.58 554.427 456.547 553.531L456.502 541.329C456.49 540.938 456.574 540.586 456.658 540.233C456.76 539.832 456.959 539.469 457.3 539.162C457.66 538.808 458.144 538.558 458.791 538.316C459.437 538.075 460.352 537.994 461.523 537.959L461.476 521.841C461.473 521.289 461.748 521.011 462.367 520.979L472.312 520.927C472.54 520.907 472.76 521.049 472.961 521.238C473.162 521.427 473.23 521.675 473.251 521.903L473.316 537.973C474.373 537.949 475.212 538.058 475.852 538.255C476.491 538.452 476.997 538.706 477.37 539.019C477.743 539.331 477.983 539.701 478.043 540.111C478.15 540.539 478.209 540.948 478.173 541.32L478.303 553.445ZM476.626 555.045L476.573 539.642L458.293 539.719L458.346 555.122L476.626 555.045ZM471.563 537.944L471.521 522.655L463.186 522.68L463.228 537.969L471.563 537.944Z" fill="white"/>
<path d="M474.952 557.474L459.987 557.533C458.882 557.539 457.88 557.144 457.076 556.387C456.272 555.629 455.838 554.631 455.832 553.526L455.787 541.323C455.794 540.885 455.849 540.466 455.971 540.017C456.111 539.521 456.413 539.034 456.811 538.584C457.256 538.153 457.826 537.826 458.587 537.575C459.167 537.362 459.919 537.272 460.833 537.191L460.781 521.788C460.766 520.845 461.401 520.213 462.392 520.217L472.336 520.165C472.775 520.172 473.204 520.342 473.511 520.683C473.817 521.024 473.943 521.405 473.955 521.795L474.026 537.15C474.836 537.194 475.513 537.295 476.057 537.454C476.791 537.688 477.393 537.981 477.843 538.378C478.34 538.795 478.638 539.298 478.756 539.84C478.844 540.316 478.932 540.792 478.925 541.23L478.941 553.366C478.947 554.471 478.504 555.455 477.699 556.24C476.941 557.044 476.01 557.449 474.952 557.474ZM458.778 555.844C459.141 556.042 459.561 556.097 459.999 556.105L474.964 556.045C475.402 556.052 475.764 555.974 476.115 555.782L458.778 555.844ZM457.551 539.923C457.447 540.048 457.391 540.191 457.335 540.334C457.269 540.639 457.204 540.944 457.187 541.268L457.232 553.471C457.206 553.957 457.313 554.385 457.553 554.755L457.551 539.923ZM477.289 539.924L477.366 554.565C477.564 554.202 477.648 553.849 477.655 553.411L477.639 541.275C477.656 540.951 477.578 540.59 477.5 540.228C477.376 540.124 477.347 540.057 477.289 539.924ZM459.018 554.395L475.917 554.325L475.853 540.351L459.002 540.44L459.018 554.395ZM458.785 539.031L475.846 538.97C475.798 538.951 475.75 538.932 475.655 538.895C475.063 538.717 474.32 538.644 473.329 538.64L472.615 538.634L472.555 521.85C472.574 521.802 472.545 521.736 472.468 521.65C472.391 521.565 472.391 521.565 472.373 521.613L462.428 521.665C462.314 521.675 462.266 521.657 462.247 521.704C462.247 521.704 462.228 521.752 462.257 521.819L462.298 538.651L461.584 538.645C460.479 538.651 459.66 538.769 459.032 538.963C458.985 538.944 458.918 538.973 458.785 539.031ZM472.272 538.665L462.508 538.678L462.458 522.008L472.222 521.995L472.272 538.665ZM463.901 537.242L470.807 537.205L470.753 523.346L463.847 523.382L463.901 537.242Z" fill="white"/>
<path d="M528.069 555.736C528.072 556.289 527.797 556.567 527.292 556.588L524.759 556.583C524.435 556.565 524.196 556.471 524.109 556.272C523.975 556.053 523.936 555.872 523.944 555.711C524.001 555.567 524.057 555.424 524.095 555.329C524.132 555.233 524.17 555.138 524.303 555.08C524.436 555.022 524.617 554.983 524.96 554.953C525.302 554.922 525.741 554.929 526.407 554.916L526.323 535.255L507.329 535.327C507.052 535.328 506.814 535.234 506.679 535.016C506.526 534.845 506.458 534.598 506.438 534.369L506.419 521.681C506.417 521.405 506.511 521.166 506.73 521.032C506.9 520.878 507.148 520.81 507.376 520.79L527.247 520.733C527.409 520.742 527.6 520.817 527.753 520.988C527.906 521.158 528.041 521.377 528.042 521.653L528.069 555.736ZM526.371 533.455L526.341 522.472L508.062 522.549L508.091 533.532L526.371 533.455Z" fill="white"/>
<path d="M527.287 557.303L524.753 557.297C523.972 557.321 523.607 556.846 523.473 556.628C523.28 556.276 523.212 556.029 523.23 555.705L523.238 555.543L523.295 555.4C523.351 555.257 523.389 555.161 523.389 555.161C523.454 554.856 523.662 554.607 523.966 554.396C524.166 554.309 524.479 554.212 524.918 554.22C525.146 554.199 525.375 554.179 525.699 554.197L525.621 535.917L507.294 535.975C506.789 535.997 506.379 535.78 506.091 535.391C505.832 535.068 505.706 534.688 505.694 534.297L505.675 521.609C505.654 521.104 505.87 520.694 506.26 520.406C506.582 520.147 506.962 520.021 507.353 520.009L527.224 519.952C527.548 519.97 527.882 520.101 528.207 520.395C528.456 520.603 528.696 520.974 528.728 521.593L528.831 555.761C528.75 556.667 528.182 557.27 527.287 557.303ZM524.65 555.879L524.698 555.897L527.232 555.903C527.279 555.922 527.279 555.922 527.298 555.874C527.298 555.874 527.317 555.826 527.288 555.76L527.203 521.543C527.193 521.429 527.193 521.429 527.146 521.41C527.069 521.325 527.069 521.325 527.069 521.325L507.294 521.42C507.246 521.401 507.179 521.43 507.094 521.506C507.094 521.506 507.075 521.554 507.056 521.602L507.076 534.29C507.057 534.338 507.086 534.404 507.162 534.49C507.162 534.49 507.21 534.509 507.258 534.527L526.967 534.462L527.039 555.552L526.325 555.546C525.706 555.578 525.22 555.552 524.925 555.601C524.811 555.611 524.696 555.621 524.63 555.65C524.611 555.698 524.611 555.698 524.592 555.746C524.621 555.812 524.669 555.831 524.65 555.879ZM527.079 534.175L507.371 534.241L507.353 521.829L527.062 521.763L527.079 534.175ZM508.763 532.805L525.662 532.735L525.621 523.181L508.723 523.251L508.763 532.805Z" fill="white"/>
<path d="M560.768 553.345C560.773 554.174 560.491 554.89 559.856 555.522C559.269 556.173 558.489 556.472 557.546 556.487L542.191 556.558C541.248 556.573 540.503 556.224 539.89 555.541C539.277 554.859 539.006 554.146 538.983 553.365L538.875 523.826C538.871 522.997 539.2 522.3 539.835 521.668C540.47 521.036 541.202 520.717 542.05 520.665L557.5 520.632C558.281 520.609 558.979 520.938 559.611 521.573C560.243 522.208 560.561 522.94 560.584 523.721L560.768 553.345ZM559.147 554.802L559.044 522.453L540.716 522.511L540.82 554.86L559.147 554.802Z" fill="white"/>
<path d="M557.54 557.201L542.251 557.244C541.147 557.249 540.163 556.807 539.425 556.02C538.688 555.233 538.33 554.321 538.335 553.33L538.227 523.791C538.231 522.8 538.589 521.893 539.394 521.108C540.152 520.304 541.083 519.899 542.122 519.922L557.573 519.888C558.516 519.874 559.404 520.279 560.208 521.037C560.993 521.842 561.369 522.707 561.413 523.717L561.502 553.303C561.497 554.294 561.14 555.201 560.401 555.957C559.643 556.762 558.712 557.167 557.54 557.201ZM541.09 555.573C541.405 555.753 541.806 555.855 542.244 555.862L557.6 555.791C558.038 555.798 558.418 555.673 558.751 555.528L541.09 555.573ZM539.926 522.696C539.728 523.059 539.578 523.441 539.589 523.831L539.697 553.371C539.69 553.809 539.816 554.189 540.056 554.559L539.926 522.696ZM559.722 522.83L559.84 554.303C559.953 554.017 560.037 553.664 560.054 553.34L559.965 523.753C559.935 523.41 559.885 523.115 559.722 522.83ZM541.492 554.133L558.438 554.082L558.323 523.161L541.377 523.212L541.492 554.133ZM540.836 521.786L558.725 521.721C558.333 521.456 557.952 521.306 557.561 521.317L542.11 521.351C541.653 521.391 541.225 521.498 540.836 521.786Z" fill="white"/>
<path d="M593.225 555.489C593.228 556.042 592.953 556.319 592.334 556.351L572.397 556.437C571.844 556.44 571.567 556.165 571.535 555.546C571.513 555.041 571.788 554.764 572.388 554.779L581.552 554.75L581.419 522.334L572.37 522.353C571.77 522.338 571.444 522.044 571.46 521.444C571.457 520.891 571.799 520.585 572.399 520.601L583.153 520.592L583.257 554.76L591.478 554.746L591.434 542.82C591.462 542.61 591.537 542.419 591.707 542.266C591.878 542.112 592.078 542.026 592.306 542.005C592.516 542.033 592.707 542.108 592.86 542.279C593.061 542.468 593.148 542.668 593.102 542.925L593.225 555.489Z" fill="white"/>
<path d="M592.328 557.065L572.391 557.151C571.448 557.166 570.816 556.531 570.82 555.54C570.806 554.597 571.403 554.06 572.346 554.046L580.795 554.011L580.699 523.043L572.364 523.068C571.373 523.063 570.741 522.428 570.746 521.438C570.731 520.495 571.366 519.863 572.405 519.886L583.893 519.835L583.996 554.004L590.788 553.977L590.757 542.718C590.756 542.442 590.858 542.041 591.237 541.639C591.56 541.38 591.893 541.236 592.283 541.224C592.559 541.223 592.96 541.325 593.362 541.704C593.687 541.998 593.861 542.397 593.854 542.835L593.873 555.524C593.935 556.485 593.319 557.07 592.328 557.065ZM572.307 555.685C572.307 555.685 572.355 555.703 572.421 555.674L592.359 555.589C592.473 555.578 592.521 555.597 592.539 555.55C592.539 555.55 592.558 555.502 592.529 555.435L592.51 542.747C592.529 542.699 592.481 542.68 592.452 542.614C592.423 542.547 592.376 542.529 592.376 542.529C592.376 542.529 592.309 542.557 592.29 542.605L592.309 555.294L582.707 555.316L582.604 521.147L572.564 521.161C572.402 521.153 572.335 521.182 572.335 521.182C572.335 521.182 572.316 521.229 572.345 521.296C572.355 521.41 572.384 521.477 572.384 521.477C572.384 521.477 572.432 521.496 572.546 521.485L582.31 521.472L582.431 555.317L572.553 555.34C572.505 555.322 572.439 555.35 572.439 555.35L572.42 555.398C572.278 555.618 572.307 555.685 572.307 555.685Z" fill="white"/>
<path d="M624.303 554.554C624.465 554.563 624.656 554.638 624.809 554.809C624.962 554.979 625.097 555.198 625.098 555.474C625.12 555.979 624.845 556.257 624.293 556.259L603.365 556.341L603.302 540.824C603.288 539.881 603.655 539.088 604.29 538.456C604.944 537.776 605.742 537.429 606.666 537.462L623.336 537.413L623.275 522.172L603.957 522.226C603.357 522.21 603.031 521.916 603.047 521.316C603.056 521.154 603.131 520.963 603.321 520.762C603.51 520.561 603.71 520.474 603.986 520.473L621.599 520.409C622.542 520.394 623.287 520.743 623.966 521.396C624.599 522.031 624.946 522.83 624.96 523.773L625.004 535.699C625.018 536.642 624.68 537.501 624.045 538.133C623.391 538.813 622.612 539.112 621.716 539.145L605.046 539.195L605.099 554.598L624.303 554.554Z" fill="white"/>
<path d="M624.354 556.945L602.711 557.021L602.654 540.789C602.649 539.684 603.043 538.682 603.849 537.896C604.655 537.111 605.605 536.658 606.757 536.671L622.713 536.616L622.688 522.823L604.084 522.882C603.094 522.878 602.462 522.243 602.466 521.252C602.483 520.929 602.615 520.594 602.927 520.221C603.24 519.848 603.687 519.693 604.144 519.653L621.757 519.589C622.862 519.583 623.864 519.978 624.649 520.783C625.435 521.589 625.821 522.568 625.827 523.673L625.87 535.599C625.857 536.752 625.462 537.754 624.705 538.558C623.947 539.362 622.949 539.796 621.844 539.802L605.888 539.858L605.952 553.832L624.442 553.782C624.766 553.799 625.1 553.931 625.425 554.225C625.674 554.433 625.914 554.803 625.946 555.422C625.846 556.375 625.23 556.96 624.354 556.945ZM604.104 555.585L624.365 555.516C624.413 555.535 624.413 555.535 624.432 555.487L624.45 555.439C624.44 555.325 624.44 555.325 624.393 555.306C624.345 555.288 624.297 555.269 624.316 555.221L604.445 555.278L604.4 539.437C604.183 539.847 604.08 540.248 604.054 540.734L604.104 555.585ZM605.31 538.527L621.704 538.479C622.208 538.457 622.684 538.369 623.073 538.081L606.679 538.129C606.193 538.103 605.747 538.258 605.31 538.527ZM624.001 522.568L624.058 536.98C624.256 536.617 624.311 536.198 624.337 535.712L624.294 523.786C624.301 523.348 624.194 522.92 624.001 522.568ZM603.801 521.503C603.801 521.503 603.849 521.521 603.963 521.511L622.909 521.421C622.546 521.223 622.098 521.102 621.66 521.094L604.047 521.158C603.932 521.169 603.932 521.169 603.866 521.197C603.781 521.274 603.762 521.322 603.762 521.322C603.772 521.436 603.82 521.455 603.801 521.503Z" fill="white"/>
<path d="M696.433 552.698C696.447 553.641 696.098 554.386 695.397 555.047C694.696 555.708 693.916 556.007 692.973 556.022L675.522 556.094C674.97 556.097 674.692 555.823 674.689 555.27C674.686 554.718 674.961 554.44 675.58 554.408L694.574 554.337L694.533 542.963C694.509 541.906 694.151 540.993 693.337 540.121C692.571 539.268 691.568 538.873 690.416 538.86L680.471 538.912C679.985 538.886 679.755 538.63 679.752 538.078C679.768 537.478 679.995 537.181 680.547 537.178L690.588 537.163C691.74 537.176 692.738 536.743 693.515 535.891C694.292 535.039 694.696 534.151 694.672 533.093L694.651 521.948L675.333 522.002C674.781 522.005 674.503 521.73 674.471 521.111C674.468 520.559 674.743 520.281 675.362 520.249L692.927 520.166C693.87 520.152 694.615 520.501 695.295 521.154C695.927 521.789 696.274 522.588 696.27 523.578L696.328 532.809C696.342 533.751 696.185 534.572 695.884 535.335C695.583 536.099 694.902 536.988 693.811 537.937C694.903 539.084 695.614 540.081 695.979 540.831C696.345 541.582 696.502 542.305 696.496 543.019L696.433 552.698Z" fill="white"/>
<path d="M693.034 556.708L675.583 556.78C674.64 556.795 674.056 556.179 674.041 555.236C674.027 554.293 674.662 553.661 675.652 553.665L693.98 553.607L693.933 542.947C693.948 542.071 693.582 541.32 692.94 540.571C692.279 539.87 691.467 539.55 690.543 539.517L680.503 539.532C679.788 539.526 679.062 539.13 679.075 537.977C679.059 536.758 679.829 536.344 680.543 536.35L690.583 536.335C691.574 536.339 692.373 535.992 692.978 535.294C693.632 534.614 693.933 533.85 693.947 532.974L693.921 522.543L675.317 522.603C674.374 522.617 673.742 521.982 673.747 520.992C673.732 520.049 674.367 519.417 675.358 519.421L692.923 519.338C694.028 519.332 694.983 519.708 695.768 520.514C696.553 521.319 696.958 522.251 696.945 523.404L697.003 532.634C696.999 533.625 696.833 534.607 696.513 535.418C696.231 536.134 695.635 536.947 694.792 537.828C695.664 538.833 696.269 539.677 696.587 540.409C696.963 541.274 697.196 542.083 697.171 542.845L697.204 552.561C697.209 553.666 696.767 554.649 695.961 555.435C695.118 556.316 694.139 556.702 693.034 556.708ZM675.48 555.362C675.48 555.362 675.528 555.38 675.595 555.351L693.046 555.279C693.484 555.286 693.912 555.179 694.263 554.986L675.66 555.046C675.545 555.056 675.498 555.038 675.479 555.085C675.479 555.085 675.46 555.133 675.489 555.2C675.451 555.295 675.432 555.343 675.48 555.362ZM680.477 538.198L690.517 538.183C691.898 538.176 693.025 538.675 693.964 539.651C694.854 540.609 695.346 541.74 695.362 542.959L695.42 554.009C695.685 553.617 695.806 553.168 695.785 552.664L695.753 542.947C695.75 542.395 695.623 541.738 695.286 541.054C694.949 540.37 694.315 539.459 693.252 538.379L692.744 537.848L693.275 537.34C694.28 536.468 694.924 535.674 695.187 535.006C695.45 534.338 695.589 533.565 695.585 532.737L695.527 523.506C695.515 523.116 695.456 522.707 695.311 522.374L695.358 533.033C695.374 534.252 694.875 535.379 693.994 536.355C693.065 537.313 691.934 537.804 690.553 537.812L680.513 537.826C680.465 537.808 680.465 537.808 680.446 537.855C680.446 537.855 680.409 537.951 680.419 538.065C680.448 538.132 680.429 538.179 680.477 538.198ZM675.196 521.232C675.196 521.232 675.244 521.251 675.31 521.222L694.238 521.179C693.827 520.962 693.426 520.86 692.941 520.834L675.375 520.917C675.261 520.927 675.213 520.908 675.194 520.956C675.194 520.956 675.176 521.003 675.205 521.07C675.167 521.165 675.148 521.213 675.196 521.232C675.177 521.28 675.177 521.28 675.196 521.232Z" fill="white"/>
<path d="M722.851 555.054C722.854 555.607 722.579 555.884 722.026 555.887C721.522 555.909 721.244 555.634 721.26 555.034L721.206 542.994L706.241 543.053L706.173 520.973C706.152 520.744 706.294 520.524 706.484 520.323C706.721 520.141 706.92 520.054 707.197 520.053C707.406 520.08 707.597 520.156 707.75 520.326C707.904 520.497 707.972 520.744 708.002 521.087L708.089 541.3L721.235 541.241L721.169 525.171C721.166 524.618 721.441 524.341 721.946 524.319C722.156 524.347 722.347 524.422 722.519 524.545C722.672 524.715 722.807 524.934 722.779 525.143L722.845 541.213C723.511 541.2 724.045 541.245 724.417 541.281C724.788 541.317 725.027 541.411 725.151 541.515C725.276 541.62 725.352 541.705 725.363 541.819C725.373 541.933 725.354 541.981 725.383 542.048C725.394 542.438 725.3 542.677 725.101 542.764C724.882 542.898 724.54 542.928 724.083 542.969L722.863 542.985L722.851 555.054Z" fill="white"/>
<path d="M722.002 556.65C721.059 556.664 720.522 556.067 720.508 555.124L720.496 543.817L705.531 543.877L705.468 521.082C705.486 520.758 705.559 520.29 706.053 519.878C706.394 519.572 706.774 519.446 707.212 519.453C707.489 519.451 707.889 519.554 708.291 519.933C708.55 520.256 708.724 520.655 708.698 521.141L708.791 540.64L720.555 540.587L720.484 525.232C720.469 524.289 721.038 523.686 721.981 523.671C722.371 523.66 722.705 523.791 723.031 524.085C723.356 524.379 723.53 524.778 723.523 525.216L723.594 540.571C723.984 540.56 724.289 540.625 724.547 540.671C725.014 540.745 725.348 540.877 725.616 541.037C726.055 541.321 726.134 541.682 726.154 541.911L726.174 542.139C726.197 542.92 725.837 543.274 725.533 543.486C725.23 543.697 724.754 543.785 724.154 543.769L723.649 543.791L723.661 555.098C723.58 556.003 722.945 556.635 722.002 556.65ZM721.966 555.202C722.013 555.221 722.128 555.211 722.146 555.163C722.146 555.163 722.165 555.115 722.136 555.049L722.069 542.342L724.003 542.332C724.346 542.301 724.508 542.31 724.622 542.3C724.622 542.3 724.641 542.252 724.612 542.185C724.564 542.167 724.421 542.11 724.259 542.102C723.954 542.036 723.468 542.01 722.801 542.024L722.087 542.018L722.027 525.233C722.046 525.186 722.046 525.186 721.998 525.167C721.874 525.063 721.855 525.111 721.855 525.111C721.855 525.111 721.836 525.158 721.865 525.225L721.925 542.009L707.35 542.057L707.269 521.129C707.259 521.015 707.249 520.901 707.22 520.834C707.172 520.815 707.124 520.797 706.972 520.902C706.906 520.931 706.887 520.979 706.887 520.979L706.961 542.345L721.926 542.285L721.993 554.992C721.937 555.136 721.918 555.183 721.966 555.202Z" fill="white"/>
<path d="M756.178 552.469C756.192 553.412 755.844 554.157 755.19 554.837C754.555 555.469 753.757 555.816 752.832 555.783L741.344 555.834C740.354 555.829 739.438 555.634 738.712 555.238L735.027 553.676C734.693 553.544 734.463 553.288 734.47 552.85C734.467 552.298 734.694 552.001 735.199 551.979C735.475 551.978 735.857 552.128 736.268 552.345L739.333 553.663C740.192 554.001 740.85 554.15 741.355 554.128L754.433 554.098L754.381 538.695L739.416 538.754L739.365 519.989L755.159 519.925C755.387 519.904 755.607 520.046 755.76 520.217C755.914 520.387 755.982 520.635 756.021 520.816C756.012 520.978 755.937 521.168 755.861 521.359C755.72 521.579 755.52 521.666 755.196 521.649L741.06 521.704L741.102 536.993L752.752 536.95C753.581 536.946 754.392 537.266 755.053 537.967C755.733 538.621 756.08 539.419 756.095 540.362L756.178 552.469Z" fill="white"/>
<path d="M752.874 556.516L741.386 556.567C740.281 556.573 739.27 556.34 738.401 555.887L734.764 554.344C734.172 554.166 733.798 553.578 733.803 552.863C733.816 551.71 734.538 551.278 735.253 551.284C735.643 551.272 736.139 551.412 736.674 551.733L739.691 553.032C740.598 553.389 741.132 553.434 741.408 553.433L753.772 553.396L753.708 539.422L738.744 539.482L738.656 519.268L755.164 519.21C755.603 519.217 756.032 519.387 756.32 519.776C756.579 520.098 756.705 520.478 756.735 520.821C756.737 521.097 756.653 521.45 756.426 521.747C756.284 521.967 755.953 522.388 755.172 522.411L741.75 522.472L741.804 536.332L752.739 536.284C753.778 536.307 754.732 536.683 755.518 537.488C756.351 538.313 756.756 539.244 756.762 540.349L756.778 552.485C756.784 553.59 756.408 554.545 755.602 555.33C754.911 556.105 753.979 556.51 752.874 556.516ZM735.193 552.694C735.174 552.742 735.174 552.742 735.185 552.856C735.195 552.97 735.224 553.037 735.224 553.037L735.319 553.074L739.004 554.636C739.73 555.032 740.503 555.171 741.379 555.186L752.867 555.135C753.305 555.142 753.686 555.016 754.066 554.89L741.425 554.928C740.873 554.931 740.119 554.745 739.194 554.435L736.081 553.099C735.498 552.759 735.289 552.731 735.193 552.694ZM755.117 539.205L755.155 553.665C755.353 553.302 755.389 552.93 755.397 552.492L755.38 540.356C755.388 539.918 755.31 539.557 755.117 539.205ZM740.136 538.046L753.949 537.973C753.585 537.775 753.185 537.672 752.747 537.665L740.382 537.701L740.333 521.031L755.183 520.982C755.231 521.001 755.25 520.953 755.25 520.953C755.287 520.857 755.306 520.81 755.306 520.81C755.306 520.81 755.277 520.743 755.201 520.658L740.026 520.69L740.136 538.046Z" fill="white"/>
<path d="M788.769 554.832C788.741 555.041 788.666 555.232 788.495 555.386C788.306 555.587 788.106 555.673 787.944 555.665L768.074 555.722C767.473 555.706 767.148 555.412 767.164 554.812L767.041 520.691C767.069 520.481 767.144 520.29 767.267 520.118C767.438 519.965 767.656 519.83 767.98 519.848L770.4 519.864C770.724 519.881 770.944 520.023 771.107 520.308C771.27 520.592 771.338 520.84 771.311 521.05C771.302 521.211 771.198 521.336 770.98 521.47C770.761 521.605 770.238 521.674 769.428 521.631L768.761 521.644L768.835 541.191L787.925 541.157C788.087 541.166 788.278 541.241 788.431 541.412C788.632 541.601 788.7 541.848 788.683 542.172L788.769 554.832ZM787.059 553.993L787.02 542.895L768.806 542.944L768.846 554.041L787.059 553.993Z" fill="white"/>
<path d="M787.939 556.38L768.068 556.437C767.077 556.433 766.445 555.798 766.449 554.807L766.327 520.686C766.315 520.295 766.447 519.961 766.741 519.636C766.949 519.387 767.319 519.147 767.986 519.134L770.406 519.15C771.006 519.166 771.445 519.449 771.743 519.953C771.917 520.352 772.014 520.666 772.044 521.008C772.065 521.237 771.924 521.733 771.354 522.06C771.136 522.194 770.708 522.301 769.536 522.336L769.603 540.502L787.931 540.443C788.274 540.413 788.637 540.611 788.962 540.905C789.211 541.113 789.432 541.531 789.464 542.15L789.483 554.838C789.485 555.114 789.382 555.515 789.003 555.917C788.624 556.319 788.215 556.379 787.939 556.38ZM767.899 555.047C767.899 555.047 767.946 555.066 768.061 555.056L787.931 554.999C787.931 554.999 787.931 554.999 788.017 554.922C788.035 554.874 788.102 554.845 788.102 554.845L788.064 542.205C788.054 542.091 788.044 541.976 787.996 541.958C787.948 541.939 787.967 541.891 787.919 541.872L768.211 541.938L768.148 520.962L769.529 520.955C770.196 520.942 770.539 520.911 770.653 520.901C770.624 520.835 770.595 520.768 770.566 520.702L768.099 520.667C767.985 520.677 767.918 520.706 767.918 520.706C767.899 520.754 767.833 520.783 767.88 520.802L768.003 554.923C767.87 554.98 767.899 555.047 767.899 555.047ZM787.768 554.714L768.107 554.798L768.079 542.272L787.74 542.187L787.768 554.714ZM769.566 553.333L786.35 553.273L786.3 543.605L769.515 543.665L769.566 553.333Z" fill="white"/>
<path d="M210.921 591.469L207.224 580.419L208.053 580.415L210.028 586.32C210.56 587.908 211.005 589.296 211.345 590.533L211.393 590.552C211.72 589.302 212.236 587.851 212.79 586.305L214.912 580.359L215.74 580.355L211.721 591.398L210.921 591.469Z" fill="white"/>
<path d="M220.752 591.427L220.651 590.284L220.603 590.265C220.197 590.877 219.362 591.596 218.095 591.593C216.504 591.573 215.784 590.462 215.741 589.453C215.741 587.633 217.326 586.548 220.526 586.541L220.506 586.313C220.483 585.532 220.322 583.98 218.484 584.027C217.817 584.041 217.094 584.197 216.487 584.619L216.208 584.068C216.9 583.569 217.804 583.374 218.519 583.379C220.776 583.387 221.223 585.051 221.212 586.48L221.209 589.567C221.193 590.167 221.254 590.852 221.352 591.443L220.752 591.427ZM220.587 587.227C218.901 587.169 216.644 587.438 216.607 589.353C216.613 590.458 217.349 590.968 218.178 590.964C219.492 590.986 220.221 590.115 220.503 589.399C220.56 589.256 220.587 589.046 220.577 588.932L220.587 587.227Z" fill="white"/>
<path d="M223.844 579.798L224.625 579.775L224.667 591.425L223.886 591.448L223.844 579.798Z" fill="white"/>
<path d="M228.376 581.307C228.388 581.698 228.161 581.994 227.723 581.987C227.38 582.018 227.121 581.695 227.11 581.305C227.098 580.914 227.373 580.636 227.763 580.625C228.106 580.594 228.365 580.917 228.376 581.307ZM227.382 591.391L227.331 583.542L228.112 583.519L228.163 591.368L227.382 591.391Z" fill="white"/>
<path d="M237.037 579.757L237.079 589.588C237.082 590.14 237.124 590.874 237.127 591.426L236.412 591.42L236.347 589.906L236.299 589.887C235.895 590.775 234.975 591.571 233.498 591.54C231.564 591.551 230.108 589.929 230.086 587.605C230.063 585.005 231.664 583.32 233.598 583.31C234.979 583.302 235.802 584.012 236.139 584.696L236.187 584.715L236.16 579.743L237.037 579.757ZM236.263 586.62C236.243 586.392 236.242 586.115 236.155 585.916C235.854 584.86 234.925 583.998 233.658 583.995C231.953 583.985 230.866 585.486 230.886 587.534C230.905 589.306 231.809 590.93 233.628 590.93C234.733 590.924 235.796 590.185 236.142 588.888C236.217 588.697 236.245 588.487 236.224 588.259L236.263 586.62Z" fill="white"/>
<path d="M244.673 580.946L241.082 580.965L241.069 580.298L249.061 580.303L249.075 580.97L245.483 580.989L245.528 591.372L244.747 591.395L244.673 580.946Z" fill="white"/>
<path d="M250.135 579.679L250.916 579.656L250.914 584.838L250.962 584.857C251.198 584.398 251.577 583.996 252.013 583.727C252.45 583.458 253.011 583.293 253.583 583.243C254.345 583.267 256.309 583.6 256.315 586.524L256.321 591.268L255.54 591.291L255.496 586.643C255.508 585.214 254.91 583.931 253.301 583.959C252.196 583.965 251.276 584.76 250.947 585.733C250.853 585.972 250.826 586.182 250.856 586.524L250.891 591.335L250.11 591.358L250.135 579.679Z" fill="white"/>
<path d="M258.921 585.786C258.898 585.005 258.893 584.177 258.852 583.443L259.566 583.449L259.594 585.059L259.641 585.078C259.988 584.057 260.794 583.271 261.88 583.313C261.994 583.303 262.09 583.341 262.204 583.33L262.179 584.093C262.084 584.055 261.97 584.065 261.808 584.056C260.703 584.062 259.955 584.981 259.724 586.268C259.696 586.478 259.65 586.735 259.651 587.011L259.646 591.365L258.865 591.388L258.921 585.786Z" fill="white"/>
<path d="M269.809 589.359C269.803 590.074 269.835 590.693 269.886 591.264L269.171 591.258L269.116 589.858L269.068 589.839C268.672 590.565 267.781 591.427 266.352 591.416C265.362 591.411 263.682 590.915 263.677 587.991L263.662 583.409L264.443 583.386L264.466 587.806C264.456 589.511 265.006 590.775 266.568 590.729C267.721 590.742 268.545 589.909 268.865 589.097C268.959 588.859 269.024 588.553 269.041 588.23L269.044 583.324L269.825 583.3L269.809 589.359Z" fill="white"/>
<path d="M211.144 601.261L209.368 602.27L209.174 601.643L211.188 600.451L211.902 600.456L211.949 611.116L211.187 611.091L211.144 601.261Z" fill="white"/>
<path d="M216.092 611.094L216.071 610.589L217.066 609.602C220.032 606.691 221.282 605.198 221.3 603.331C221.284 602.112 220.764 600.914 218.992 600.933C218.001 600.929 217.194 601.438 216.749 601.869L216.451 601.366C217.133 600.753 218.084 600.3 219.189 600.294C221.399 600.282 222.17 601.964 222.167 603.231C222.168 605.327 220.681 607.002 217.99 609.636L217.232 610.44L217.213 610.488L222.462 610.46L222.475 611.127L216.092 611.094Z" fill="white"/>
<path d="M223.126 611.714L228.312 599.808L229.093 599.785L223.859 611.672L223.126 611.714Z" fill="white"/>
<path d="M229.838 611.05L229.816 610.545L230.811 609.559C233.778 606.647 235.027 605.155 235.046 603.287C235.03 602.068 234.509 600.871 232.738 600.89C231.747 600.885 230.94 601.394 230.494 601.825L230.196 601.322C230.879 600.709 231.829 600.256 232.934 600.25C235.144 600.239 235.915 601.921 235.912 603.188C235.914 605.283 234.427 606.958 231.736 609.592L230.978 610.396L230.959 610.444L236.207 610.416L236.221 611.083L229.838 611.05Z" fill="white"/>
<path d="M242.317 611.003L242.291 607.85L237.204 607.886L237.182 607.382L242.366 600.381L243.032 600.368L243.04 607.208L244.697 607.199L244.71 607.866L243.053 607.875L243.079 611.028L242.317 611.003ZM242.307 607.25L242.293 602.944C242.272 602.439 242.298 601.953 242.324 601.467L242.276 601.449C241.936 602.032 241.738 602.395 241.473 602.787L238.182 607.224L238.163 607.272L242.307 607.25Z" fill="white"/>
<path d="M574.67 649.902L573.126 649.901L562.031 628.659L562.092 649.359C562.104 649.749 561.915 649.95 561.543 649.914C561.2 649.945 561.018 649.707 561.006 649.317L560.938 627.236L562.481 627.238L573.578 648.755L573.496 627.828C573.505 627.666 573.561 627.522 573.665 627.398C573.769 627.274 573.902 627.216 574.064 627.224C574.179 627.214 574.255 627.3 574.38 627.404C574.504 627.508 574.543 627.689 574.582 627.869L574.67 649.902Z" fill="white"/>
<path d="M594.537 649.292C594.547 649.406 594.491 649.549 594.453 649.645C594.349 649.769 594.283 649.798 594.169 649.808C593.845 649.791 593.672 649.668 593.576 649.354L592.083 644.466L583.424 644.473C583.002 645.685 582.673 646.659 582.506 647.364C582.29 648.051 582.131 648.595 582.028 648.996C581.944 649.349 581.85 649.587 581.746 649.712C581.709 649.807 581.576 649.865 581.509 649.894C581.166 649.924 580.984 649.687 580.973 649.297L580.971 649.02L587.232 627.669C587.249 627.345 587.467 627.21 587.858 627.199C588.134 627.197 588.277 627.254 588.316 627.434L594.584 649.035L594.537 649.292ZM591.753 643.343L587.767 629.809L583.742 643.386L591.753 643.343Z" fill="white"/>
<path d="M614.541 649.178C614.551 649.292 614.495 649.435 614.391 649.559C614.287 649.684 614.154 649.742 614.039 649.752C613.877 649.743 613.734 649.687 613.676 649.554C613.571 649.402 613.513 649.269 613.503 649.155L613.427 627.512L608.206 634.608L608.241 635.779C608.251 635.894 608.194 636.037 608.09 636.161C607.986 636.285 607.853 636.343 607.739 636.353C607.577 636.345 607.481 636.307 607.357 636.203C607.233 636.099 607.175 635.966 607.184 635.804L607.178 634.699L601.881 627.43L601.948 649.234C601.958 649.349 601.902 649.492 601.798 649.616C601.694 649.741 601.561 649.798 601.399 649.79C601.008 649.801 600.807 649.612 600.843 649.24L600.775 627.16L603.032 627.167L607.695 633.525L612.358 627.146L614.502 627.164L614.541 649.178Z" fill="white"/>
<path d="M634.666 648.615C634.828 648.624 634.971 648.68 635.048 648.766C635.172 648.87 635.23 649.003 635.222 649.165C635.232 649.279 635.194 649.374 635.042 649.48C634.938 649.604 634.805 649.662 634.643 649.654L621.498 649.713L621.426 627.08L634.572 627.02C634.686 627.01 634.763 627.096 634.935 627.219C635.059 627.323 635.165 627.475 635.156 627.637C635.166 627.751 635.081 627.827 634.958 628C634.806 628.105 634.673 628.163 634.559 628.173L622.518 628.227L622.54 637.829L628.341 637.798C628.456 637.788 628.551 637.826 628.657 637.978C628.781 638.082 628.839 638.215 628.83 638.377C628.822 638.539 628.765 638.682 628.68 638.759C628.576 638.883 628.443 638.941 628.328 638.951L622.527 638.982L622.578 648.65L634.666 648.615Z" fill="white"/>
<path d="M665.149 648.492C666.139 648.497 666.651 648.037 666.637 647.094C666.654 646.77 666.462 646.418 666.174 646.029L654.541 631.192C654.177 630.718 653.964 630.138 653.98 629.537C653.948 628.918 654.192 628.298 654.675 627.771C655.158 627.245 655.757 626.985 656.491 626.943L664.663 626.909C665.006 626.879 665.388 627.029 665.77 627.18C666.133 627.378 666.477 627.624 666.755 627.898C667.033 628.173 667.273 628.543 667.494 628.961C667.668 629.361 667.793 629.741 667.786 630.179C667.788 630.455 667.683 630.58 667.436 630.648C667.189 630.716 667.056 630.774 666.989 630.803C666.701 630.414 666.528 630.014 666.383 629.682C666.239 629.349 666.142 629.035 666.007 628.817C665.873 628.598 665.672 628.409 665.452 628.267C665.232 628.126 664.86 628.089 664.374 628.063L656.639 628.104C656.039 628.088 655.659 628.214 655.432 628.511C655.224 628.759 655.092 629.093 655.085 629.532C655.076 629.694 655.115 629.874 655.202 630.074C655.289 630.274 655.423 630.492 655.577 630.663L667.181 645.433C667.593 645.927 667.805 646.506 667.79 647.107C667.772 647.431 667.707 647.736 667.575 648.07C667.396 648.385 667.236 648.653 667.046 648.854C666.838 649.103 666.601 649.285 666.335 649.401C666.068 649.516 665.821 649.584 665.593 649.605L657.191 649.658C656.753 649.651 656.286 649.577 655.923 649.379C655.56 649.181 655.215 648.935 654.938 648.66C654.679 648.338 654.42 648.015 654.294 647.635C654.168 647.255 654.071 646.941 654.041 646.598C654.048 646.16 654.256 645.911 654.647 645.899C654.761 645.889 654.904 645.946 654.962 646.079C655.087 646.183 655.097 646.297 655.126 646.364C655.11 646.964 655.341 647.496 655.772 647.942C656.203 648.387 656.728 648.594 657.395 648.581L665.149 648.492Z" fill="white"/>
<path d="M688.149 645.809C688.171 646.314 688.03 646.81 687.861 647.24C687.673 647.717 687.38 648.042 687.067 648.416C686.726 648.722 686.337 649.01 685.919 649.231C685.501 649.453 685.025 649.541 684.539 649.515L678.138 649.529C677.633 649.551 677.137 649.411 676.707 649.242C676.23 649.054 675.905 648.76 675.532 648.448C675.225 648.106 674.937 647.717 674.716 647.299C674.513 646.834 674.425 646.358 674.451 645.872L674.393 627.544C674.401 627.382 674.458 627.239 674.562 627.115C674.666 626.99 674.799 626.933 674.961 626.941C675.285 626.959 675.438 627.129 675.45 627.52L675.508 645.847C675.503 646.562 675.811 647.179 676.337 647.662C676.864 648.145 677.484 648.39 678.151 648.377L684.552 648.362C685.219 648.349 685.818 648.089 686.33 647.629C686.86 647.121 687.134 646.567 687.139 645.853L687.052 627.459C687.08 627.249 687.088 627.087 687.24 626.981C687.344 626.857 687.459 626.847 687.573 626.837C687.687 626.827 687.764 626.912 687.888 627.016C688.013 627.12 688.052 627.301 688.091 627.482L688.149 645.809Z" fill="white"/>
<path d="M708.606 648.464C708.74 648.682 708.798 648.815 708.808 648.929C708.818 649.044 708.762 649.187 708.658 649.311C708.553 649.436 708.42 649.494 708.211 649.466C707.982 649.486 707.81 649.363 707.742 649.116L700.062 636.001L696.195 636.022L696.234 648.938C696.244 649.053 696.188 649.196 696.083 649.32C695.979 649.445 695.846 649.503 695.684 649.494C695.294 649.505 695.093 649.316 695.129 648.944L695.06 626.864L705.101 626.849C705.587 626.875 706.054 626.949 706.464 627.166C706.942 627.354 707.267 627.647 707.64 627.96C707.947 628.301 708.235 628.69 708.437 629.156C708.64 629.621 708.747 630.049 708.769 630.554L708.787 632.326C708.809 632.831 708.669 633.327 708.5 633.756C708.33 634.186 708.066 634.578 707.706 634.932C707.364 635.239 706.975 635.527 706.557 635.748C706.092 635.95 705.663 636.057 705.111 636.06L701.358 636.071L708.606 648.464ZM705.076 634.889C705.4 634.906 705.714 634.809 706.047 634.665C706.379 634.52 706.616 634.338 706.872 634.108C707.128 633.878 707.289 633.61 707.468 633.295C707.648 632.98 707.713 632.675 707.701 632.284L707.701 630.465C707.707 629.75 707.399 629.133 706.872 628.65C706.346 628.166 705.725 627.922 705.059 627.935L696.123 627.944L696.141 634.898L705.076 634.889Z" fill="white"/>
<path d="M729.253 649.374L727.71 649.372L716.615 628.131L716.676 648.83C716.687 649.221 716.498 649.422 716.126 649.386C715.783 649.416 715.601 649.179 715.59 648.788L715.521 626.708L717.064 626.709L728.161 648.227L728.079 627.299C728.088 627.137 728.144 626.994 728.248 626.87C728.353 626.745 728.486 626.687 728.648 626.696C728.762 626.686 728.839 626.771 728.963 626.875C729.087 626.979 729.126 627.16 729.165 627.341L729.253 649.374Z" fill="white"/>
<path d="M749.12 648.766C749.131 648.88 749.074 649.023 749.037 649.119C748.932 649.243 748.866 649.272 748.752 649.282C748.428 649.265 748.256 649.142 748.159 648.828L746.666 643.939L738.007 643.947C737.585 645.159 737.256 646.132 737.089 646.838C736.873 647.525 736.714 648.069 736.611 648.469C736.528 648.822 736.434 649.061 736.329 649.185C736.292 649.281 736.159 649.339 736.092 649.368C735.749 649.398 735.567 649.161 735.556 648.77L735.554 648.494L741.815 627.142C741.832 626.818 742.05 626.684 742.441 626.672C742.717 626.671 742.86 626.727 742.899 626.908L749.167 648.508L749.12 648.766ZM746.288 642.798L742.302 629.264L738.277 642.84L746.288 642.798Z" fill="white"/>
<path d="M769.058 648.679C769.068 648.793 769.011 648.937 768.907 649.061C768.803 649.185 768.67 649.243 768.556 649.253C768.394 649.245 768.251 649.188 768.193 649.055C768.087 648.903 768.029 648.77 768.019 648.656L767.944 627.014L762.723 634.109L762.757 635.281C762.767 635.395 762.711 635.538 762.607 635.663C762.503 635.787 762.37 635.845 762.255 635.855C762.093 635.846 761.998 635.809 761.874 635.705C761.749 635.6 761.691 635.467 761.7 635.305L761.694 634.2L756.398 626.931L756.465 648.736C756.475 648.85 756.419 648.993 756.314 649.118C756.21 649.242 756.077 649.3 755.915 649.291C755.525 649.303 755.324 649.113 755.36 648.742L755.291 626.661L757.549 626.668L762.212 633.026L766.875 626.648L769.018 626.665L769.058 648.679Z" fill="white"/>
<path d="M789.202 648.068C789.364 648.077 789.507 648.133 789.584 648.219C789.708 648.323 789.766 648.456 789.757 648.618C789.767 648.732 789.73 648.828 789.578 648.933C789.474 649.058 789.341 649.115 789.179 649.107L776.033 649.166L775.962 626.533L789.107 626.474C789.222 626.464 789.298 626.549 789.47 626.672C789.595 626.776 789.7 626.928 789.692 627.09C789.702 627.204 789.616 627.281 789.493 627.453C789.342 627.558 789.209 627.616 789.094 627.626L777.054 627.68L777.076 637.282L782.877 637.252C782.991 637.242 783.087 637.279 783.192 637.431C783.317 637.535 783.374 637.668 783.366 637.83C783.357 637.992 783.301 638.135 783.215 638.212C783.111 638.336 782.978 638.394 782.864 638.404L777.063 638.435L777.114 648.103L789.202 648.068Z" fill="white"/>
<path d="M770.583 275.857C770.626 273.228 771.034 271.073 771.873 269.363C772.712 267.654 773.867 266.4 775.34 265.601C776.812 264.803 778.572 264.394 780.601 264.421L793.786 264.542L793.705 270.906L781.025 270.763C779.92 270.769 779.101 270.888 778.503 271.148C777.904 271.408 777.469 271.954 777.187 272.669C776.952 273.404 776.796 274.5 776.785 275.929C776.773 277.358 776.893 278.453 777.145 279.214C777.397 279.975 777.809 280.468 778.41 280.76C779.012 281.052 779.851 281.162 780.937 281.204L793.617 281.347L793.536 287.711L780.351 287.589C778.322 287.562 776.624 287.114 775.125 286.302C773.644 285.443 772.541 284.182 771.742 282.434C770.894 280.666 770.54 278.487 770.583 275.857Z" fill="white"/>
<path d="M770.706 295.699L770.787 289.335L787.868 289.503L787.775 295.476L782.498 295.437L782.329 295.866L770.706 295.699ZM770.568 309.207L770.649 302.844L779.27 302.932C780.47 302.964 781.298 302.683 781.714 302.185C782.15 301.64 782.411 300.696 782.404 299.314C782.397 297.933 782.22 296.982 781.808 296.488C781.396 295.995 780.642 295.809 779.556 295.767L779.591 295.119L782.656 294.617L782.661 295.722C783.596 295.869 784.521 296.179 785.324 296.66C786.174 297.161 786.835 297.862 787.336 298.831C787.836 299.8 788.129 301.018 788.079 302.542C788.078 304.086 787.751 305.335 787.194 306.329C786.638 307.323 785.851 308.06 784.882 308.561C783.913 309.061 782.78 309.277 781.58 309.245L770.568 309.207Z" fill="white"/>
<path d="M770.45 317.486L770.53 311.122L787.611 311.289L787.53 317.653L770.45 317.486ZM789.074 317.654L789.154 311.291L793.213 311.345L793.132 317.709L789.074 317.654Z" fill="white"/>
<path d="M770.278 333.738L770.341 325.879L787.487 318.463L787.4 325.541L776.505 329.685L776.498 330.124L787.324 334.553L787.275 341.536L770.278 333.738Z" fill="white"/>
<path d="M769.734 351.773C769.772 349.858 770.058 348.152 770.641 346.672C771.224 345.193 772.228 344.044 773.538 343.237C774.848 342.43 776.561 342.002 778.704 342.019C780.571 342.038 782.107 342.478 783.426 343.328C784.745 344.179 785.723 345.336 786.426 346.77C787.11 348.253 787.443 349.928 787.424 351.795C787.415 353.776 787.081 355.464 786.403 356.906C785.725 358.348 784.788 359.467 783.544 360.245C782.3 361.024 780.721 361.394 778.901 361.394C778.625 361.395 778.349 361.397 778.091 361.351C777.882 361.323 777.558 361.306 777.252 361.241L777.411 346.141L780.641 346.201L780.534 356.689L778.545 355.299C778.755 355.327 778.936 355.288 779.146 355.315C779.307 355.324 779.536 355.304 779.746 355.331C780.784 355.354 781.497 355.084 781.933 354.538C782.349 354.041 782.563 353.078 782.575 351.649C782.586 350.22 782.381 349.202 781.921 348.69C781.461 348.178 780.678 347.925 779.478 347.893L777.839 347.854C776.639 347.822 775.812 348.103 775.395 348.6C774.979 349.098 774.746 350.109 774.734 351.538C774.731 352.804 774.831 353.671 775.034 354.137C775.255 354.554 775.647 354.819 776.152 354.797L776.542 354.786L776.461 361.15L776.071 361.161C774.804 361.158 773.687 360.774 772.74 359.959C771.774 359.193 771.054 358.082 770.494 356.704C769.982 355.344 769.744 353.707 769.734 351.773Z" fill="white"/>
<path d="M769.932 369.329L770.012 362.965L787.093 363.133L787.001 369.106L782.114 369.055L781.944 369.485L769.932 369.329ZM780.096 369.418L780.128 368.218L782.548 368.234L782.553 369.339C783.488 369.486 784.347 369.825 785.054 370.269C785.761 370.713 786.346 371.329 786.74 372.146C787.154 372.915 787.331 373.867 787.318 375.02C787.315 376.287 787.034 377.279 786.505 378.063C785.976 378.847 785.264 379.393 784.418 379.722C783.524 380.031 782.506 380.237 781.353 380.224L777.943 380.204L778.005 373.888L779.986 373.896C780.701 373.902 781.195 373.766 781.489 373.441C781.783 373.115 781.942 372.571 781.937 371.743C781.952 370.866 781.787 370.305 781.528 369.982C781.288 369.612 780.792 369.472 780.096 369.418Z" fill="white"/>
<path d="M769.358 390.66C769.39 387.64 769.949 385.379 771.074 383.782C772.181 382.233 773.767 381.425 775.682 381.462L775.797 381.452L775.716 387.816L775.392 387.799C774.906 387.773 774.602 387.984 774.499 388.384C774.397 388.785 774.324 389.528 774.311 390.681C774.317 391.786 774.378 392.472 774.475 392.785C774.591 393.052 774.792 393.241 775.068 393.24C775.344 393.238 775.544 393.151 775.638 392.913C775.732 392.674 775.824 392.159 775.963 391.387L776.537 386.43C776.728 384.686 777.254 383.35 778.069 382.402C778.931 381.474 780.043 381.03 781.472 381.041C782.463 381.046 783.388 381.355 784.268 381.922C785.08 382.518 785.762 383.448 786.292 384.76C786.776 386.053 787.042 387.756 787.024 389.9C787.016 391.881 786.748 393.54 786.27 394.895C785.791 396.251 785.072 397.235 784.142 397.917C783.212 398.598 782.042 398.909 780.613 398.897L780.499 398.908L780.58 392.544L780.79 392.571C781.066 392.57 781.313 392.502 781.513 392.415C781.731 392.281 781.844 391.994 781.947 391.594C782.049 391.193 782.084 390.545 782.098 389.669C782.121 388.63 782.042 387.992 781.878 387.707C781.763 387.441 781.476 387.328 781.2 387.33C780.972 387.35 780.82 387.456 780.659 387.723C780.499 387.991 780.369 388.601 780.25 389.602L779.858 392.976C779.547 395.445 778.985 397.153 778.17 398.101C777.308 399.029 776.177 399.521 774.748 399.509C773.71 399.486 772.737 399.158 771.914 398.448C771.091 397.738 770.428 396.76 770.012 395.438C769.576 394.164 769.32 392.574 769.358 390.66Z" fill="white"/>
<defs>
<radialGradient id="paint0_radial_394_5663" cx="0" cy="0" r="1" gradientUnits="userSpaceOnUse" gradientTransform="translate(958.14 213.382) rotate(10.6488) scale(869.576 869.576)">
<stop stop-color="#80FFFF"/>
<stop offset="0.0779373" stop-color="#80F5F6"/>
<stop offset="0.7102" stop-color="#80A5AF"/>
<stop offset="1" stop-color="#808593"/>
</radialGradient>
<linearGradient id="paint1_linear_394_5663" x1="182.202" y1="201.1" x2="1068.31" y2="802.598" gradientUnits="userSpaceOnUse">
<stop stop-color="#FF003D"/>
<stop offset="0.00788385" stop-color="#FD9800"/>
<stop offset="0.5056" stop-color="#8B0800"/>
<stop offset="0.8455" stop-color="#FF00B8"/>
<stop offset="1" stop-color="#FF0909"/>
</linearGradient>
<linearGradient id="paint2_linear_394_5663" x1="321.354" y1="479.776" x2="219.458" y2="409.785" gradientUnits="userSpaceOnUse">
<stop stop-color="#DCC080"/>
<stop offset="1" stop-color="#EDDDB8"/>
</linearGradient>
</defs>
</svg>
